<?xml version="1.0" encoding="UTF-8" standalone="no"?>
<svg
   width="217"
   height="57"
   viewBox="0 0 217 57"
   fill="none"
   version="1.1"
   id="svg147"
   sodipodi:docname="logo-oatucl.svg"
   inkscape:export-filename="export/logo-oatucl.png"
   inkscape:export-xdpi="300"
   inkscape:export-ydpi="300"
   inkscape:version="1.2.2 (b0a8486541, 2022-12-01)"
   xmlns:inkscape="http://www.inkscape.org/namespaces/inkscape"
   xmlns:sodipodi="http://sodipodi.sourceforge.net/DTD/sodipodi-0.dtd"
   xmlns="http://www.w3.org/2000/svg"
   xmlns:svg="http://www.w3.org/2000/svg">
  <sodipodi:namedview
     id="namedview149"
     pagecolor="#ffffff"
     bordercolor="#ffffff"
     borderopacity="1"
     inkscape:showpageshadow="0"
     inkscape:pageopacity="0"
     inkscape:pagecheckerboard="1"
     inkscape:deskcolor="#d1d1d1"
     showgrid="false"
     inkscape:zoom="5.6497696"
     inkscape:cx="103.27855"
     inkscape:cy="37.169657"
     inkscape:window-width="1872"
     inkscape:window-height="1051"
     inkscape:window-x="0"
     inkscape:window-y="0"
     inkscape:window-maximized="1"
     inkscape:current-layer="svg147" />
  <path
     d="M203.389 23.104H217V28.1249H197.74V0.353027H203.389V23.104Z"
     fill="#484747"
     id="path2" />
  <path
     d="M174.36 14.1604C174.36 15.3372 174.503 16.4748 174.791 17.5731C175.105 18.6714 175.562 19.639 176.164 20.4758C176.792 21.3126 177.576 21.9925 178.517 22.5155C179.485 23.0124 180.636 23.2608 181.969 23.2608C183.643 23.2608 185.016 22.8947 186.088 22.1625C187.186 21.4041 187.866 20.3581 188.128 19.0244H193.619C193.489 20.5673 193.083 21.9271 192.403 23.1039C191.723 24.2545 190.847 25.2221 189.775 26.0066C188.703 26.7911 187.487 27.3795 186.127 27.7718C184.767 28.164 183.355 28.3601 181.891 28.3601C179.72 28.3601 177.798 28.0071 176.125 27.3011C174.477 26.595 173.078 25.6143 171.928 24.3591C170.803 23.1039 169.953 21.6133 169.378 19.8874C168.803 18.1615 168.515 16.2655 168.515 14.1997C168.515 12.1861 168.803 10.3163 169.378 8.59038C169.979 6.83829 170.855 5.33464 172.006 4.07942C173.157 2.79804 174.556 1.80432 176.203 1.09826C177.877 0.366046 179.799 -6.10352e-05 181.969 -6.10352e-05C183.486 -6.10352e-05 184.911 0.182992 186.245 0.549099C187.579 0.915206 188.768 1.47744 189.814 2.23581C190.86 2.99417 191.71 3.97481 192.364 5.17774C193.044 6.35451 193.462 7.76663 193.619 9.41412H188.128C187.84 8.08044 187.16 7.02135 186.088 6.23683C185.016 5.45232 183.643 5.06006 181.969 5.06006C180.636 5.06006 179.485 5.30849 178.517 5.80535C177.576 6.27606 176.792 6.92982 176.164 7.76663C175.562 8.60345 175.105 9.5841 174.791 10.7086C174.503 11.8069 174.36 12.9575 174.36 14.1604Z"
     fill="#484747"
     id="path4" />
  <path
     d="M152.356 28.4387C150.185 28.4387 148.329 28.1248 146.786 27.4972C145.269 26.8696 144.027 25.9805 143.059 24.8299C142.118 23.6793 141.425 22.3064 140.98 20.7112C140.562 19.0899 140.353 17.2724 140.353 15.2588V0.353027H146.04V15.6511C146.04 16.6709 146.145 17.6516 146.354 18.593C146.563 19.5083 146.916 20.3189 147.413 21.025C147.91 21.7311 148.564 22.3064 149.375 22.7509C150.185 23.1693 151.205 23.3785 152.434 23.3785C153.637 23.3785 154.644 23.1693 155.455 22.7509C156.265 22.3064 156.906 21.7311 157.377 21.025C157.873 20.2928 158.213 19.469 158.396 18.5538C158.606 17.6124 158.71 16.6448 158.71 15.6511V0.353027H164.359V15.2588C164.359 17.2201 164.136 19.0245 163.692 20.672C163.274 22.2933 162.581 23.6793 161.613 24.8299C160.672 25.9805 159.429 26.8696 157.887 27.4972C156.37 28.1248 154.526 28.4387 152.356 28.4387Z"
     fill="#484747"
     id="path6" />
  <path
     d="M114.284 5.41314V0.353027H137.388V5.41314H128.68V28.1249H122.992V5.41314H114.284Z"
     fill="#484747"
     id="path8" />
  <path
     d="M96.4281 22.8294L94.4276 28.1249H88.2299L98.9778 0.353027H105.411L116.002 28.1249H109.765L107.843 22.8294H96.4281ZM98.0756 17.8085H106.156L102.155 6.35457L98.0756 17.8085Z"
     fill="#484747"
     id="path10" />
  <path
     d="M73.7994 0C75.9176 0 77.8266 0.339956 79.5264 1.01987C81.2262 1.69978 82.6644 2.66735 83.8412 3.92257C85.018 5.15165 85.9202 6.62915 86.5478 8.35508C87.1754 10.081 87.4892 11.99 87.4892 14.082C87.4892 16.1218 87.1754 18.0177 86.5478 19.7698C85.9202 21.5219 85.018 23.0386 83.8412 24.32C82.6644 25.6013 81.2131 26.6081 79.4872 27.3403C77.7874 28.0464 75.8522 28.3864 73.6817 28.3602C71.5113 28.3602 69.5761 28.0072 67.8763 27.3011C66.2027 26.5689 64.7775 25.5752 63.6007 24.32C62.4501 23.0647 61.561 21.5742 60.9334 19.8482C60.3319 18.1223 60.0312 16.2395 60.0312 14.1997C60.0312 12.1077 60.345 10.1987 60.9726 8.47276C61.6264 6.72068 62.5416 5.21702 63.7184 3.9618C64.9213 2.70657 66.3727 1.73901 68.0725 1.05909C69.7722 0.353031 71.6812 0 73.7994 0ZM65.8758 14.1213C65.8758 15.3242 66.0327 16.4748 66.3465 17.5731C66.6865 18.6453 67.1703 19.5998 67.7979 20.4366C68.4516 21.2734 69.2754 21.9533 70.2691 22.4764C71.2628 22.9732 72.4265 23.2347 73.7602 23.2609C75.0416 23.287 76.1791 23.0647 77.1728 22.594C78.1666 22.0972 78.9903 21.4303 79.6441 20.5935C80.2978 19.7305 80.7947 18.7499 81.1346 17.6516C81.4746 16.5271 81.6446 15.3634 81.6446 14.1605C81.6446 12.9837 81.4746 11.8462 81.1346 10.7479C80.8208 9.64953 80.337 8.68196 79.6833 7.84515C79.0557 6.98218 78.245 6.30227 77.2513 5.80541C76.2576 5.30855 75.0939 5.06012 73.7602 5.06012C72.4527 5.06012 71.3021 5.30855 70.3083 5.80541C69.3146 6.30227 68.4909 6.96911 67.8371 7.80592C67.1833 8.64274 66.6865 9.61031 66.3465 10.7086C66.0327 11.7808 65.8758 12.9183 65.8758 14.1213Z"
     fill="#484747"
     id="path12" />
  <path
     d="M212.958 51.1836C212.979 51.4234 213.027 51.6461 213.102 51.8516C213.184 52.0503 213.294 52.2251 213.431 52.3758C213.568 52.5265 213.736 52.6464 213.934 52.7355C214.14 52.8177 214.376 52.8588 214.644 52.8588C214.774 52.8588 214.907 52.8486 215.044 52.828C215.188 52.8006 215.322 52.7595 215.445 52.7047C215.568 52.643 215.678 52.5642 215.774 52.4683C215.87 52.3724 215.942 52.2559 215.99 52.1189H216.884C216.822 52.3792 216.716 52.6053 216.565 52.7972C216.422 52.989 216.247 53.1466 216.041 53.2699C215.843 53.3933 215.62 53.4858 215.373 53.5474C215.127 53.6022 214.876 53.6297 214.623 53.6297C214.191 53.6297 213.814 53.5611 213.492 53.4241C213.177 53.2871 212.913 53.0986 212.701 52.8588C212.489 52.6122 212.331 52.321 212.228 51.9853C212.126 51.6427 212.074 51.2693 212.074 50.865C212.074 50.4608 212.129 50.0908 212.239 49.755C212.355 49.4125 212.52 49.1178 212.732 48.8712C212.944 48.6245 213.205 48.4327 213.513 48.2956C213.821 48.1586 214.188 48.0901 214.613 48.0901C215.044 48.0901 215.418 48.1757 215.733 48.347C216.048 48.5183 216.302 48.7444 216.493 49.0253C216.685 49.2994 216.819 49.5975 216.894 49.9195C216.977 50.2415 217.011 50.5396 216.997 50.8136C216.997 50.8753 216.994 50.937 216.987 50.9986C216.987 51.0603 216.983 51.1219 216.977 51.1836H212.958ZM216.113 50.4231C216.099 49.964 215.956 49.5906 215.682 49.3028C215.407 49.0151 215.041 48.8712 214.582 48.8712C214.328 48.8712 214.106 48.9123 213.914 48.9945C213.722 49.0767 213.561 49.1898 213.431 49.3337C213.301 49.4775 213.198 49.6454 213.122 49.8373C213.047 50.0223 212.999 50.2175 212.979 50.4231H216.113Z"
     fill="#484747"
     id="path14" />
  <path
     d="M209.742 48.1516H211.407V48.9224H209.742V51.7385C209.742 51.896 209.749 52.0434 209.763 52.1804C209.783 52.3106 209.818 52.427 209.866 52.5298C209.921 52.6257 209.996 52.7045 210.092 52.7662C210.195 52.821 210.332 52.8518 210.503 52.8587C210.661 52.8587 210.798 52.8313 210.914 52.7765C211.037 52.7217 211.14 52.6566 211.222 52.5812L211.603 53.2184C211.424 53.3691 211.239 53.4753 211.048 53.537C210.856 53.5987 210.643 53.6295 210.41 53.6295C210.116 53.6295 209.869 53.5884 209.67 53.5062C209.472 53.4171 209.304 53.2904 209.167 53.1259C209.05 52.9683 208.972 52.7833 208.93 52.5709C208.889 52.3585 208.869 52.1187 208.869 51.8515V48.9224H207.985V48.1516H208.869V46.5278H209.742V48.1516ZM209.938 55.4795C209.76 55.4658 209.616 55.4075 209.506 55.3047C209.396 55.202 209.342 55.0649 209.342 54.8936C209.342 54.7018 209.403 54.5545 209.527 54.4517C209.65 54.3489 209.794 54.2975 209.958 54.2975C210.177 54.2975 210.342 54.3798 210.452 54.5442C210.568 54.7086 210.619 54.8971 210.606 55.1095C210.606 55.2945 210.575 55.4658 210.513 55.6233C210.458 55.7878 210.383 55.9419 210.287 56.0858C210.191 56.2297 210.078 56.3565 209.948 56.4661C209.825 56.5757 209.694 56.6545 209.557 56.7025L209.311 56.3633C209.448 56.2674 209.575 56.1372 209.691 55.9728C209.814 55.8083 209.897 55.6439 209.938 55.4795Z"
     fill="#484747"
     id="path16" />
  <path
     d="M202.303 53.568V48.1518H203.146L203.187 48.974C203.276 48.8232 203.386 48.693 203.516 48.5834C203.653 48.4738 203.8 48.3813 203.958 48.3059C204.116 48.2305 204.28 48.1757 204.451 48.1415C204.629 48.1072 204.801 48.0901 204.965 48.0901C205.356 48.0901 205.685 48.1552 205.952 48.2854C206.219 48.4087 206.431 48.5834 206.589 48.8095C206.747 49.0288 206.86 49.2926 206.928 49.6009C206.997 49.9024 207.031 50.2278 207.031 50.5772V53.568H206.157V50.8136C206.157 50.5601 206.14 50.3169 206.106 50.0839C206.079 49.851 206.017 49.6454 205.921 49.4673C205.832 49.2823 205.702 49.135 205.53 49.0253C205.359 48.9157 205.13 48.8609 204.842 48.8609C204.561 48.8678 204.311 48.9363 204.092 49.0664C203.879 49.1966 203.708 49.3508 203.578 49.5289C203.42 49.755 203.314 50.0051 203.259 50.2792C203.204 50.5464 203.177 50.817 203.177 51.0911V53.568H202.303Z"
     fill="#484747"
     id="path18" />
  <path
     d="M200.408 46.1682C200.573 46.1682 200.713 46.223 200.83 46.3326C200.946 46.4354 201.004 46.5724 201.004 46.7437C201.004 46.915 200.946 47.0554 200.83 47.1651C200.713 47.2747 200.573 47.3295 200.408 47.3295C200.237 47.3295 200.096 47.2747 199.987 47.1651C199.877 47.0554 199.822 46.915 199.822 46.7437C199.822 46.5724 199.877 46.4354 199.987 46.3326C200.096 46.223 200.237 46.1682 200.408 46.1682ZM199.977 53.5679V48.1517H200.85V53.5679H199.977Z"
     fill="#484747"
     id="path20" />
  <path
     d="M196.244 52.8588C196.737 52.8588 197.097 52.7114 197.323 52.4168C197.556 52.1154 197.673 51.6974 197.673 51.163V48.1517H198.546V51.2041C198.546 52.0263 198.348 52.6361 197.95 53.0335C197.56 53.4309 196.991 53.6296 196.244 53.6296C195.497 53.6296 194.929 53.4309 194.538 53.0335C194.154 52.6361 193.962 52.0263 193.962 51.2041V48.1517H194.836V51.163C194.836 51.6974 194.953 52.1154 195.185 52.4168C195.418 52.7114 195.771 52.8588 196.244 52.8588Z"
     fill="#484747"
     id="path22" />
  <path
     d="M190.615 53.6297C190.183 53.6297 189.81 53.5611 189.494 53.4241C189.179 53.2871 188.919 53.0952 188.713 52.8486C188.508 52.6019 188.354 52.3107 188.251 51.975C188.148 51.6392 188.097 51.2727 188.097 50.8753C188.097 50.4916 188.151 50.1319 188.261 49.7962C188.371 49.4536 188.532 49.1589 188.744 48.9123C188.957 48.6588 189.224 48.4601 189.546 48.3162C189.868 48.1655 190.258 48.0901 190.717 48.0901C190.991 48.0901 191.235 48.1209 191.447 48.1826C191.66 48.2374 191.858 48.3299 192.043 48.4601C192.235 48.5834 192.4 48.7478 192.537 48.9534C192.674 49.1589 192.773 49.409 192.835 49.7037H191.94C191.838 49.4022 191.673 49.1864 191.447 49.0562C191.228 48.926 190.968 48.8643 190.666 48.8712C190.371 48.8712 190.111 48.9294 189.885 49.0459C189.666 49.1555 189.488 49.3028 189.351 49.4878C189.22 49.6728 189.124 49.8886 189.063 50.1353C189.001 50.3751 188.97 50.6218 188.97 50.8753C188.97 51.1425 189.001 51.396 189.063 51.6358C189.131 51.8756 189.231 52.088 189.361 52.273C189.498 52.4512 189.673 52.5951 189.885 52.7047C190.097 52.8075 190.351 52.8588 190.645 52.8588C190.789 52.8588 190.93 52.8451 191.067 52.8177C191.211 52.7903 191.341 52.7458 191.457 52.6841C191.581 52.6156 191.687 52.5265 191.776 52.4169C191.865 52.3073 191.93 52.1737 191.971 52.0161H192.876C192.821 52.297 192.722 52.5402 192.578 52.7458C192.441 52.9445 192.269 53.1124 192.064 53.2494C191.858 53.3796 191.632 53.4755 191.385 53.5372C191.139 53.5988 190.882 53.6297 190.615 53.6297Z"
     fill="#484747"
     id="path24" />
  <path
     d="M184.574 48.0901C185.006 48.0901 185.379 48.1586 185.695 48.2956C186.01 48.4327 186.274 48.6245 186.486 48.8712C186.705 49.1178 186.866 49.4125 186.969 49.755C187.079 50.0908 187.133 50.4608 187.133 50.865C187.133 51.2693 187.079 51.6427 186.969 51.9853C186.866 52.321 186.705 52.6122 186.486 52.8588C186.274 53.0986 186.006 53.2871 185.684 53.4241C185.362 53.5611 184.985 53.6297 184.554 53.6297C184.122 53.6297 183.745 53.5611 183.423 53.4241C183.108 53.2871 182.841 53.0986 182.622 52.8588C182.409 52.6122 182.248 52.321 182.139 51.9853C182.036 51.6427 181.984 51.2693 181.984 50.865C181.984 50.4608 182.036 50.0908 182.139 49.755C182.248 49.4125 182.409 49.1178 182.622 48.8712C182.841 48.6245 183.115 48.4327 183.444 48.2956C183.773 48.1586 184.15 48.0901 184.574 48.0901ZM184.554 52.8588C184.848 52.8588 185.102 52.8075 185.314 52.7047C185.534 52.6019 185.712 52.4614 185.849 52.2833C185.993 52.0983 186.095 51.8859 186.157 51.6461C186.226 51.4063 186.26 51.1459 186.26 50.865C186.26 50.5909 186.226 50.334 186.157 50.0942C186.095 49.8475 185.993 49.6351 185.849 49.457C185.712 49.272 185.534 49.1281 185.314 49.0253C185.102 48.9226 184.848 48.8712 184.554 48.8712C184.259 48.8712 184.006 48.9226 183.793 49.0253C183.581 49.1281 183.403 49.272 183.259 49.457C183.122 49.6351 183.019 49.8475 182.951 50.0942C182.889 50.334 182.858 50.5909 182.858 50.865C182.858 51.1459 182.889 51.4063 182.951 51.6461C183.019 51.8859 183.122 52.0983 183.259 52.2833C183.403 52.4614 183.581 52.6019 183.793 52.7047C184.006 52.8075 184.259 52.8588 184.554 52.8588Z"
     fill="#484747"
     id="path26" />
  <path
     d="M176.394 46.3016H177.288V52.7558H181.275V53.5678H176.394V46.3016Z"
     fill="#484747"
     id="path28" />
  <path
     d="M171.523 46.1682C171.687 46.1682 171.828 46.223 171.944 46.3326C172.061 46.4354 172.119 46.5724 172.119 46.7437C172.119 46.915 172.061 47.0554 171.944 47.1651C171.828 47.2747 171.687 47.3295 171.523 47.3295C171.352 47.3295 171.211 47.2747 171.101 47.1651C170.992 47.0554 170.937 46.915 170.937 46.7437C170.937 46.5724 170.992 46.4354 171.101 46.3326C171.211 46.223 171.352 46.1682 171.523 46.1682ZM171.091 53.5679V48.1517H171.965V53.5679H171.091Z"
     fill="#484747"
     id="path30" />
  <path
     d="M167.704 48.8712C167.587 48.8712 167.457 48.8815 167.313 48.902C167.176 48.9157 167.046 48.95 166.923 49.0048C166.806 49.0527 166.704 49.1281 166.615 49.2309C166.532 49.3268 166.488 49.457 166.481 49.6214C166.481 49.8544 166.567 50.0291 166.738 50.1456C166.916 50.2621 167.146 50.3477 167.426 50.4025C167.543 50.4299 167.67 50.4573 167.807 50.4847C167.944 50.5053 168.077 50.5293 168.208 50.5567C168.345 50.5772 168.471 50.6012 168.588 50.6286C168.711 50.656 168.814 50.6834 168.896 50.7108C169.554 50.9164 169.883 51.3515 169.883 52.0161C169.876 52.3587 169.807 52.6327 169.677 52.8383C169.547 53.037 169.379 53.1946 169.174 53.311C168.968 53.4275 168.735 53.5132 168.475 53.568C168.221 53.6159 167.968 53.6365 167.714 53.6296C167.468 53.6296 167.217 53.6057 166.964 53.5577C166.71 53.5097 166.478 53.4275 166.265 53.311C166.06 53.1877 165.881 53.0301 165.731 52.8383C165.587 52.6396 165.494 52.3929 165.453 52.0983H166.337C166.392 52.2627 166.478 52.3929 166.594 52.4889C166.71 52.5848 166.837 52.6601 166.974 52.715C167.111 52.7698 167.241 52.8075 167.365 52.828C167.488 52.8486 167.608 52.8588 167.725 52.8588C167.848 52.8588 167.981 52.852 168.125 52.8383C168.276 52.8246 168.413 52.7937 168.536 52.7458C168.66 52.6978 168.769 52.619 168.865 52.5094C168.961 52.3998 169.009 52.2593 169.009 52.088C169.009 51.8619 168.941 51.7009 168.804 51.605C168.667 51.5022 168.485 51.4303 168.259 51.3892C168.095 51.3549 167.923 51.3241 167.745 51.2967C167.574 51.2624 167.399 51.2281 167.221 51.1939C167.05 51.1528 166.882 51.1082 166.717 51.0603C166.553 51.0055 166.399 50.9335 166.255 50.8445C166.077 50.728 165.926 50.5704 165.803 50.3717C165.679 50.173 165.618 49.9161 165.618 49.6009C165.631 49.3131 165.7 49.0767 165.823 48.8917C165.947 48.6999 166.104 48.5423 166.296 48.419C166.501 48.2888 166.731 48.2031 166.985 48.162C167.238 48.1141 167.474 48.0901 167.694 48.0901C168.256 48.0901 168.697 48.21 169.019 48.4498C169.218 48.5868 169.372 48.7513 169.482 48.9431C169.592 49.135 169.66 49.3371 169.688 49.5495H168.876C168.828 49.3508 168.697 49.1898 168.485 49.0664C168.273 48.9431 168.012 48.878 167.704 48.8712ZM167.694 55.4796C167.516 55.4659 167.372 55.4077 167.262 55.3049C167.152 55.2021 167.098 55.0651 167.098 54.8938C167.098 54.7019 167.159 54.5546 167.283 54.4518C167.406 54.3491 167.543 54.2977 167.694 54.2977C167.947 54.3045 168.125 54.3868 168.228 54.5443C168.331 54.7088 168.375 54.8972 168.362 55.1096C168.362 55.2946 168.331 55.4659 168.269 55.6235C168.214 55.7879 168.139 55.9421 168.043 56.086C167.947 56.2299 167.834 56.3566 167.704 56.4662C167.581 56.5759 167.45 56.6547 167.313 56.7026L167.067 56.3635C167.204 56.2675 167.331 56.1374 167.447 55.9729C167.57 55.8085 167.653 55.644 167.694 55.4796Z"
     fill="#484747"
     id="path32" />
  <path
     d="M161.035 46.1682C161.199 46.1682 161.34 46.223 161.456 46.3326C161.572 46.4354 161.631 46.5724 161.631 46.7437C161.631 46.915 161.572 47.0554 161.456 47.1651C161.34 47.2747 161.199 47.3295 161.035 47.3295C160.863 47.3295 160.723 47.2747 160.613 47.1651C160.504 47.0554 160.449 46.915 160.449 46.7437C160.449 46.5724 160.504 46.4354 160.613 46.3326C160.723 46.223 160.863 46.1682 161.035 46.1682ZM160.603 53.5679V48.1517H161.477V53.5679H160.603Z"
     fill="#484747"
     id="path34" />
  <path
     d="M158.636 46.1682C158.8 46.1682 158.941 46.223 159.057 46.3326C159.174 46.4354 159.232 46.5724 159.232 46.7437C159.232 46.915 159.174 47.0554 159.057 47.1651C158.941 47.2747 158.8 47.3295 158.636 47.3295C158.465 47.3295 158.324 47.2747 158.214 47.1651C158.105 47.0554 158.05 46.915 158.05 46.7437C158.05 46.5724 158.105 46.4354 158.214 46.3326C158.324 46.223 158.465 46.1682 158.636 46.1682ZM158.204 53.5679V48.1517H159.078V53.5679H158.204Z"
     fill="#484747"
     id="path36" />
  <path
     d="M155.595 48.1516H157.044V48.9224H155.595V51.7282C155.595 52.0981 155.667 52.3722 155.811 52.5504C155.955 52.7216 156.222 52.8073 156.612 52.8073H157.013V53.5678H156.427C155.811 53.5678 155.372 53.4274 155.112 53.1464C154.852 52.8655 154.721 52.4236 154.721 51.8206V48.9224H153.837V48.1516H154.721V46.538H155.595V48.1516ZM155.718 55.4794C155.54 55.4657 155.396 55.4075 155.287 55.3047C155.177 55.2019 155.122 55.0649 155.122 54.8936C155.122 54.7018 155.184 54.5545 155.307 54.4517C155.43 54.3489 155.574 54.2975 155.739 54.2975C155.958 54.2975 156.122 54.3797 156.232 54.5442C156.349 54.7086 156.4 54.897 156.386 55.1094C156.386 55.2944 156.355 55.4657 156.294 55.6233C156.239 55.7878 156.164 55.9419 156.068 56.0858C155.972 56.2297 155.859 56.3564 155.729 56.4661C155.605 56.5757 155.475 56.6545 155.338 56.7025L155.091 56.3633C155.228 56.2674 155.355 56.1372 155.472 55.9728C155.595 55.8083 155.677 55.6439 155.718 55.4794Z"
     fill="#484747"
     id="path38" />
  <path
     d="M150.86 53.6297C150.428 53.6297 150.055 53.5611 149.739 53.4241C149.424 53.2871 149.164 53.0952 148.958 52.8486C148.753 52.6019 148.599 52.3107 148.496 51.975C148.393 51.6392 148.342 51.2727 148.342 50.8753C148.342 50.4916 148.397 50.1319 148.506 49.7962C148.616 49.4536 148.777 49.1589 148.989 48.9123C149.202 48.6588 149.469 48.4601 149.791 48.3162C150.113 48.1655 150.503 48.0901 150.962 48.0901C151.237 48.0901 151.48 48.1209 151.692 48.1826C151.905 48.2374 152.103 48.3299 152.288 48.4601C152.48 48.5834 152.645 48.7478 152.782 48.9534C152.919 49.1589 153.018 49.409 153.08 49.7037H152.186C152.083 49.4022 151.918 49.1864 151.692 49.0562C151.473 48.926 151.213 48.8643 150.911 48.8712C150.616 48.8712 150.356 48.9294 150.13 49.0459C149.911 49.1555 149.733 49.3028 149.596 49.4878C149.465 49.6728 149.369 49.8886 149.308 50.1353C149.246 50.3751 149.215 50.6218 149.215 50.8753C149.215 51.1425 149.246 51.396 149.308 51.6358C149.376 51.8756 149.476 52.088 149.606 52.273C149.743 52.4512 149.918 52.5951 150.13 52.7047C150.342 52.8075 150.596 52.8588 150.891 52.8588C151.034 52.8588 151.175 52.8451 151.312 52.8177C151.456 52.7903 151.586 52.7458 151.702 52.6841C151.826 52.6156 151.932 52.5265 152.021 52.4169C152.11 52.3073 152.175 52.1737 152.216 52.0161H153.121C153.066 52.297 152.967 52.5402 152.823 52.7458C152.686 52.9445 152.514 53.1124 152.309 53.2494C152.103 53.3796 151.877 53.4755 151.631 53.5372C151.384 53.5988 151.127 53.6297 150.86 53.6297Z"
     fill="#484747"
     id="path40" />
  <path
     d="M144.887 52.8588C145.38 52.8588 145.74 52.7114 145.966 52.4168C146.199 52.1154 146.315 51.6974 146.315 51.163V48.1517H147.189V51.2041C147.189 52.0263 146.99 52.6361 146.593 53.0335C146.202 53.4309 145.634 53.6296 144.887 53.6296C144.14 53.6296 143.571 53.4309 143.181 53.0335C142.797 52.6361 142.605 52.0263 142.605 51.2041V48.1517H143.479V51.163C143.479 51.6974 143.595 52.1154 143.828 52.4168C144.061 52.7114 144.414 52.8588 144.887 52.8588Z"
     fill="#484747"
     id="path42" />
  <path
     d="M138.792 53.568V48.1518H139.635L139.676 48.9945C139.874 48.6793 140.128 48.4498 140.436 48.3059C140.744 48.162 141.094 48.0901 141.484 48.0901H141.762V48.9123H141.443C141.121 48.9123 140.847 48.9671 140.621 49.0767C140.395 49.1795 140.21 49.3234 140.066 49.5084C139.929 49.6865 139.826 49.8989 139.758 50.1456C139.696 50.3922 139.665 50.6526 139.665 50.9267V53.568H138.792Z"
     fill="#484747"
     id="path44" />
  <path
     d="M136.355 48.1516H137.804V48.9224H136.355V51.7282C136.355 52.0981 136.427 52.3722 136.571 52.5504C136.714 52.7216 136.982 52.8073 137.372 52.8073H137.773V53.5678H137.187C136.571 53.5678 136.132 53.4274 135.872 53.1464C135.611 52.8655 135.481 52.4236 135.481 51.8206V48.9224H134.597V48.1516H135.481V46.538H136.355V48.1516Z"
     fill="#484747"
     id="path46" />
  <path
     d="M131.791 48.8712C131.668 48.8712 131.541 48.8815 131.411 48.902C131.288 48.9157 131.164 48.95 131.041 49.0048C130.925 49.0527 130.822 49.1281 130.733 49.2309C130.651 49.3268 130.606 49.457 130.599 49.6214C130.599 49.8544 130.685 50.0291 130.856 50.1456C131.034 50.2621 131.264 50.3477 131.545 50.4025C131.661 50.4299 131.788 50.4573 131.925 50.4847C132.062 50.5053 132.196 50.5293 132.326 50.5567C132.463 50.5772 132.59 50.6012 132.706 50.6286C132.829 50.656 132.932 50.6834 133.014 50.7108C133.672 50.9164 134.001 51.3583 134.001 52.0366C133.994 52.3655 133.922 52.6327 133.785 52.8383C133.655 53.037 133.487 53.1946 133.282 53.311C133.083 53.4275 132.853 53.5097 132.593 53.5577C132.339 53.6057 132.086 53.6297 131.832 53.6297C131.586 53.6297 131.336 53.6057 131.082 53.5577C130.829 53.5097 130.596 53.4275 130.383 53.311C130.178 53.1877 130 53.0301 129.849 52.8383C129.705 52.6396 129.613 52.3929 129.571 52.0983H130.455C130.51 52.2627 130.596 52.3929 130.712 52.4889C130.829 52.5848 130.952 52.6601 131.082 52.715C131.219 52.7698 131.346 52.8075 131.462 52.828C131.586 52.8486 131.723 52.8588 131.874 52.8588C131.983 52.8588 132.11 52.852 132.254 52.8383C132.398 52.8246 132.535 52.7937 132.665 52.7458C132.795 52.691 132.905 52.6122 132.994 52.5094C133.083 52.4066 133.127 52.2627 133.127 52.0778C133.127 51.8722 133.059 51.718 132.922 51.6153C132.792 51.5125 132.61 51.4371 132.377 51.3892C132.213 51.3549 132.041 51.3241 131.863 51.2967C131.692 51.2624 131.517 51.2281 131.339 51.1939C131.168 51.1528 131 51.1082 130.836 51.0603C130.671 51.0055 130.517 50.9335 130.373 50.8445C130.181 50.728 130.027 50.5704 129.911 50.3717C129.794 50.173 129.736 49.9298 129.736 49.642C129.75 49.3405 129.818 49.0939 129.941 48.902C130.065 48.7033 130.222 48.5423 130.414 48.419C130.62 48.2956 130.839 48.21 131.072 48.162C131.305 48.1141 131.552 48.0901 131.812 48.0901C132.367 48.0901 132.809 48.21 133.138 48.4498C133.336 48.5868 133.491 48.7513 133.6 48.9431C133.71 49.135 133.778 49.3371 133.806 49.5495H132.994C132.946 49.3508 132.816 49.1898 132.603 49.0664C132.391 48.9431 132.12 48.878 131.791 48.8712Z"
     fill="#484747"
     id="path48" />
  <path
     d="M123.787 53.568V48.1518H124.63L124.671 48.974C124.76 48.8232 124.87 48.693 125 48.5834C125.137 48.4738 125.284 48.3813 125.442 48.3059C125.599 48.2305 125.764 48.1757 125.935 48.1415C126.113 48.1072 126.284 48.0901 126.449 48.0901C126.839 48.0901 127.168 48.1552 127.435 48.2854C127.703 48.4087 127.915 48.5834 128.073 48.8095C128.23 49.0288 128.343 49.2926 128.412 49.6009C128.48 49.9024 128.515 50.2278 128.515 50.5772V53.568H127.641V50.8136C127.641 50.5601 127.624 50.3169 127.59 50.0839C127.562 49.851 127.501 49.6454 127.405 49.4673C127.316 49.2823 127.185 49.135 127.014 49.0253C126.843 48.9157 126.613 48.8609 126.326 48.8609C126.045 48.8678 125.795 48.9363 125.575 49.0664C125.363 49.1966 125.192 49.3508 125.061 49.5289C124.904 49.755 124.798 50.0051 124.743 50.2792C124.688 50.5464 124.661 50.817 124.661 51.0911V53.568H123.787Z"
     fill="#484747"
     id="path50" />
  <path
     d="M120.059 48.0901C120.491 48.0901 120.864 48.1586 121.179 48.2956C121.495 48.4327 121.758 48.6245 121.971 48.8712C122.19 49.1178 122.351 49.4125 122.454 49.755C122.563 50.0908 122.618 50.4608 122.618 50.865C122.618 51.2693 122.563 51.6427 122.454 51.9853C122.351 52.321 122.19 52.6122 121.971 52.8588C121.758 53.0986 121.491 53.2871 121.169 53.4241C120.847 53.5611 120.47 53.6297 120.039 53.6297C119.607 53.6297 119.23 53.5611 118.908 53.4241C118.593 53.2871 118.326 53.0986 118.106 52.8588C117.894 52.6122 117.733 52.321 117.623 51.9853C117.521 51.6427 117.469 51.2693 117.469 50.865C117.469 50.4608 117.521 50.0908 117.623 49.755C117.733 49.4125 117.894 49.1178 118.106 48.8712C118.326 48.6245 118.6 48.4327 118.929 48.2956C119.257 48.1586 119.634 48.0901 120.059 48.0901ZM120.039 52.8588C120.333 52.8588 120.587 52.8075 120.799 52.7047C121.018 52.6019 121.196 52.4614 121.334 52.2833C121.477 52.0983 121.58 51.8859 121.642 51.6461C121.71 51.4063 121.745 51.1459 121.745 50.865C121.745 50.5909 121.71 50.334 121.642 50.0942C121.58 49.8475 121.477 49.6351 121.334 49.457C121.196 49.272 121.018 49.1281 120.799 49.0253C120.587 48.9226 120.333 48.8712 120.039 48.8712C119.744 48.8712 119.49 48.9226 119.278 49.0253C119.066 49.1281 118.887 49.272 118.744 49.457C118.607 49.6351 118.504 49.8475 118.435 50.0942C118.374 50.334 118.343 50.5909 118.343 50.865C118.343 51.1459 118.374 51.4063 118.435 51.6461C118.504 51.8859 118.607 52.0983 118.744 52.2833C118.887 52.4614 119.066 52.6019 119.278 52.7047C119.49 52.8075 119.744 52.8588 120.039 52.8588Z"
     fill="#484747"
     id="path52" />
  <path
     d="M113.573 47.0314C113.141 47.0314 112.771 47.1102 112.463 47.2678C112.162 47.4254 111.911 47.6378 111.713 47.905C111.521 48.1722 111.38 48.4805 111.291 48.83C111.202 49.1725 111.158 49.5323 111.158 49.9091C111.158 50.3133 111.206 50.6936 111.302 51.0499C111.398 51.4062 111.545 51.7179 111.744 51.9851C111.942 52.2455 112.196 52.4545 112.504 52.6121C112.812 52.7628 113.179 52.8382 113.604 52.8382C114.118 52.8382 114.549 52.732 114.899 52.5196C115.248 52.3072 115.474 52.0228 115.577 51.6665H116.553C116.396 52.2695 116.064 52.7525 115.557 53.1157C115.05 53.472 114.392 53.6501 113.583 53.6501C113.021 53.6501 112.532 53.5576 112.114 53.3726C111.696 53.1876 111.346 52.9307 111.065 52.6018C110.791 52.2729 110.586 51.8824 110.449 51.4302C110.312 50.978 110.243 50.4812 110.243 49.9399C110.243 49.4055 110.312 48.9122 110.449 48.46C110.586 48.0078 110.795 47.6172 111.076 47.2883C111.356 46.9526 111.706 46.6922 112.124 46.5073C112.542 46.3154 113.035 46.2195 113.604 46.2195C114.001 46.2195 114.358 46.2674 114.673 46.3634C114.995 46.4593 115.272 46.5963 115.505 46.7745C115.745 46.9458 115.94 47.1547 116.091 47.4014C116.242 47.6412 116.351 47.9084 116.42 48.203H115.515C115.413 47.8468 115.19 47.5624 114.847 47.35C114.512 47.1376 114.087 47.0314 113.573 47.0314Z"
     fill="#484747"
     id="path54" />
  <path
     d="M105.927 53.5884C105.748 53.5747 105.605 53.5164 105.495 53.4137C105.385 53.3109 105.33 53.1739 105.33 53.0026C105.337 52.8244 105.399 52.684 105.515 52.5812C105.639 52.4716 105.779 52.4167 105.937 52.4167C106.136 52.4167 106.293 52.4887 106.41 52.6326C106.533 52.7765 106.595 52.9786 106.595 53.2389C106.595 53.3828 106.564 53.5404 106.502 53.7117C106.447 53.8899 106.372 54.0509 106.276 54.1948C106.18 54.3386 106.067 54.4654 105.937 54.575C105.813 54.6846 105.683 54.7634 105.546 54.8114L105.3 54.4722C105.437 54.3763 105.563 54.2461 105.68 54.0817C105.803 53.9173 105.885 53.7528 105.927 53.5884Z"
     fill="#484747"
     id="path56" />
  <path
     d="M97.7628 48.7992C97.9341 48.5594 98.143 48.3813 98.3897 48.2648C98.6432 48.1483 98.9241 48.0901 99.2324 48.0901C99.6093 48.0969 99.9142 48.1792 100.147 48.3367C100.38 48.4943 100.555 48.7033 100.671 48.9637C100.856 48.6896 101.082 48.4772 101.35 48.3265C101.624 48.1689 101.946 48.0901 102.316 48.0901C102.61 48.0901 102.864 48.1415 103.076 48.2443C103.289 48.3402 103.46 48.4772 103.59 48.6554C103.72 48.8266 103.816 49.0288 103.878 49.2617C103.94 49.4947 103.97 49.7482 103.97 50.0223V53.568H103.097V50.4642C103.097 50.286 103.087 50.1045 103.066 49.9195C103.052 49.7276 103.011 49.5563 102.943 49.4056C102.874 49.248 102.771 49.1213 102.634 49.0253C102.497 48.9226 102.312 48.8712 102.079 48.8712C101.853 48.8712 101.661 48.926 101.504 49.0356C101.346 49.1384 101.219 49.2754 101.124 49.4467C101.034 49.618 100.969 49.8064 100.928 50.012C100.887 50.2175 100.867 50.4196 100.867 50.6183V53.568H99.993V50.4539C99.993 50.2826 99.9861 50.1045 99.9724 49.9195C99.9587 49.7276 99.9176 49.5563 99.8491 49.4056C99.7874 49.248 99.6915 49.1213 99.5613 49.0253C99.4311 48.9226 99.2496 48.8712 99.0166 48.8712C98.77 48.8712 98.5644 48.926 98.4 49.0356C98.2424 49.1452 98.1122 49.2857 98.0094 49.457C97.9135 49.6283 97.845 49.8201 97.8039 50.0325C97.7696 50.2381 97.7525 50.4368 97.7525 50.6286V53.568H96.8789V48.1518H97.7217L97.7628 48.7992Z"
     fill="#484747"
     id="path58" />
  <path
     d="M93.582 48.8712C93.4587 48.8712 93.3319 48.8815 93.2017 48.902C93.0784 48.9157 92.9551 48.95 92.8317 49.0048C92.7153 49.0527 92.6125 49.1281 92.5234 49.2309C92.4412 49.3268 92.3967 49.457 92.3898 49.6214C92.3898 49.8544 92.4755 50.0291 92.6467 50.1456C92.8249 50.2621 93.0544 50.3477 93.3353 50.4025C93.4518 50.4299 93.5786 50.4573 93.7156 50.4847C93.8526 50.5053 93.9862 50.5293 94.1164 50.5567C94.2535 50.5772 94.3802 50.6012 94.4967 50.6286C94.62 50.656 94.7228 50.6834 94.805 50.7108C95.4628 50.9164 95.7917 51.3583 95.7917 52.0366C95.7848 52.3655 95.7129 52.6327 95.5758 52.8383C95.4456 53.037 95.2778 53.1946 95.0722 53.311C94.8735 53.4275 94.644 53.5097 94.3836 53.5577C94.1301 53.6057 93.8766 53.6297 93.6231 53.6297C93.3764 53.6297 93.1264 53.6057 92.8729 53.5577C92.6193 53.5097 92.3864 53.4275 92.174 53.311C91.9684 53.1877 91.7903 53.0301 91.6396 52.8383C91.4957 52.6396 91.4032 52.3929 91.3621 52.0983H92.2459C92.3007 52.2627 92.3864 52.3929 92.5029 52.4889C92.6193 52.5848 92.7427 52.6601 92.8729 52.715C93.0099 52.7698 93.1366 52.8075 93.2531 52.828C93.3764 52.8486 93.5135 52.8588 93.6642 52.8588C93.7738 52.8588 93.9006 52.852 94.0445 52.8383C94.1884 52.8246 94.3254 52.7937 94.4556 52.7458C94.5858 52.691 94.6954 52.6122 94.7845 52.5094C94.8735 52.4066 94.9181 52.2627 94.9181 52.0778C94.9181 51.8722 94.8496 51.718 94.7125 51.6153C94.5823 51.5125 94.4008 51.4371 94.1678 51.3892C94.0034 51.3549 93.8321 51.3241 93.6539 51.2967C93.4826 51.2624 93.3079 51.2281 93.1298 51.1939C92.9585 51.1528 92.7906 51.1082 92.6262 51.0603C92.4618 51.0055 92.3076 50.9335 92.1637 50.8445C91.9719 50.728 91.8177 50.5704 91.7012 50.3717C91.5847 50.173 91.5265 49.9298 91.5265 49.642C91.5402 49.3405 91.6087 49.0939 91.7321 48.902C91.8554 48.7033 92.013 48.5423 92.2048 48.419C92.4104 48.2956 92.6296 48.21 92.8626 48.162C93.0955 48.1141 93.3422 48.0901 93.6026 48.0901C94.1575 48.0901 94.5995 48.21 94.9283 48.4498C95.127 48.5868 95.2812 48.7513 95.3908 48.9431C95.5005 49.135 95.569 49.3371 95.5964 49.5495H94.7845C94.7365 49.3508 94.6063 49.1898 94.3939 49.0664C94.1815 48.9431 93.9109 48.878 93.582 48.8712Z"
     fill="#484747"
     id="path60" />
  <path
     d="M89.7546 46.1682C89.9191 46.1682 90.0595 46.223 90.176 46.3326C90.2925 46.4354 90.3507 46.5724 90.3507 46.7437C90.3507 46.915 90.2925 47.0554 90.176 47.1651C90.0595 47.2747 89.9191 47.3295 89.7546 47.3295C89.5833 47.3295 89.4429 47.2747 89.3333 47.1651C89.2236 47.0554 89.1688 46.915 89.1688 46.7437C89.1688 46.5724 89.2236 46.4354 89.3333 46.3326C89.4429 46.223 89.5833 46.1682 89.7546 46.1682ZM89.323 53.5679V48.1517H90.1966V53.5679H89.323Z"
     fill="#484747"
     id="path62" />
  <path
     d="M83.1789 53.568V48.1518H84.0216L84.0628 48.974C84.1518 48.8232 84.2615 48.693 84.3916 48.5834C84.5287 48.4738 84.676 48.3813 84.8336 48.3059C84.9912 48.2305 85.1556 48.1757 85.3269 48.1415C85.505 48.1072 85.6763 48.0901 85.8408 48.0901C86.2313 48.0901 86.5602 48.1552 86.8274 48.2854C87.0946 48.4087 87.307 48.5834 87.4646 48.8095C87.6222 49.0288 87.7352 49.2926 87.8038 49.6009C87.8723 49.9024 87.9065 50.2278 87.9065 50.5772V53.568H87.0329V50.8136C87.0329 50.5601 87.0158 50.3169 86.9816 50.0839C86.9542 49.851 86.8925 49.6454 86.7966 49.4673C86.7075 49.2823 86.5773 49.135 86.406 49.0253C86.2347 48.9157 86.0052 48.8609 85.7174 48.8609C85.4365 48.8678 85.1864 48.9363 84.9672 49.0664C84.7548 49.1966 84.5835 49.3508 84.4533 49.5289C84.2957 49.755 84.1895 50.0051 84.1347 50.2792C84.0799 50.5464 84.0525 50.817 84.0525 51.0911V53.568H83.1789Z"
     fill="#484747"
     id="path64" />
  <path
     d="M81.0444 52.8794C80.928 53.037 80.7943 53.1637 80.6436 53.2597C80.4929 53.3556 80.3353 53.431 80.1708 53.4858C80.0133 53.5406 79.8522 53.5783 79.6878 53.5988C79.5302 53.6194 79.3726 53.6297 79.215 53.6297C78.9615 53.6297 78.7217 53.5988 78.4956 53.5372C78.2695 53.4755 78.064 53.3761 77.879 53.2391C77.7008 53.1021 77.5569 52.9308 77.4473 52.7252C77.3445 52.5197 77.2932 52.2867 77.2932 52.0264C77.2932 51.718 77.348 51.4611 77.4576 51.2556C77.5741 51.0432 77.7282 50.8719 77.9201 50.7417C78.1119 50.6115 78.3312 50.5224 78.5778 50.4745C78.8313 50.4197 79.0986 50.3922 79.3795 50.3922H80.9725C80.9725 49.9332 80.8731 49.57 80.6744 49.3028C80.4757 49.0288 80.14 48.8849 79.6672 48.8712C79.3795 48.8712 79.126 48.9191 78.9067 49.0151C78.6875 49.111 78.5367 49.2686 78.4545 49.4878H77.5193C77.5672 49.2412 77.6631 49.0322 77.807 48.8609C77.9509 48.6828 78.1222 48.5389 78.3209 48.4292C78.5196 48.3128 78.7354 48.2271 78.9684 48.1723C79.2013 48.1175 79.4343 48.0901 79.6672 48.0901C80.0715 48.0901 80.4107 48.1586 80.6847 48.2956C80.9656 48.4258 81.1917 48.6005 81.363 48.8198C81.5343 49.0322 81.6542 49.2926 81.7227 49.6009C81.7913 49.9092 81.8255 50.2552 81.8255 50.6389V53.568H81.0958L81.0444 52.8794ZM80.0167 51.1219C79.8522 51.1219 79.6604 51.1254 79.4411 51.1322C79.2287 51.1322 79.0232 51.1528 78.8245 51.1939C78.6258 51.235 78.4648 51.3206 78.3415 51.4508C78.225 51.581 78.1667 51.7523 78.1667 51.9647C78.1667 52.1223 78.1976 52.2559 78.2592 52.3655C78.3209 52.4751 78.4031 52.5676 78.5059 52.643C78.6155 52.7184 78.7389 52.7732 78.8759 52.8075C79.0129 52.8417 79.1534 52.8588 79.2973 52.8588C79.8111 52.8588 80.2154 52.7355 80.51 52.4889C80.8115 52.2353 80.9656 51.8688 80.9725 51.3892V51.1219H80.0167Z"
     fill="#484747"
     id="path66" />
  <path
     d="M71.2755 53.5678V46.3016H72.1491V48.9532C72.3272 48.6791 72.5808 48.4667 72.9096 48.316C73.2454 48.1584 73.5879 48.083 73.9374 48.0899C74.3485 48.0899 74.7013 48.1618 74.996 48.3057C75.2974 48.4496 75.5441 48.6448 75.7359 48.8915C75.9346 49.1382 76.0785 49.4328 76.1676 49.7754C76.2635 50.1111 76.3115 50.4742 76.3115 50.8648C76.3115 51.2553 76.2635 51.6185 76.1676 51.9542C76.0785 52.2831 75.9346 52.5708 75.7359 52.8175C75.5372 53.0642 75.2837 53.2594 74.9754 53.4033C74.6739 53.5472 74.3142 53.6226 73.8963 53.6294H73.7832C73.4132 53.6294 73.0912 53.5643 72.8171 53.4341C72.5499 53.304 72.3272 53.1292 72.1491 52.91L72.108 53.5678H71.2755ZM73.8243 52.8586C74.1189 52.8586 74.3656 52.8072 74.5643 52.7044C74.7699 52.5948 74.9343 52.4509 75.0576 52.2728C75.1878 52.0878 75.2803 51.8754 75.3351 51.6356C75.3968 51.3958 75.431 51.1388 75.4379 50.8648C75.4379 50.5907 75.4071 50.3338 75.3454 50.094C75.2906 49.8473 75.1981 49.6349 75.0679 49.4568C74.9377 49.2786 74.7664 49.1382 74.554 49.0354C74.3485 48.9258 74.0984 48.8709 73.8038 48.8709C73.6393 48.8709 73.4783 48.8984 73.3207 48.9532C73.1631 49.008 73.0227 49.0833 72.8994 49.1793C72.776 49.2683 72.6664 49.3711 72.5705 49.4876C72.4814 49.6041 72.406 49.7274 72.3444 49.8576C72.269 50.0152 72.2142 50.183 72.1799 50.3612C72.1457 50.5393 72.1285 50.7106 72.1285 50.8751C72.1285 51.0532 72.1388 51.2382 72.1594 51.43C72.1868 51.615 72.2416 51.7863 72.3238 51.9439C72.4471 52.2043 72.6356 52.4235 72.8891 52.6017C73.1426 52.773 73.4543 52.8586 73.8243 52.8586Z"
     fill="#484747"
     id="path68" />
  <path
     d="M67.4415 53.568V48.1518H68.2843L68.3254 48.9945C68.5241 48.6793 68.7776 48.4498 69.0859 48.3059C69.3942 48.162 69.7437 48.0901 70.1342 48.0901H70.4117V48.9123H70.0931C69.7711 48.9123 69.497 48.9671 69.2709 49.0767C69.0448 49.1795 68.8598 49.3234 68.7159 49.5084C68.5789 49.6865 68.4761 49.8989 68.4076 50.1456C68.3459 50.3922 68.3151 50.6526 68.3151 50.9267V53.568H67.4415Z"
     fill="#484747"
     id="path70" />
  <path
     d="M65.9145 46.3016V50.4331C65.9145 50.8922 65.8597 51.317 65.7501 51.7075C65.6404 52.0981 65.4657 52.4372 65.2259 52.725C64.9929 53.0128 64.6949 53.2389 64.3318 53.4033C63.9686 53.5678 63.5335 53.65 63.0265 53.65C62.5195 53.65 62.081 53.5712 61.711 53.4136C61.3479 53.2492 61.0498 53.023 60.8169 52.7353C60.5839 52.4475 60.4126 52.1084 60.303 51.7178C60.1934 51.3273 60.1385 50.899 60.1385 50.4331V46.3016H61.0327V50.4228C61.0327 50.7517 61.0669 51.0635 61.1355 51.3581C61.204 51.6527 61.317 51.9097 61.4746 52.1289C61.6322 52.3482 61.8378 52.5229 62.0913 52.6531C62.3516 52.7764 62.6668 52.8381 63.0368 52.8381C63.4068 52.8381 63.7185 52.7764 63.972 52.6531C64.2256 52.5229 64.4277 52.3482 64.5784 52.1289C64.736 51.9028 64.8456 51.6459 64.9073 51.3581C64.9758 51.0635 65.0101 50.7517 65.0101 50.4228V46.3016H65.9145Z"
     fill="#484747"
     id="path72" />
  <path
     d="M203.362 42.7972C203.184 42.7835 203.04 42.7252 202.93 42.6225C202.821 42.5197 202.766 42.3827 202.766 42.2114C202.773 42.0332 202.834 41.8928 202.951 41.79C203.074 41.6804 203.214 41.6255 203.372 41.6255C203.571 41.6255 203.728 41.6975 203.845 41.8414C203.968 41.9853 204.03 42.1874 204.03 42.4477C204.03 42.5916 203.999 42.7492 203.937 42.9205C203.883 43.0987 203.807 43.2597 203.711 43.4036C203.615 43.5474 203.502 43.6742 203.372 43.7838C203.249 43.8934 203.119 43.9722 202.982 44.0202L202.735 43.681C202.872 43.5851 202.999 43.4549 203.115 43.2905C203.238 43.1261 203.321 42.9616 203.362 42.7972Z"
     fill="#484747"
     id="path74" />
  <path
     d="M200.84 35.3766C201.004 35.3766 201.145 35.4314 201.261 35.541C201.378 35.6438 201.436 35.7808 201.436 35.9521C201.436 36.1234 201.378 36.2639 201.261 36.3735C201.145 36.4831 201.004 36.5379 200.84 36.5379C200.668 36.5379 200.528 36.4831 200.418 36.3735C200.309 36.2639 200.254 36.1234 200.254 35.9521C200.254 35.7808 200.309 35.6438 200.418 35.541C200.528 35.4314 200.668 35.3766 200.84 35.3766ZM200.408 42.7764V37.3601H201.282V42.7764H200.408Z"
     fill="#484747"
     id="path76" />
  <path
     d="M196.676 42.0672C197.169 42.0672 197.529 41.9199 197.755 41.6253C197.988 41.3238 198.104 40.9058 198.104 40.3714V37.3601H198.978V40.4125C198.978 41.2347 198.779 41.8445 198.382 42.2419C197.991 42.6393 197.422 42.838 196.676 42.838C195.929 42.838 195.36 42.6393 194.97 42.2419C194.586 41.8445 194.394 41.2347 194.394 40.4125V37.3601H195.268V40.3714C195.268 40.9058 195.384 41.3238 195.617 41.6253C195.85 41.9199 196.203 42.0672 196.676 42.0672Z"
     fill="#484747"
     id="path78" />
  <path
     d="M192.166 42.7766V35.5104H193.04V42.7766H192.166Z"
     fill="#484747"
     id="path80" />
  <path
     d="M188.506 42.0672C188.999 42.0672 189.359 41.9199 189.585 41.6253C189.818 41.3238 189.934 40.9058 189.934 40.3714V37.3601H190.808V40.4125C190.808 41.2347 190.609 41.8445 190.212 42.2419C189.821 42.6393 189.253 42.838 188.506 42.838C187.759 42.838 187.19 42.6393 186.8 42.2419C186.416 41.8445 186.224 41.2347 186.224 40.4125V37.3601H187.098V40.3714C187.098 40.9058 187.214 41.3238 187.447 41.6253C187.68 41.9199 188.033 42.0672 188.506 42.0672Z"
     fill="#484747"
     id="path82" />
  <path
     d="M184.35 35.3766C184.514 35.3766 184.655 35.4314 184.771 35.541C184.887 35.6438 184.946 35.7808 184.946 35.9521C184.946 36.1234 184.887 36.2639 184.771 36.3735C184.655 36.4831 184.514 36.5379 184.35 36.5379C184.178 36.5379 184.038 36.4831 183.928 36.3735C183.819 36.2639 183.764 36.1234 183.764 35.9521C183.764 35.7808 183.819 35.6438 183.928 35.541C184.038 35.4314 184.178 35.3766 184.35 35.3766ZM183.918 42.7764V37.3601H184.792V42.7764H183.918Z"
     fill="#484747"
     id="path84" />
  <path
     d="M180.012 42.7764V37.3602H180.855L180.896 38.2029C181.095 37.8878 181.348 37.6582 181.656 37.5144C181.965 37.3705 182.314 37.2985 182.705 37.2985H182.982V38.1207H182.664C182.342 38.1207 182.068 38.1755 181.841 38.2852C181.615 38.3879 181.43 38.5318 181.286 38.7168C181.149 38.895 181.047 39.1074 180.978 39.354C180.916 39.6007 180.886 39.861 180.886 40.1351V42.7764H180.012Z"
     fill="#484747"
     id="path86" />
  <path
     d="M176.284 37.2985C176.716 37.2985 177.089 37.367 177.404 37.5041C177.72 37.6411 177.983 37.833 178.196 38.0796C178.415 38.3263 178.576 38.6209 178.679 38.9635C178.788 39.2992 178.843 39.6692 178.843 40.0734C178.843 40.4777 178.788 40.8511 178.679 41.1937C178.576 41.5294 178.415 41.8206 178.196 42.0673C177.983 42.3071 177.716 42.4955 177.394 42.6325C177.072 42.7696 176.695 42.8381 176.264 42.8381C175.832 42.8381 175.455 42.7696 175.133 42.6325C174.818 42.4955 174.551 42.3071 174.331 42.0673C174.119 41.8206 173.958 41.5294 173.848 41.1937C173.746 40.8511 173.694 40.4777 173.694 40.0734C173.694 39.6692 173.746 39.2992 173.848 38.9635C173.958 38.6209 174.119 38.3263 174.331 38.0796C174.551 37.833 174.825 37.6411 175.154 37.5041C175.482 37.367 175.859 37.2985 176.284 37.2985ZM176.264 42.0673C176.558 42.0673 176.812 42.0159 177.024 41.9131C177.243 41.8103 177.422 41.6699 177.559 41.4917C177.702 41.3067 177.805 41.0943 177.867 40.8545C177.935 40.6147 177.97 40.3544 177.97 40.0734C177.97 39.7994 177.935 39.5424 177.867 39.3026C177.805 39.056 177.702 38.8436 177.559 38.6654C177.422 38.4804 177.243 38.3365 177.024 38.2338C176.812 38.131 176.558 38.0796 176.264 38.0796C175.969 38.0796 175.715 38.131 175.503 38.2338C175.291 38.3365 175.113 38.4804 174.969 38.6654C174.832 38.8436 174.729 39.056 174.66 39.3026C174.599 39.5424 174.568 39.7994 174.568 40.0734C174.568 40.3544 174.599 40.6147 174.66 40.8545C174.729 41.0943 174.832 41.3067 174.969 41.4917C175.113 41.6699 175.291 41.8103 175.503 41.9131C175.715 42.0159 175.969 42.0673 176.264 42.0673Z"
     fill="#484747"
     id="path88" />
  <path
     d="M171.192 37.3604H172.857V38.1312H171.192V40.9473C171.192 41.1048 171.199 41.2522 171.212 41.3892C171.233 41.5194 171.267 41.6358 171.315 41.7386C171.37 41.8345 171.445 41.9133 171.541 41.975C171.644 42.0298 171.781 42.0606 171.952 42.0675C172.11 42.0675 172.247 42.0401 172.363 41.9853C172.487 41.9305 172.59 41.8654 172.672 41.79L173.052 42.4272C172.874 42.5779 172.689 42.6841 172.497 42.7458C172.305 42.8075 172.093 42.8383 171.86 42.8383C171.565 42.8383 171.319 42.7972 171.12 42.715C170.921 42.6259 170.753 42.4992 170.616 42.3347C170.5 42.1771 170.421 41.9921 170.38 41.7797C170.339 41.5673 170.318 41.3275 170.318 41.0603V38.1312H169.434V37.3604H170.318V35.7366H171.192V37.3604Z"
     fill="#484747"
     id="path90" />
  <path
     d="M167.93 35.3766C168.094 35.3766 168.235 35.4314 168.351 35.541C168.468 35.6438 168.526 35.7808 168.526 35.9521C168.526 36.1234 168.468 36.2639 168.351 36.3735C168.235 36.4831 168.094 36.5379 167.93 36.5379C167.758 36.5379 167.618 36.4831 167.508 36.3735C167.399 36.2639 167.344 36.1234 167.344 35.9521C167.344 35.7808 167.399 35.6438 167.508 35.541C167.618 35.4314 167.758 35.3766 167.93 35.3766ZM167.498 42.7764V37.3601H168.372V42.7764H167.498Z"
     fill="#484747"
     id="path92" />
  <path
     d="M163.592 42.7764V37.3602H164.435L164.476 38.2029C164.675 37.8878 164.928 37.6582 165.237 37.5144C165.545 37.3705 165.894 37.2985 166.285 37.2985H166.562V38.1207H166.244C165.922 38.1207 165.648 38.1755 165.422 38.2852C165.195 38.3879 165.01 38.5318 164.867 38.7168C164.73 38.895 164.627 39.1074 164.558 39.354C164.497 39.6007 164.466 39.861 164.466 40.1351V42.7764H163.592Z"
     fill="#484747"
     id="path94" />
  <path
     d="M158.379 40.392C158.4 40.6319 158.447 40.8545 158.523 41.0601C158.605 41.2588 158.715 41.4335 158.852 41.5842C158.989 41.735 159.157 41.8549 159.355 41.9439C159.561 42.0262 159.797 42.0673 160.064 42.0673C160.195 42.0673 160.328 42.057 160.465 42.0364C160.609 42.009 160.743 41.9679 160.866 41.9131C160.989 41.8514 161.099 41.7727 161.195 41.6767C161.291 41.5808 161.363 41.4643 161.411 41.3273H162.305C162.243 41.5877 162.137 41.8138 161.986 42.0056C161.842 42.1975 161.668 42.355 161.462 42.4784C161.264 42.6017 161.041 42.6942 160.794 42.7559C160.548 42.8107 160.297 42.8381 160.044 42.8381C159.612 42.8381 159.235 42.7696 158.913 42.6325C158.598 42.4955 158.334 42.3071 158.122 42.0673C157.91 41.8206 157.752 41.5294 157.649 41.1937C157.547 40.8511 157.495 40.4777 157.495 40.0734C157.495 39.6692 157.55 39.2992 157.66 38.9635C157.776 38.6209 157.94 38.3263 158.153 38.0796C158.365 37.833 158.626 37.6411 158.934 37.5041C159.242 37.367 159.609 37.2985 160.034 37.2985C160.465 37.2985 160.839 37.3842 161.154 37.5555C161.469 37.7268 161.723 37.9529 161.914 38.2338C162.106 38.5078 162.24 38.8059 162.315 39.1279C162.397 39.4499 162.432 39.748 162.418 40.0221C162.418 40.0837 162.415 40.1454 162.408 40.2071C162.408 40.2687 162.404 40.3304 162.397 40.392H158.379ZM161.534 39.6315C161.52 39.1725 161.377 38.799 161.103 38.5113C160.828 38.2235 160.462 38.0796 160.003 38.0796C159.749 38.0796 159.527 38.1207 159.335 38.2029C159.143 38.2852 158.982 38.3982 158.852 38.5421C158.722 38.686 158.619 38.8538 158.543 39.0457C158.468 39.2307 158.42 39.426 158.4 39.6315H161.534Z"
     fill="#484747"
     id="path96" />
  <path
     d="M154.15 42.7766V36.3223H151.817V35.5104H157.377V36.3223H155.044V42.7766H154.15Z"
     fill="#484747"
     id="path98" />
  <path
     d="M147.457 42.0878C147.34 42.2454 147.207 42.3722 147.056 42.4681C146.905 42.564 146.747 42.6394 146.583 42.6942C146.425 42.749 146.264 42.7867 146.1 42.8073C145.942 42.8278 145.785 42.8381 145.627 42.8381C145.374 42.8381 145.134 42.8073 144.908 42.7456C144.682 42.6839 144.476 42.5846 144.291 42.4475C144.113 42.3105 143.969 42.1392 143.859 41.9337C143.757 41.7281 143.705 41.4952 143.705 41.2348C143.705 40.9265 143.76 40.6695 143.87 40.464C143.986 40.2516 144.14 40.0803 144.332 39.9501C144.524 39.8199 144.743 39.7309 144.99 39.6829C145.244 39.6281 145.511 39.6007 145.792 39.6007H147.385C147.385 39.1416 147.285 38.7785 147.087 38.5113C146.888 38.2372 146.552 38.0933 146.079 38.0796C145.792 38.0796 145.538 38.1276 145.319 38.2235C145.1 38.3194 144.949 38.477 144.867 38.6963H143.931C143.979 38.4496 144.075 38.2406 144.219 38.0693C144.363 37.8912 144.534 37.7473 144.733 37.6377C144.932 37.5212 145.148 37.4356 145.381 37.3807C145.614 37.3259 145.846 37.2985 146.079 37.2985C146.484 37.2985 146.823 37.367 147.097 37.5041C147.378 37.6343 147.604 37.809 147.775 38.0282C147.946 38.2406 148.066 38.501 148.135 38.8093C148.203 39.1176 148.238 39.4636 148.238 39.8473V42.7764H147.508L147.457 42.0878ZM146.429 40.3304C146.264 40.3304 146.073 40.3338 145.853 40.3407C145.641 40.3407 145.435 40.3612 145.237 40.4023C145.038 40.4434 144.877 40.5291 144.754 40.6593C144.637 40.7894 144.579 40.9607 144.579 41.1731C144.579 41.3307 144.61 41.4643 144.671 41.574C144.733 41.6836 144.815 41.7761 144.918 41.8514C145.028 41.9268 145.151 41.9816 145.288 42.0159C145.425 42.0501 145.566 42.0673 145.709 42.0673C146.223 42.0673 146.628 41.9439 146.922 41.6973C147.224 41.4438 147.378 41.0772 147.385 40.5976V40.3304H146.429Z"
     fill="#484747"
     id="path100" />
  <path
     d="M138.677 40.392C138.698 40.6319 138.746 40.8545 138.821 41.0601C138.903 41.2588 139.013 41.4335 139.15 41.5842C139.287 41.735 139.455 41.8549 139.653 41.9439C139.859 42.0262 140.095 42.0673 140.363 42.0673C140.493 42.0673 140.626 42.057 140.763 42.0364C140.907 42.009 141.041 41.9679 141.164 41.9131C141.288 41.8514 141.397 41.7727 141.493 41.6767C141.589 41.5808 141.661 41.4643 141.709 41.3273H142.603C142.541 41.5877 142.435 41.8138 142.285 42.0056C142.141 42.1975 141.966 42.355 141.76 42.4784C141.562 42.6017 141.339 42.6942 141.092 42.7559C140.846 42.8107 140.596 42.8381 140.342 42.8381C139.91 42.8381 139.534 42.7696 139.212 42.6325C138.896 42.4955 138.633 42.3071 138.42 42.0673C138.208 41.8206 138.05 41.5294 137.947 41.1937C137.845 40.8511 137.793 40.4777 137.793 40.0734C137.793 39.6692 137.848 39.2992 137.958 38.9635C138.074 38.6209 138.239 38.3263 138.451 38.0796C138.663 37.833 138.924 37.6411 139.232 37.5041C139.54 37.367 139.907 37.2985 140.332 37.2985C140.763 37.2985 141.137 37.3842 141.452 37.5555C141.767 37.7268 142.021 37.9529 142.213 38.2338C142.404 38.5078 142.538 38.8059 142.613 39.1279C142.696 39.4499 142.73 39.748 142.716 40.0221C142.716 40.0837 142.713 40.1454 142.706 40.2071C142.706 40.2687 142.702 40.3304 142.696 40.392H138.677ZM141.832 39.6315C141.819 39.1725 141.675 38.799 141.401 38.5113C141.127 38.2235 140.76 38.0796 140.301 38.0796C140.047 38.0796 139.825 38.1207 139.633 38.2029C139.441 38.2852 139.28 38.3982 139.15 38.5421C139.02 38.686 138.917 38.8538 138.842 39.0457C138.766 39.2307 138.718 39.426 138.698 39.6315H141.832Z"
     fill="#484747"
     id="path102" />
  <path
     d="M134.265 42.7764V37.3602H135.108L135.149 38.2029C135.348 37.8878 135.601 37.6582 135.91 37.5144C136.218 37.3705 136.567 37.2985 136.958 37.2985H137.235V38.1207H136.917C136.595 38.1207 136.321 38.1755 136.095 38.2852C135.869 38.3879 135.684 38.5318 135.54 38.7168C135.403 38.895 135.3 39.1074 135.231 39.354C135.17 39.6007 135.139 39.861 135.139 40.1351V42.7764H134.265Z"
     fill="#484747"
     id="path104" />
  <path
     d="M132.131 42.0878C132.014 42.2454 131.881 42.3722 131.73 42.4681C131.579 42.564 131.422 42.6394 131.257 42.6942C131.1 42.749 130.939 42.7867 130.774 42.8073C130.617 42.8278 130.459 42.8381 130.301 42.8381C130.048 42.8381 129.808 42.8073 129.582 42.7456C129.356 42.6839 129.15 42.5846 128.965 42.4475C128.787 42.3105 128.643 42.1392 128.534 41.9337C128.431 41.7281 128.379 41.4952 128.379 41.2348C128.379 40.9265 128.434 40.6695 128.544 40.464C128.66 40.2516 128.815 40.0803 129.006 39.9501C129.198 39.8199 129.417 39.7309 129.664 39.6829C129.918 39.6281 130.185 39.6007 130.466 39.6007H132.059C132.059 39.1416 131.959 38.7785 131.761 38.5113C131.562 38.2372 131.226 38.0933 130.754 38.0796C130.466 38.0796 130.212 38.1276 129.993 38.2235C129.774 38.3194 129.623 38.477 129.541 38.6963H128.606C128.654 38.4496 128.749 38.2406 128.893 38.0693C129.037 37.8912 129.209 37.7473 129.407 37.6377C129.606 37.5212 129.822 37.4356 130.055 37.3807C130.288 37.3259 130.521 37.2985 130.754 37.2985C131.158 37.2985 131.497 37.367 131.771 37.5041C132.052 37.6343 132.278 37.809 132.449 38.0282C132.621 38.2406 132.741 38.501 132.809 38.8093C132.878 39.1176 132.912 39.4636 132.912 39.8473V42.7764H132.182L132.131 42.0878ZM131.103 40.3304C130.939 40.3304 130.747 40.3338 130.527 40.3407C130.315 40.3407 130.11 40.3612 129.911 40.4023C129.712 40.4434 129.551 40.5291 129.428 40.6593C129.311 40.7894 129.253 40.9607 129.253 41.1731C129.253 41.3307 129.284 41.4643 129.346 41.574C129.407 41.6836 129.489 41.7761 129.592 41.8514C129.702 41.9268 129.825 41.9816 129.962 42.0159C130.099 42.0501 130.24 42.0673 130.384 42.0673C130.897 42.0673 131.302 41.9439 131.596 41.6973C131.898 41.4438 132.052 41.0772 132.059 40.5976V40.3304H131.103Z"
     fill="#484747"
     id="path106" />
  <path
     d="M126.674 35.3766C126.839 35.3766 126.979 35.4314 127.096 35.541C127.212 35.6438 127.27 35.7808 127.27 35.9521C127.27 36.1234 127.212 36.2639 127.096 36.3735C126.979 36.4831 126.839 36.5379 126.674 36.5379C126.503 36.5379 126.363 36.4831 126.253 36.3735C126.143 36.2639 126.089 36.1234 126.089 35.9521C126.089 35.7808 126.143 35.6438 126.253 35.541C126.363 35.4314 126.503 35.3766 126.674 35.3766ZM127.116 37.3601V42.8791C127.116 43.4821 126.986 43.924 126.726 44.2049C126.465 44.4859 126.03 44.6263 125.421 44.6263H124.948V43.8658H125.318C125.688 43.8658 125.934 43.7733 126.058 43.5883C126.181 43.4033 126.243 43.1361 126.243 42.7866V37.3601H127.116Z"
     fill="#484747"
     id="path108" />
  <path
     d="M123.82 42.0878C123.704 42.2454 123.57 42.3722 123.42 42.4681C123.269 42.564 123.111 42.6394 122.947 42.6942C122.789 42.749 122.628 42.7867 122.464 42.8073C122.306 42.8278 122.149 42.8381 121.991 42.8381C121.738 42.8381 121.498 42.8073 121.272 42.7456C121.046 42.6839 120.84 42.5846 120.655 42.4475C120.477 42.3105 120.333 42.1392 120.223 41.9337C120.121 41.7281 120.069 41.4952 120.069 41.2348C120.069 40.9265 120.124 40.6695 120.234 40.464C120.35 40.2516 120.504 40.0803 120.696 39.9501C120.888 39.8199 121.107 39.7309 121.354 39.6829C121.607 39.6281 121.875 39.6007 122.155 39.6007H123.748C123.748 39.1416 123.649 38.7785 123.45 38.5113C123.252 38.2372 122.916 38.0933 122.443 38.0796C122.155 38.0796 121.902 38.1276 121.683 38.2235C121.463 38.3194 121.313 38.477 121.231 38.6963H120.295C120.343 38.4496 120.439 38.2406 120.583 38.0693C120.727 37.8912 120.898 37.7473 121.097 37.6377C121.296 37.5212 121.511 37.4356 121.744 37.3807C121.977 37.3259 122.21 37.2985 122.443 37.2985C122.847 37.2985 123.187 37.367 123.461 37.5041C123.742 37.6343 123.968 37.809 124.139 38.0282C124.31 38.2406 124.43 38.501 124.499 38.8093C124.567 39.1176 124.602 39.4636 124.602 39.8473V42.7764H123.872L123.82 42.0878ZM122.793 40.3304C122.628 40.3304 122.436 40.3338 122.217 40.3407C122.005 40.3407 121.799 40.3612 121.6 40.4023C121.402 40.4434 121.241 40.5291 121.117 40.6593C121.001 40.7894 120.943 40.9607 120.943 41.1731C120.943 41.3307 120.974 41.4643 121.035 41.574C121.097 41.6836 121.179 41.7761 121.282 41.8514C121.392 41.9268 121.515 41.9816 121.652 42.0159C121.789 42.0501 121.929 42.0673 122.073 42.0673C122.587 42.0673 122.991 41.9439 123.286 41.6973C123.587 41.4438 123.742 41.0772 123.748 40.5976V40.3304H122.793Z"
     fill="#484747"
     id="path110" />
  <path
     d="M114.182 42.7764V37.3602H115.025L115.066 38.1824C115.155 38.0317 115.265 37.9015 115.395 37.7918C115.532 37.6822 115.679 37.5897 115.837 37.5144C115.994 37.439 116.159 37.3842 116.33 37.3499C116.508 37.3157 116.679 37.2985 116.844 37.2985C117.234 37.2985 117.563 37.3636 117.831 37.4938C118.098 37.6171 118.31 37.7918 118.468 38.0179C118.625 38.2372 118.738 38.501 118.807 38.8093C118.875 39.1108 118.91 39.4362 118.91 39.7857V42.7764H118.036V40.0221C118.036 39.7685 118.019 39.5253 117.985 39.2924C117.957 39.0594 117.896 38.8538 117.8 38.6757C117.711 38.4907 117.58 38.3434 117.409 38.2338C117.238 38.1241 117.008 38.0693 116.721 38.0693C116.44 38.0762 116.19 38.1447 115.97 38.2749C115.758 38.4051 115.587 38.5592 115.456 38.7374C115.299 38.9635 115.193 39.2136 115.138 39.4876C115.083 39.7548 115.056 40.0255 115.056 40.2995V42.7764H114.182Z"
     fill="#484747"
     id="path112" />
  <path
     d="M108.969 40.392C108.989 40.6319 109.037 40.8545 109.113 41.0601C109.195 41.2588 109.305 41.4335 109.442 41.5842C109.579 41.735 109.746 41.8549 109.945 41.9439C110.151 42.0262 110.387 42.0673 110.654 42.0673C110.785 42.0673 110.918 42.057 111.055 42.0364C111.199 42.009 111.333 41.9679 111.456 41.9131C111.579 41.8514 111.689 41.7727 111.785 41.6767C111.881 41.5808 111.953 41.4643 112.001 41.3273H112.895C112.833 41.5877 112.727 41.8138 112.576 42.0056C112.432 42.1975 112.258 42.355 112.052 42.4784C111.853 42.6017 111.631 42.6942 111.384 42.7559C111.137 42.8107 110.887 42.8381 110.634 42.8381C110.202 42.8381 109.825 42.7696 109.503 42.6325C109.188 42.4955 108.924 42.3071 108.712 42.0673C108.499 41.8206 108.342 41.5294 108.239 41.1937C108.136 40.8511 108.085 40.4777 108.085 40.0734C108.085 39.6692 108.14 39.2992 108.249 38.9635C108.366 38.6209 108.53 38.3263 108.743 38.0796C108.955 37.833 109.215 37.6411 109.524 37.5041C109.832 37.367 110.199 37.2985 110.623 37.2985C111.055 37.2985 111.429 37.3842 111.744 37.5555C112.059 37.7268 112.312 37.9529 112.504 38.2338C112.696 38.5078 112.83 38.8059 112.905 39.1279C112.987 39.4499 113.022 39.748 113.008 40.0221C113.008 40.0837 113.004 40.1454 112.998 40.2071C112.998 40.2687 112.994 40.3304 112.987 40.392H108.969ZM112.124 39.6315C112.11 39.1725 111.966 38.799 111.692 38.5113C111.418 38.2235 111.052 38.0796 110.593 38.0796C110.339 38.0796 110.116 38.1207 109.925 38.2029C109.733 38.2852 109.572 38.3982 109.442 38.5421C109.311 38.686 109.209 38.8538 109.133 39.0457C109.058 39.2307 109.01 39.426 108.989 39.6315H112.124Z"
     fill="#484747"
     id="path114" />
  <path
     d="M100.754 38.0077C100.925 37.7679 101.134 37.5897 101.381 37.4732C101.634 37.3568 101.915 37.2985 102.223 37.2985C102.6 37.3054 102.905 37.3876 103.138 37.5452C103.371 37.7028 103.546 37.9117 103.662 38.1721C103.847 37.898 104.073 37.6856 104.341 37.5349C104.615 37.3773 104.937 37.2985 105.307 37.2985C105.601 37.2985 105.855 37.3499 106.067 37.4527C106.28 37.5486 106.451 37.6856 106.581 37.8638C106.711 38.0351 106.807 38.2372 106.869 38.4702C106.93 38.7031 106.961 38.9566 106.961 39.2307V42.7764H106.088V39.6726C106.088 39.4945 106.077 39.3129 106.057 39.1279C106.043 38.9361 106.002 38.7648 105.934 38.614C105.865 38.4565 105.762 38.3297 105.625 38.2338C105.488 38.131 105.303 38.0796 105.07 38.0796C104.844 38.0796 104.652 38.1344 104.495 38.2441C104.337 38.3468 104.21 38.4839 104.114 38.6552C104.025 38.8264 103.96 39.0149 103.919 39.2204C103.878 39.426 103.857 39.6281 103.857 39.8268V42.7764H102.984V39.6623C102.984 39.4911 102.977 39.3129 102.963 39.1279C102.95 38.9361 102.909 38.7648 102.84 38.614C102.778 38.4565 102.682 38.3297 102.552 38.2338C102.422 38.131 102.24 38.0796 102.008 38.0796C101.761 38.0796 101.555 38.1344 101.391 38.2441C101.233 38.3537 101.103 38.4941 101 38.6654C100.904 38.8367 100.836 39.0286 100.795 39.241C100.761 39.4465 100.743 39.6452 100.743 39.8371V42.7764H99.8698V37.3602H100.713L100.754 38.0077Z"
     fill="#484747"
     id="path116" />
  <path
     d="M98.1131 42.7766L97.5376 41.2144H93.9405L93.365 42.7766H92.3989L95.1018 35.5104H96.3865L99.0792 42.7766H98.1131ZM95.739 36.2915L94.2385 40.4025H97.2396L95.739 36.2915Z"
     fill="#484747"
     id="path118" />
  <path
     d="M87.9664 42.7766V35.5104H88.84V42.7766H87.9664Z"
     fill="#484747"
     id="path120" />
  <path
     d="M84.3058 42.0672C84.7992 42.0672 85.1589 41.9199 85.385 41.6253C85.6179 41.3238 85.7344 40.9058 85.7344 40.3714V37.3601H86.608V40.4125C86.608 41.2347 86.4093 41.8445 86.0119 42.2419C85.6213 42.6393 85.0527 42.838 84.3058 42.838C83.559 42.838 82.9903 42.6393 82.5998 42.2419C82.2161 41.8445 82.0242 41.2347 82.0242 40.4125V37.3601H82.8978V40.3714C82.8978 40.9058 83.0143 41.3238 83.2473 41.6253C83.4802 41.9199 83.8331 42.0672 84.3058 42.0672Z"
     fill="#484747"
     id="path122" />
  <path
     d="M80.1496 35.3766C80.314 35.3766 80.4545 35.4314 80.571 35.541C80.6875 35.6438 80.7457 35.7808 80.7457 35.9521C80.7457 36.1234 80.6875 36.2639 80.571 36.3735C80.4545 36.4831 80.314 36.5379 80.1496 36.5379C79.9783 36.5379 79.8378 36.4831 79.7282 36.3735C79.6186 36.2639 79.5638 36.1234 79.5638 35.9521C79.5638 35.7808 79.6186 35.6438 79.7282 35.541C79.8378 35.4314 79.9783 35.3766 80.1496 35.3766ZM79.7179 42.7764V37.3601H80.5915V42.7764H79.7179Z"
     fill="#484747"
     id="path124" />
  <path
     d="M76.2777 42.8381C75.8461 42.8381 75.4727 42.7696 75.1575 42.6325C74.8423 42.4955 74.582 42.3037 74.3764 42.057C74.1709 41.8103 74.0167 41.5191 73.9139 41.1834C73.8112 40.8477 73.7598 40.4811 73.7598 40.0837C73.7598 39.7 73.8146 39.3403 73.9242 39.0046C74.0338 38.662 74.1948 38.3674 74.4072 38.1207C74.6196 37.8672 74.8869 37.6685 75.2089 37.5246C75.5309 37.3739 75.9215 37.2985 76.3805 37.2985C76.6546 37.2985 76.8978 37.3294 77.1102 37.391C77.3226 37.4458 77.5213 37.5383 77.7063 37.6685C77.8982 37.7918 78.0626 37.9563 78.1996 38.1618C78.3367 38.3674 78.436 38.6175 78.4977 38.9121H77.6035C77.5008 38.6106 77.3363 38.3948 77.1102 38.2646C76.891 38.1344 76.6306 38.0728 76.3291 38.0796C76.0345 38.0796 75.7742 38.1379 75.548 38.2543C75.3288 38.364 75.1507 38.5113 75.0136 38.6963C74.8834 38.8813 74.7875 39.0971 74.7258 39.3437C74.6642 39.5835 74.6334 39.8302 74.6334 40.0837C74.6334 40.3509 74.6642 40.6044 74.7258 40.8443C74.7944 41.0841 74.8937 41.2965 75.0239 41.4815C75.1609 41.6596 75.3356 41.8035 75.548 41.9131C75.7604 42.0159 76.014 42.0673 76.3086 42.0673C76.4525 42.0673 76.5929 42.0536 76.73 42.0262C76.8738 41.9988 77.004 41.9542 77.1205 41.8926C77.2438 41.824 77.35 41.735 77.4391 41.6253C77.5282 41.5157 77.5933 41.3821 77.6344 41.2245H78.5388C78.484 41.5054 78.3846 41.7487 78.2407 41.9542C78.1037 42.1529 77.9324 42.3208 77.7269 42.4578C77.5213 42.588 77.2952 42.6839 77.0486 42.7456C76.8019 42.8073 76.545 42.8381 76.2777 42.8381Z"
     fill="#484747"
     id="path126" />
  <path
     d="M72.0702 35.3766C72.2346 35.3766 72.3751 35.4314 72.4916 35.541C72.608 35.6438 72.6663 35.7808 72.6663 35.9521C72.6663 36.1234 72.608 36.2639 72.4916 36.3735C72.3751 36.4831 72.2346 36.5379 72.0702 36.5379C71.8989 36.5379 71.7584 36.4831 71.6488 36.3735C71.5392 36.2639 71.4844 36.1234 71.4844 35.9521C71.4844 35.7808 71.5392 35.6438 71.6488 35.541C71.7584 35.4314 71.8989 35.3766 72.0702 35.3766ZM71.6385 42.7764V37.3601H72.5121V42.7764H71.6385Z"
     fill="#484747"
     id="path128" />
  <path
     d="M68.327 42.7765V38.1311H67.4432V37.3602H68.327V36.7847C68.327 36.1818 68.4572 35.7398 68.7176 35.4589C68.9779 35.178 69.4165 35.0375 70.0331 35.0375H70.6498V35.8083H70.1256C69.7556 35.8083 69.5089 35.9008 69.3856 36.0858C69.2623 36.2708 69.2006 36.538 69.2006 36.8875V37.3602H70.6498V38.1311H69.2006V42.7765H68.327Z"
     fill="#484747"
     id="path130" />
  <path
     d="M63.2115 42.8589C62.6428 42.8589 62.146 42.7664 61.7212 42.5814C61.2964 42.3896 60.9401 42.1292 60.6524 41.8003C60.3646 41.4714 60.1488 41.0809 60.0049 40.6287C59.861 40.1765 59.7891 39.6832 59.7891 39.1487C59.7891 38.6143 59.861 38.121 60.0049 37.6688C60.1488 37.2097 60.3646 36.8157 60.6524 36.4869C60.9401 36.158 61.2964 35.901 61.7212 35.7161C62.146 35.5242 62.6428 35.4283 63.2115 35.4283C63.7733 35.4283 64.2666 35.5242 64.6914 35.7161C65.1162 35.901 65.4725 36.158 65.7603 36.4869C66.048 36.8157 66.2639 37.2097 66.4078 37.6688C66.5516 38.121 66.6236 38.6143 66.6236 39.1487C66.6236 39.6832 66.5516 40.1765 66.4078 40.6287C66.2639 41.0809 66.048 41.4714 65.7603 41.8003C65.4725 42.1292 65.1162 42.3896 64.6914 42.5814C64.2666 42.7664 63.7733 42.8589 63.2115 42.8589ZM63.2115 36.2402C62.7798 36.2402 62.4064 36.319 62.0912 36.4766C61.776 36.6273 61.5157 36.8363 61.3101 37.1035C61.1046 37.3707 60.9504 37.6825 60.8476 38.0388C60.7449 38.3882 60.6935 38.7582 60.6935 39.1487C60.6935 39.5393 60.7414 39.9093 60.8374 40.2587C60.9401 40.6081 61.0943 40.9165 61.2999 41.1837C61.5054 41.4509 61.7658 41.6633 62.0809 41.8209C62.403 41.9716 62.7798 42.047 63.2115 42.047C63.6431 42.047 64.0165 41.9716 64.3317 41.8209C64.6469 41.6633 64.9038 41.4543 65.1025 41.1939C65.3081 40.9267 65.4588 40.6184 65.5547 40.269C65.6575 39.9195 65.7089 39.5461 65.7089 39.1487C65.7089 38.7513 65.6575 38.3779 65.5547 38.0285C65.4588 37.6722 65.3081 37.3639 65.1025 37.1035C64.897 36.8363 64.6366 36.6273 64.3214 36.4766C64.0063 36.319 63.6363 36.2402 63.2115 36.2402Z"
     fill="#484747"
     id="path132" />
  <g
     clip-path="url(#clip0_2437_2900)"
     id="g140">
    <path
       d="M49.6367 0.291931H36.7679V13.1542H49.6367V0.291931Z"
       fill="#446CFD"
       id="path134" />
    <path
       d="M49.8125 19.2418V32.0556H17.9102V13.1132H12.8737V53.7856H0V0.297791H30.7839V19.2418H49.8125Z"
       fill="#446CFD"
       id="path136" />
    <path
       d="M49.8125 40.9702H17.9103V53.7855H49.8125V40.9702Z"
       fill="#446CFD"
       id="path138" />
  </g>
  <defs
     id="defs145">
    <clipPath
       id="clip0_2437_2900">
      <rect
         width="49.6367"
         height="53.2865"
         fill="white"
         transform="translate(0 0.291931)"
         id="rect142" />
    </clipPath>
  </defs>
</svg>
