<?xml version="1.0" encoding="UTF-8" standalone="no"?>
<svg
   width="57"
   height="65"
   viewBox="0 0 57 65"
   fill="none"
   version="1.1"
   id="svg396"
   sodipodi:docname="md-sign.svg"
   inkscape:export-filename="export/md-sign.png"
   inkscape:export-xdpi="300"
   inkscape:export-ydpi="300"
   inkscape:version="1.2.2 (b0a8486541, 2022-12-01)"
   xmlns:inkscape="http://www.inkscape.org/namespaces/inkscape"
   xmlns:sodipodi="http://sodipodi.sourceforge.net/DTD/sodipodi-0.dtd"
   xmlns="http://www.w3.org/2000/svg"
   xmlns:svg="http://www.w3.org/2000/svg">
  <defs
     id="defs400" />
  <sodipodi:namedview
     id="namedview398"
     pagecolor="#ffffff"
     bordercolor="#ffffff"
     borderopacity="1"
     inkscape:showpageshadow="0"
     inkscape:pageopacity="0"
     inkscape:pagecheckerboard="1"
     inkscape:deskcolor="#d1d1d1"
     showgrid="false"
     inkscape:zoom="11.969231"
     inkscape:cx="22.76671"
     inkscape:cy="32.5"
     inkscape:window-width="1872"
     inkscape:window-height="1051"
     inkscape:window-x="0"
     inkscape:window-y="0"
     inkscape:window-maximized="1"
     inkscape:current-layer="svg396" />
  <path
     d="M56.6043 32.4997C56.6043 14.5795 43.9878 0 28.4804 0C12.973 0 0.355713 14.5795 0.355713 32.4997C0.355713 50.4205 12.9727 65 28.4804 65C43.988 65 56.6043 50.4205 56.6043 32.4997ZM56.0746 32.5003C56.0746 50.1293 43.6961 64.4712 28.4804 64.4712C13.2646 64.4712 0.886093 50.1293 0.886093 32.5003C0.886093 14.8712 13.2646 0.528769 28.4804 0.528769C43.6961 0.528769 56.0746 14.871 56.0746 32.5003ZM54.3993 31.0228C54.378 30.7825 54.3416 30.5306 54.3373 30.4801C54.3248 30.3367 54.3215 30.1373 54.3086 29.9894C54.3042 29.9384 54.2923 29.9117 54.2552 29.915C54.2269 29.9173 54.2188 29.9323 54.2236 29.9878L54.2297 30.0569C54.2422 30.1997 54.185 30.2472 54.1006 30.254C54.0439 30.2588 53.9297 30.2459 53.8082 30.2093L53.1161 30.0185C53.0871 30.0119 53.0769 30.0033 53.0747 29.9805L52.9854 28.9514C52.9831 28.9285 52.9915 28.9138 53.0136 28.9024L53.9752 28.447C54.0296 28.4188 54.0749 28.4475 54.0869 28.4789C54.0955 28.5246 54.1064 28.5418 54.1347 28.5398C54.1672 28.537 54.1624 28.4817 54.1596 28.398C54.1367 28.0286 54.1072 27.6911 54.0932 27.5254C54.078 27.3549 54.065 27.3141 54.0274 27.3174C53.9948 27.3207 53.992 27.3435 53.9953 27.381C54.0002 27.4358 54.0014 27.5054 53.9938 27.5767C53.9785 27.6756 53.9246 27.8147 53.5186 28.0265C52.8316 28.3835 50.9836 29.2881 50.7352 29.4213C50.6312 29.4773 50.5916 29.5083 50.5954 29.5502C50.5992 29.5963 50.6536 29.6197 50.7942 29.6631L53.84 30.5646C54.0823 30.6364 54.2493 30.7102 54.2956 30.92C54.3037 30.9563 54.3142 31.021 54.3175 31.0624C54.3208 31.0994 54.3322 31.1167 54.3599 31.1139C54.3976 31.1113 54.4042 31.0827 54.3993 31.0228ZM52.8323 29.9084C52.8339 29.9269 52.8204 29.9328 52.8013 29.9302L51.6106 29.6065C51.5916 29.6032 51.5677 29.5956 51.5667 29.5821C51.5656 29.5684 51.5885 29.5616 51.6063 29.5555L52.7278 29.0394C52.7421 29.0341 52.7561 29.0371 52.7584 29.06L52.8323 29.9084ZM52.5654 21.3418L51.7345 20.8658L51.9974 19.9595L51.0757 20.2148L50.6259 19.3873L50.1532 20.2246L49.2544 19.9595L49.5077 20.8881L48.6862 21.3418L49.5171 21.8178L49.2547 22.7241L50.1764 22.4681L50.6262 23.296L51.0988 22.4592L51.9976 22.7239L51.7444 21.7952L52.5654 21.3418ZM51.4263 20.9912L52.0291 21.3372L51.4372 21.6643L51.6213 22.3385L50.9735 22.1477L50.6305 22.7556L50.306 22.1591L49.6368 22.3443L49.8263 21.6917L49.2224 21.3456L49.8148 21.0186L49.6307 20.3444L50.2786 20.5347L50.6216 19.9273L50.946 20.5233L51.6152 20.3386L51.4263 20.9912ZM47.7108 12.3538C47.737 12.3337 47.7238 12.3022 47.6836 12.251C47.5715 12.1102 47.3498 11.8539 47.2806 11.7669C47.2034 11.6692 47.033 11.4317 46.8972 11.2609C46.8543 11.2061 46.8265 11.1871 46.8009 11.2072C46.7747 11.2277 46.7846 11.2549 46.8166 11.2952C46.8537 11.3424 46.8848 11.3886 46.9005 11.4233C46.9697 11.5636 46.9338 11.6395 46.8141 11.7456C46.702 11.846 46.599 11.9283 46.0383 12.371L45.3892 12.8846C45.05 13.153 44.7587 13.3834 44.5893 13.4877C44.4706 13.5577 44.3752 13.6034 44.303 13.5425C44.2692 13.5158 44.2278 13.4783 44.1843 13.4235C44.15 13.3801 44.1271 13.3745 44.1085 13.3892C44.0829 13.4093 44.0918 13.443 44.1291 13.4907C44.2446 13.6358 44.4373 13.8553 44.5031 13.939C44.7368 14.2331 44.9049 14.4894 45.3193 15.0121C45.4691 15.2011 45.5024 15.2044 45.6003 15.162C45.7309 15.1067 46.0272 14.9131 46.0678 14.8811C46.1118 14.8464 46.1278 14.8279 46.1075 14.803C46.0846 14.7736 46.0564 14.784 46.0203 14.8068C45.9445 14.8545 45.807 14.8926 45.7241 14.8872C45.5525 14.8753 45.436 14.7368 45.2842 14.5444C45.0595 14.2613 45.0099 14.1466 45.0162 14.0408C45.0223 13.9119 45.2766 13.7115 45.7485 13.3382L46.3981 12.8254C46.9582 12.3822 47.0617 12.3 47.1848 12.2142C47.3203 12.1196 47.4057 12.0985 47.5016 12.1822C47.5441 12.2198 47.5936 12.2751 47.6252 12.3147C47.6608 12.3588 47.6854 12.3746 47.7108 12.3538ZM44.9298 9.01774C44.9511 8.99262 44.9313 8.96497 44.8812 8.92437C44.7414 8.80918 44.5062 8.63537 44.4625 8.60061C44.4592 8.59731 44.2415 8.40169 44.0584 8.25275C44.0084 8.2119 43.9773 8.19896 43.956 8.22408C43.9354 8.25021 43.9511 8.27457 43.9903 8.30654C44.03 8.33927 44.0882 8.3923 44.1106 8.42275C44.2085 8.54505 44.1894 8.627 44.0958 8.75691C44.0076 8.8787 43.9242 8.98019 43.4719 9.53332L43.0994 9.988C42.7928 10.3617 42.5146 10.6807 42.153 10.7192C41.8906 10.7482 41.6549 10.6406 41.4971 10.5117C41.3745 10.4122 41.2214 10.2628 41.1698 9.99662C41.1126 9.70763 41.1899 9.40112 41.6216 8.87362L42.0381 8.36465C42.4904 7.81203 42.5738 7.71003 42.6763 7.59915C42.7879 7.47787 42.8675 7.44006 42.9791 7.5007C43.0282 7.52836 43.0526 7.54257 43.0918 7.57454C43.1281 7.60397 43.1561 7.61361 43.1762 7.58875C43.1975 7.56312 43.1785 7.53496 43.1246 7.49157C42.9949 7.385 42.7597 7.21171 42.6733 7.14168C42.566 7.05363 42.3483 6.85801 42.1581 6.70324C42.1042 6.65985 42.0727 6.64666 42.0518 6.67228C42.0312 6.6974 42.0465 6.72227 42.0862 6.75424C42.1368 6.79559 42.1945 6.84888 42.2174 6.87932C42.3153 7.00213 42.2962 7.08307 42.2021 7.21298C42.1144 7.33527 42.0312 7.43676 41.5787 7.98989L41.1441 8.52069C40.7124 9.04768 40.6285 9.42802 40.6748 9.74493C40.7406 10.1986 41.0765 10.4909 41.2667 10.6464C41.5009 10.8367 41.792 11.0077 42.2283 10.9935C42.745 10.9783 43.1355 10.5812 43.4658 10.178L43.7844 9.78857C44.2367 9.23544 44.3201 9.13446 44.4225 9.02307C44.5336 8.90179 44.613 8.86322 44.7254 8.92462C44.7744 8.95228 44.7983 8.96598 44.8385 8.99846C44.882 9.03347 44.9092 9.04337 44.9298 9.01774ZM39.4241 5.01721C39.4394 4.98296 39.3984 4.96013 39.343 4.93628C39.1345 4.84671 38.9667 4.78962 38.9199 4.76958C38.8307 4.73101 38.6318 4.63003 38.4104 4.53488C38.346 4.50722 38.2977 4.492 38.283 4.52625C38.2716 4.55188 38.283 4.57192 38.3341 4.59425C38.3941 4.61988 38.4958 4.66377 38.5487 4.71756C38.6326 4.80459 38.6351 4.90278 38.5253 5.16742L37.7315 7.12189L37.7102 7.11225C37.6672 7.01228 37.3605 6.14402 37.1978 5.72664C36.8462 4.83352 36.5024 3.8521 36.4757 3.77395C36.4366 3.66535 36.4223 3.59304 36.3756 3.573C36.3331 3.55447 36.2939 3.60928 36.2568 3.69529L35.1149 6.23105C34.9484 6.60428 34.877 6.72227 34.7519 6.70907C34.6842 6.70045 34.6059 6.67152 34.5505 6.64818C34.508 6.62965 34.4785 6.62686 34.4676 6.65351C34.4508 6.69156 34.4872 6.71262 34.5421 6.73622C34.7638 6.83188 34.9695 6.9052 35.0082 6.92144C35.0888 6.9562 35.2538 7.04272 35.5309 7.16147C35.5902 7.1876 35.6321 7.19521 35.6474 7.16096C35.6583 7.13483 35.6369 7.11478 35.5902 7.09525C35.5215 7.06581 35.4427 7.02674 35.3817 6.96965C35.3092 6.90292 35.3021 6.76692 35.4389 6.42693L36.1755 4.59653L36.1879 4.60135C36.2294 4.71655 36.4689 5.4587 36.7323 6.12423C36.9832 6.7588 37.2838 7.55805 37.4406 7.93255C37.4668 8.00004 37.4973 8.06956 37.5446 8.08961C37.5828 8.10635 37.6166 8.07489 37.6578 7.97974L38.8808 5.27932C38.9896 5.0403 39.0625 4.96419 39.197 4.98093C39.2537 4.99007 39.2881 5.00478 39.3305 5.0228C39.3821 5.04487 39.4132 5.04259 39.4241 5.01721ZM32.9319 6.12727C32.9347 6.10393 32.9182 6.0882 32.8813 6.08338C32.8442 6.07957 32.8035 6.07044 32.7534 6.05445C32.6858 6.03263 32.5007 5.97783 32.2744 5.67741C32.0364 5.35696 31.7669 4.90481 31.418 4.33545C31.9281 4.00738 32.1084 3.70671 32.1488 3.36189C32.1854 3.04956 32.0285 2.79025 31.9098 2.68698C31.6812 2.48552 31.3756 2.42132 31.0855 2.38758C30.9423 2.37007 30.5904 2.34368 30.4338 2.32567C30.3369 2.31425 30.0484 2.26655 29.8038 2.23813C29.7346 2.23052 29.7013 2.23585 29.6975 2.26909C29.6937 2.30106 29.7204 2.31374 29.771 2.31958C29.8353 2.32719 29.9131 2.34089 29.949 2.35434C30.0969 2.40483 30.1254 2.48425 30.116 2.64334C30.1079 2.79329 30.0926 2.92421 30.0092 3.63262L29.9134 4.45318C29.8633 4.88249 29.8203 5.25014 29.7745 5.44373C29.7402 5.57694 29.7049 5.67691 29.6105 5.68452C29.5681 5.68934 29.5114 5.69213 29.4427 5.68401C29.3873 5.67741 29.367 5.68934 29.3644 5.71294C29.3606 5.74541 29.3916 5.76292 29.4509 5.77002C29.6355 5.79185 29.9273 5.81138 30.0151 5.82153C30.0842 5.82965 30.4239 5.88293 30.6914 5.91389C30.7514 5.92099 30.785 5.91059 30.7888 5.87862C30.7916 5.85528 30.7745 5.83904 30.7377 5.83473C30.6822 5.82813 30.5821 5.80707 30.5139 5.79007C30.3779 5.75531 30.3626 5.64925 30.3647 5.51249C30.3642 5.31408 30.4076 4.94592 30.4582 4.5123L30.4653 4.44709C30.4687 4.41892 30.4839 4.41182 30.5068 4.41385L30.907 4.46992C30.939 4.47373 30.9662 4.48185 30.9858 4.5123C31.0374 4.58892 31.2124 4.93069 31.3669 5.20878C31.5831 5.59724 31.7328 5.83676 31.9179 5.96717C32.03 6.04659 32.1427 6.08338 32.4008 6.11281L32.8386 6.16381C32.8943 6.17015 32.9276 6.16457 32.9319 6.12727ZM31.2233 4.19945C31.133 4.24994 31.0707 4.26187 30.8869 4.2403C30.7715 4.22736 30.6347 4.19691 30.5421 4.15276C30.5111 4.13526 30.504 4.11572 30.5106 4.06421L30.6761 2.64714C30.6805 2.60959 30.6919 2.59234 30.7252 2.58676C30.773 2.57813 30.8564 2.58295 30.9718 2.59665C31.2436 2.62811 31.6545 2.86941 31.5772 3.53164C31.532 3.91375 31.3736 4.11318 31.2233 4.19945ZM28.4804 7.5073C23.1804 7.5073 18.1415 9.98267 14.2915 14.4782C10.2069 19.246 7.95775 25.6466 7.95775 32.5003C7.95775 39.3545 10.2069 45.754 14.2915 50.5215C18.1415 55.0171 23.1806 57.4925 28.4804 57.4925C33.7801 57.4925 38.8192 55.0171 42.6697 50.522C46.7538 45.7537 49.003 39.3542 49.003 32.5C49.003 25.6458 46.7538 19.2453 42.6697 14.478C38.8192 9.98267 33.7801 7.5073 28.4804 7.5073ZM42.2853 14.806C46.2908 19.4825 48.497 25.7663 48.497 32.5003C48.497 39.2332 46.2908 45.5175 42.2853 50.194C38.5322 54.5748 33.6298 56.9878 28.4801 56.9878C23.3304 56.9878 18.4281 54.5748 14.6757 50.1935C10.6694 45.5175 8.46321 39.2339 8.46321 32.5003C8.46321 25.7666 10.6694 19.483 14.6757 14.806C18.4283 10.4257 23.3306 8.01273 28.4801 8.01273C33.6296 8.01273 38.5322 10.4254 42.2853 14.806ZM42.3491 34.6006L42.268 34.7554C42.268 30.286 42.268 37.1069 42.2675 26.2712V22.2811C42.2349 19.9671 41.3376 17.9274 39.1002 16.9254C38.1686 17.4915 37.1053 18.2255 36.2863 18.938L36.0493 19.1433C36.1968 19.4959 36.4272 20.4733 36.2639 21.1754C36.2405 21.2753 36.2281 21.2954 36.1971 21.3915C34.9835 21.5192 33.9194 22.3669 32.7849 22.8096C32.4745 22.9309 32.1882 23.022 31.8811 23.0867C31.4084 22.5896 31.2533 21.8866 31.1488 21.3246C31.029 20.6806 31.0595 19.9879 31.0285 19.231C31.1994 18.4432 31.3382 17.7701 31.1902 17.2213C31.2757 17.2355 31.3847 17.3055 31.5409 17.4349C31.4722 17.0094 31.3296 16.7595 31.1162 16.4119C31.265 16.4129 31.401 16.4413 31.5965 16.5075C31.4915 16.0305 31.4023 15.9445 31.0923 15.6535C31.326 15.553 31.4806 15.4145 31.5564 15.2361C30.8432 15.2528 30.3705 14.9481 29.7608 14.4754C29.3692 14.1717 28.7084 13.9375 28.219 13.8853C27.5325 13.8135 26.1989 13.8401 26.37 14.8345C26.0619 14.7259 25.6289 14.6307 25.4013 14.6888C25.2444 14.7297 25.098 14.8055 25.0164 14.8715V14.463V14.3658L25.0169 14.1397H25.4738C25.6693 14.1474 25.8526 14.2006 26.0151 14.344C26.1168 14.2131 26.1687 14.0213 26.1643 13.8289C26.1687 13.6366 26.117 13.4448 26.0151 13.3144C25.8529 13.4567 25.6693 13.511 25.4738 13.5176H25.0181V13.0586C25.0248 12.8615 25.0787 12.6755 25.2195 12.5136C25.0904 12.4108 24.8999 12.3583 24.7092 12.3631C24.518 12.3583 24.3276 12.4108 24.1984 12.5136C24.3395 12.6755 24.3939 12.8615 24.4011 13.0586V13.5176H23.9442C23.7491 13.511 23.5646 13.4567 23.4036 13.3144C23.3019 13.4448 23.2495 13.6366 23.2539 13.8289C23.2495 14.0213 23.3017 14.2131 23.4036 14.344C23.5648 14.2006 23.7494 14.1474 23.9442 14.1397H24.4011L24.4016 14.342H24.3983C24.3998 15.2011 24.4011 15.9534 24.3972 16.8293C24.3962 16.9488 24.2757 17.0764 24.1959 17.1573C24.3794 17.2916 24.5951 17.5572 24.7077 17.8094C24.8236 17.5491 25.0469 17.3009 25.2195 17.1573C25.1394 17.0764 25.0187 16.9493 25.0181 16.8293C25.0171 16.625 25.0166 16.2974 25.0166 16.0929C25.4832 16.3375 26.5516 17.0236 26.6952 17.4714C26.8264 17.9622 26.6772 18.6249 26.6627 19.3394C26.6436 20.2371 26.0321 22.2616 25.0016 23.0923C23.5478 22.8462 22.2765 21.5514 20.7815 21.3943L20.7494 21.2748C20.5392 20.575 20.768 19.5345 20.9312 19.1433L20.695 18.938C19.876 18.2258 18.8122 17.4917 17.8811 16.9254C15.6439 17.9274 14.7467 19.9671 14.7139 22.2811V32.4947C14.648 32.481 14.5778 32.4893 14.5135 32.5218C14.453 32.5518 14.4067 32.599 14.3767 32.6543L13.977 32.6324C14.4197 32.0864 14.601 31.4886 14.1092 30.3908C13.9023 30.6097 13.7444 30.8363 13.6155 31.1177C13.2926 30.477 12.5283 30.119 12.4492 30.0985C12.4144 30.1766 12.3266 31.0215 12.5623 31.6084C12.276 31.5594 12.0114 31.5714 11.7052 31.6137C12.2872 32.62 12.7108 32.8276 13.5728 32.8486L13.3495 33.1703C13.2875 33.1599 13.2221 33.1688 13.1616 33.1985C13.0081 33.2756 12.946 33.4637 13.0223 33.6189C13.0991 33.7732 13.2852 33.8364 13.4393 33.759C13.5928 33.6824 13.6554 33.4939 13.5786 33.3396C13.57 33.3216 13.5606 33.3053 13.5486 33.2906L13.6864 33.0808L14.306 34.3342C13.8733 33.9663 13.4179 33.881 12.9503 33.9582C13.0907 34.2185 13.2351 34.4352 13.3821 34.6156C13.1408 34.6037 12.9008 34.6369 12.6633 34.7085C13.301 35.7147 14.008 36.1395 14.7131 36.1737V36.8012C14.6831 36.875 14.6816 36.9593 14.7131 37.0369V37.5916C14.5801 37.603 14.4451 37.6253 14.3081 37.6568C14.4372 37.8892 14.5722 38.0861 14.7131 38.2513V38.4212C14.5992 38.4436 14.485 38.4728 14.3721 38.5103C14.4822 38.6788 14.5959 38.8277 14.7131 38.9607V45.7969C14.7131 46.1587 14.7045 46.9742 14.5486 47.3367C15.5766 46.7999 16.6409 45.8557 17.0444 44.7715L17.0477 45.1389C17.4011 44.9286 17.9821 43.9408 18.3169 43.4775C18.4624 43.4709 18.4962 43.459 18.6432 43.4281L18.514 43.6232C18.4525 43.6133 18.3876 43.6222 18.3271 43.6521C18.1735 43.7292 18.111 43.9172 18.1878 44.0725C18.2641 44.2268 18.4507 44.29 18.6043 44.2133C18.7583 44.1357 18.8204 43.9477 18.7441 43.7929C18.7355 43.7754 18.725 43.7592 18.7141 43.7439L18.8514 43.5349L19.1095 44.0548L18.8776 44.24C18.6414 44.4123 18.5488 44.598 18.5857 44.7878C18.35 45.0349 18.591 45.5584 18.8176 45.7598C18.8219 45.7088 18.8323 45.6322 18.8514 45.605C18.7922 45.723 19.0136 46.0407 19.1257 46.0278C19.0723 46.2566 19.4324 46.5837 19.5585 46.52C19.5384 46.6608 19.8242 46.9498 20.0088 46.827L20.0187 46.8204L20.3355 46.553C20.3991 46.8138 20.4341 47.1289 20.3497 47.5859C20.7037 47.6425 21.0957 47.8495 21.3385 48.0266C21.3396 47.7295 21.4326 47.2127 21.5933 46.9536C21.2508 46.828 20.9971 46.5994 20.77 46.3028L20.7276 46.2175L20.7423 46.2094C21.0505 46.0128 21.1115 45.8682 21.175 45.5797C21.2719 45.245 21.3884 45.1661 21.5318 44.9542C22.1618 44.1283 22.8511 43.3504 23.5246 42.5603L23.6096 42.8227C23.9503 42.1957 24.5984 41.5822 25.1445 41.1389C25.3405 41.2166 25.5376 41.2937 25.7331 41.3736C25.965 41.4683 26.1976 41.5665 26.4239 41.6763C26.0026 44.5668 23.8694 46.8369 22.128 49.0103C22.9904 49.3087 23.7962 49.6581 24.5297 50.0466C25.3693 49.0897 26.1468 47.8645 26.7484 46.7344C26.3385 47.9906 25.7481 49.4543 25.2261 50.4406C26.5846 51.2584 27.8272 52.3613 28.4875 53.3501C29.148 52.3613 30.3903 51.2584 31.7488 50.4406C31.2266 49.4543 30.6365 47.9906 30.2266 46.7344C30.8282 47.8645 31.6057 49.0897 32.4452 50.0466C33.1793 49.6581 33.9845 49.3087 34.847 49.0103C33.1434 46.8739 30.9622 44.5201 30.549 41.6629C30.7547 41.5662 30.965 41.4782 31.1752 41.3934C31.4018 41.3021 31.6304 41.214 31.8579 41.1255C32.4041 41.5687 33.0519 42.1817 33.3934 42.8092L33.4778 42.5474C34.1518 43.3375 34.8411 44.1149 35.4712 44.9413C35.6143 45.1537 35.7308 45.2321 35.8279 45.5667C35.8894 45.8471 35.9487 45.9917 36.2362 46.1808C36.1088 46.2046 35.9949 46.2746 35.927 46.4035C35.8688 46.5134 35.8632 46.6324 35.9003 46.7453C35.6977 46.7806 35.6141 46.9686 35.6634 47.1632C35.7526 47.5146 35.7707 47.7495 35.7048 48.0271C35.8922 47.813 36.1012 47.7011 36.4399 47.5801C36.6278 47.5126 36.7356 47.3383 36.6517 47.1487C36.7656 47.1168 36.8602 47.046 36.9184 46.9358C36.9428 46.8892 36.9576 46.8412 36.9642 46.794L36.9837 46.8082C37.1678 46.9485 37.465 46.6512 37.4445 46.5083C37.5708 46.5712 37.9301 46.2442 37.8772 46.0161C37.9893 46.028 38.211 45.7106 38.1515 45.5929C38.1711 45.6205 38.181 45.6966 38.1854 45.7481C38.4114 45.5459 38.6529 45.0222 38.4172 44.7756C38.4544 44.5861 38.3623 44.4006 38.1271 44.2286C38.2932 44.2205 38.45 44.1466 38.5365 43.9835C38.6095 43.8449 38.6023 43.696 38.5403 43.5623C38.5899 43.5608 38.6351 43.5562 38.6781 43.5481C39.014 44.0111 39.6049 44.9443 39.9331 45.14L39.9364 44.7726C40.3394 45.8565 41.4442 46.8247 42.4327 47.3378C42.3086 46.9917 42.2682 46.1592 42.2682 45.7979V36.4328L43.0404 34.9713C43.109 34.8409 43.183 34.7442 43.328 34.6986C43.3775 34.6029 43.4238 34.5009 43.3986 34.39C43.4917 34.4134 43.5904 34.4113 43.6849 34.4139C43.7683 34.0168 44.3422 32.7322 45.0783 33.0168C45.1121 32.599 45.0526 32.2757 44.7195 31.872C44.9727 31.7774 45.0381 31.5031 44.9084 31.2793C44.9875 31.2593 45.0528 31.2212 45.1192 31.1755C44.9799 30.9152 44.9331 30.7138 44.9977 30.421C44.7935 30.6389 44.6018 30.7122 44.3089 30.7427C44.3089 30.8226 44.3142 30.8987 44.3422 30.9759C44.0851 30.9926 43.8962 31.2014 43.96 31.4653C43.4416 31.4125 43.1424 31.5434 42.8172 31.8055C43.4635 32.2615 42.7274 33.4588 42.4475 33.7501C42.5029 33.8283 42.5558 33.9125 42.6272 33.9767C42.5222 34.0175 42.4632 34.1137 42.4126 34.2086C42.4556 34.3553 42.4177 34.471 42.3491 34.6006ZM13.405 33.6118C13.319 33.6552 13.2137 33.6194 13.1708 33.5332C13.1278 33.4456 13.1632 33.3403 13.2496 33.2967C13.335 33.2533 13.4403 33.2891 13.4833 33.3754C13.5265 33.4629 13.4917 33.5684 13.405 33.6118ZM13.4797 32.6116C12.9864 32.6801 12.4594 32.4812 12.0533 31.7847C12.554 31.7315 13.0833 31.9096 13.4797 32.6116ZM13.6582 32.4452C13.3978 32.1349 13.1502 31.8502 12.782 31.6683C12.6251 31.3313 12.5692 30.97 12.6264 30.444C13.0782 30.7145 13.38 30.9923 13.5527 31.3214C13.497 31.6863 13.5689 32.1209 13.6582 32.4452ZM44.0119 31.7454C43.8253 31.7944 43.6209 31.8758 43.5207 32.0182C43.7157 32.4252 43.403 33.0234 42.93 33.8486C42.8594 33.8448 42.8017 33.8166 42.7602 33.7577C43.2438 33.059 43.4968 32.1027 43.1327 31.8751C43.362 31.6538 43.6979 31.6741 44.0012 31.7223C44.0048 31.731 44.0081 31.7368 44.0119 31.7454ZM44.6694 31.0631C44.5926 31.0223 44.5387 30.9675 44.5258 30.9041C44.6903 30.8617 44.7953 30.7736 44.8716 30.6823C44.839 30.7965 44.8248 30.9332 44.8815 31.0946C44.822 31.119 44.7462 31.105 44.6694 31.0631ZM44.3788 31.614C44.2372 31.5379 44.1685 31.3889 44.2257 31.2808C44.283 31.1728 44.4436 31.1466 44.5855 31.2222C44.7271 31.2983 44.7963 31.4478 44.7386 31.5564C44.6821 31.6645 44.5204 31.6901 44.3788 31.614ZM43.347 34.0726C43.762 33.2153 44.0793 32.6203 44.523 32.5551C44.584 32.3914 44.5367 32.1757 44.4724 31.992C44.4823 31.991 44.4886 31.9898 44.4973 31.9887C44.7063 32.2153 44.9112 32.4843 44.8571 32.7994C44.466 32.6228 43.8215 33.3688 43.5166 34.1637C43.4449 34.1617 43.3895 34.1292 43.347 34.0726ZM43.2453 34.0178C43.193 34.0074 43.1581 33.9965 43.1284 33.9802C43.0984 33.9645 43.0696 33.9412 43.032 33.9036C43.3669 33.3809 43.8515 32.4574 43.7045 32.1047C43.8248 31.8911 44.0956 31.8753 44.2402 31.872C44.3198 31.9953 44.4581 32.23 44.3491 32.45C43.9763 32.5246 43.4881 33.4462 43.2453 34.0178ZM40.1548 43.7087V40.3917L40.837 39.1012C40.9896 39.0946 41.1251 39.0284 41.2001 38.8866C41.2517 38.7894 41.2583 38.6856 41.2291 38.5852C41.3575 38.5557 41.466 38.4819 41.5311 38.3586C41.6046 38.2195 41.5949 38.0716 41.5306 37.9381C41.6178 37.9087 41.6908 37.8529 41.7386 37.7702V45.8674C40.7455 45.1463 40.1543 44.4313 40.1548 43.7087ZM40.6305 37.8755C40.6974 37.7479 40.9062 37.726 41.0951 37.8283C41.2845 37.9298 41.3831 38.1158 41.3155 38.2434C41.2486 38.3705 41.0399 38.3918 40.8505 38.2901C40.6618 38.1888 40.5632 38.0026 40.6305 37.8755ZM40.7816 38.421C40.9486 38.5111 41.0396 38.6671 40.9847 38.7709C40.9303 38.8747 40.7506 38.8861 40.5835 38.7965C40.4165 38.7062 40.3254 38.5499 40.3804 38.4466C40.4348 38.3426 40.6143 38.3319 40.7816 38.421ZM41.0058 37.3591C41.0536 37.2683 41.21 37.2577 41.3559 37.3358C41.5001 37.4134 41.5792 37.5505 41.5314 37.6405C41.4836 37.7319 41.3267 37.742 41.1818 37.6639C41.0363 37.587 40.9573 37.45 41.0058 37.3591ZM39.1889 43.1517C39.3321 42.8653 39.3621 42.4791 39.3941 42.1531C39.4109 41.9755 39.4371 41.7522 39.52 41.5934L39.7208 41.2135V43.8031C39.5838 43.7216 39.3229 43.3984 39.1889 43.1517ZM38.2296 43.2507C37.9563 43.1035 37.8546 42.758 38.002 42.4781C38.0081 42.4677 38.0135 42.4576 38.0188 42.4482C38.1876 42.1183 38.8607 41.7923 39.0897 41.3632L40.4188 38.848C40.4813 38.9056 40.5533 38.9427 40.6333 38.9632L39.3043 41.4789C39.0763 41.9141 39.1889 42.6714 39.0023 42.9899C38.9995 42.9965 38.9957 43.0028 38.9924 43.0094C38.8441 43.2893 38.5034 43.3969 38.2296 43.2507ZM40.8022 22.4625V24.913L40.1525 24.347V23.3955L40.8022 22.4625ZM40.1548 22.4658V20.3952C40.4816 20.8559 40.6443 21.2139 40.7788 21.6686L40.1548 22.4658ZM40.1548 38.8039V38.6986C40.1635 38.7166 40.1729 38.7333 40.1836 38.7508L40.1548 38.8039ZM38.8541 22.529V24.9133L38.2759 24.4101V23.155L38.8541 22.529ZM38.2039 22.561L38.2034 20.8031C38.3814 21.0655 38.626 21.421 38.8541 21.6572L38.2039 22.561ZM38.999 25.9399C39.2398 25.7308 39.4803 25.2754 39.7208 25.0655V26.3118H39.7213L39.7208 39.628L38.8693 41.245C38.7854 41.4025 38.6161 41.5492 38.4795 41.6629C38.4152 41.7172 38.3473 41.7732 38.2792 41.8308L38.2764 26.2712H38.2759V25.4329L38.2764 25.0668L38.999 25.9399ZM39.1431 24.913V22.6105L39.7208 23.3993V24.4099L39.1431 24.913ZM39.1025 21.6019C39.3697 21.2172 39.5751 20.5898 39.6649 20.249L39.7933 22.5605L39.1025 21.6019ZM37.8719 43.9271C37.6921 43.8305 37.6018 43.6478 37.6705 43.5191C37.7381 43.3897 37.9395 43.3639 38.1192 43.4605C38.2985 43.5562 38.3888 43.7394 38.3206 43.868C38.2525 43.9967 38.0521 44.0228 37.8719 43.9271ZM36.6435 36.9654V25.03L37.1826 25.7364L37.8322 24.8839V26.3123H37.8327V41.3297C36.5444 40.5071 36.5167 38.9173 36.5299 37.7187C36.6054 37.4751 36.6435 37.2206 36.6435 36.9654ZM35.1833 41.7623C34.8909 41.2145 34.5561 40.6728 34.4727 40.0443L34.4559 39.9231C35.0483 39.5775 35.6046 39.1667 36.0076 38.6691C36.061 39.9992 36.6725 41.5472 37.8299 42.2632C37.7941 42.3256 37.7641 42.3908 37.7402 42.4565C37.6672 42.6156 37.6438 42.7864 37.7043 42.9706C37.7206 43.0368 37.7452 43.103 37.7806 43.1672C37.6428 43.1934 37.5235 43.2705 37.4539 43.4029C37.4076 43.491 37.3946 43.5811 37.4043 43.6681C37.3994 43.6648 37.3944 43.6628 37.3885 43.66C37.0737 43.511 36.5685 43.6095 36.3196 43.4557C36.2604 43.4192 36.2014 43.3433 36.1589 43.289C36.0735 43.1819 35.9944 43.0777 35.8976 42.981C35.5952 42.6034 35.2072 42.0904 34.9126 41.7075L35.1833 41.7623ZM37.3366 24.7902V22.6105L37.8424 23.1732V24.35L37.3366 24.7902ZM37.0567 21.3646C37.39 21.0848 37.6329 20.7382 37.8424 20.4078V22.5008C37.5065 22.1002 37.2838 21.6372 37.0567 21.3646ZM38.1256 44.972C38.1876 44.972 38.2334 44.9344 38.2777 44.8926C38.3071 44.885 38.3293 44.9159 38.3435 44.9849C38.3832 45.1658 38.3331 45.3858 38.2347 45.5076C38.2606 45.33 38.1935 45.1115 38.1256 44.972ZM37.6768 45.7842L37.0234 45.1978C36.8742 45.0631 37.0287 44.8479 37.2042 44.9788C37.4366 45.1516 37.6931 45.2902 37.9158 45.4825C37.9764 45.5353 37.9865 45.6297 37.9464 45.6791L37.8701 45.7715C37.8299 45.8212 37.7389 45.8364 37.6768 45.7842ZM37.6023 44.9943C37.6301 44.9448 37.6453 44.9205 37.6786 44.8682C37.8675 45.0433 37.953 45.1861 37.9878 45.3594C37.8691 45.2448 37.7211 45.1087 37.6023 44.9943ZM37.4701 44.9487C37.4086 44.8911 37.3346 44.8573 37.255 44.8335L37.3786 44.5998C37.4592 44.6292 37.5294 44.6698 37.5932 44.715L37.4701 44.9487ZM36.7628 45.6832C36.6072 45.5386 36.791 45.3128 36.9603 45.4404L37.6219 45.9387C37.6888 45.9892 37.6972 46.0914 37.6545 46.1424L37.5762 46.2391C37.5342 46.2901 37.4363 46.3025 37.3725 46.2482L36.7628 45.6832ZM36.8215 45.055C36.6893 45.0098 36.6494 44.868 36.6265 44.8007C36.7435 44.7812 36.8787 44.8073 36.9438 44.8512C36.8912 44.8812 36.822 44.9697 36.8215 45.055ZM36.4676 46.1465C36.3326 46.0189 36.4877 45.7938 36.6522 45.9194L37.1884 46.3264C37.252 46.3749 37.268 46.4601 37.2276 46.5096L37.1523 46.6019C37.1114 46.6519 37.0206 46.6633 36.9591 46.6116L36.4676 46.1465ZM36.553 45.5277C36.4323 45.4444 36.3979 45.2919 36.3832 45.2217C36.4867 45.2206 36.6397 45.2564 36.6995 45.3087C36.643 45.3315 36.564 45.4429 36.553 45.5277ZM36.2075 47.0774C36.28 47.1165 36.5413 47.2469 36.3878 47.3535C36.2212 47.4496 36.0796 47.4768 35.8912 47.6757C35.9265 47.4535 35.8935 47.2736 35.8792 47.0807C35.8808 46.8927 36.134 47.0384 36.2075 47.0774ZM36.5296 46.4662C36.6842 46.5499 36.7615 46.708 36.7023 46.8209C36.6423 46.9328 36.4691 46.9574 36.315 46.8742C36.1599 46.791 36.0819 46.6324 36.1419 46.52C36.2014 46.4073 36.375 46.3835 36.5296 46.4662ZM36.0641 45.6842C36.2344 45.6599 36.3374 45.7337 36.4023 45.7789C36.3489 45.8078 36.2998 45.8854 36.2978 45.9707C36.1666 45.9227 36.0865 45.7522 36.0641 45.6842ZM33.5396 42.2117L33.5853 41.8661L34.1582 42.1051L34.2398 41.484L34.536 41.6063C34.9334 42.1066 35.3036 42.6202 35.7018 43.1167C36 43.41 36.0834 43.7399 36.4831 43.6985C36.5551 43.6909 37.1785 43.7637 37.3117 43.8267C37.5464 43.9381 37.7368 44.2402 37.9108 44.3123C38.0142 44.3318 38.2243 44.4823 38.2428 44.5937C38.2609 44.7051 38.1841 44.8017 38.0402 44.8165C37.8408 44.6013 37.5904 44.5003 37.433 44.4638C36.9593 44.3704 36.716 44.3323 36.404 44.2243C36.6649 44.4024 36.8767 44.4732 37.0432 44.7023C36.8767 44.6827 36.6181 44.6523 36.4404 44.6794C36.4818 44.8474 36.5581 45.0103 36.6918 45.1537C36.6016 45.1136 36.4175 45.1009 36.2507 45.1118C36.2665 45.2379 36.3079 45.4117 36.3829 45.6322C36.2184 45.5523 36.1488 45.5041 36.0033 45.5502C35.927 45.1519 35.8053 44.9314 35.6766 44.7771C35.0031 43.8929 34.2642 43.066 33.5396 42.2117ZM32.1745 41.0017C32.309 40.9474 32.4435 40.8918 32.577 40.8342C33.0692 40.6218 33.637 40.3734 34.1907 40.073C34.2632 40.4648 34.4096 40.9494 34.609 41.3107L33.9937 41.0565L33.9126 41.6758L33.3392 41.4368L33.269 41.9737L32.1745 41.0017ZM26.7784 41.8303C27.5149 42.2706 28.0438 42.8496 28.4875 43.5745C28.9312 42.8496 29.4593 42.2706 30.1961 41.8303C30.6039 44.3998 32.6331 47.0784 34.1511 48.8312C33.8353 48.9383 33.133 49.1768 32.5688 49.432C31.0438 47.7744 29.7402 45.1684 29.2068 43.9677C29.3174 45.6238 30.4214 48.9421 30.9072 50.176C30.1135 50.6339 29.4109 51.2337 28.4877 51.9896C27.5638 51.2337 26.8615 50.6339 26.0682 50.176C26.5533 48.9421 27.6576 45.6238 27.7682 43.9677C27.2345 45.1686 25.9312 47.7744 24.4061 49.432C23.8427 49.1768 23.1402 48.938 22.8239 48.8312C24.3413 47.0784 26.3705 44.3998 26.7784 41.8303ZM23.0611 41.6761L22.9805 41.0567L22.3647 41.311C22.5641 40.9496 22.7105 40.465 22.783 40.0733C23.3378 40.375 23.9068 40.6231 24.3972 40.8345C24.5307 40.8921 24.6645 40.9474 24.7985 41.0024L23.7047 41.9739L23.634 41.4371L23.0611 41.6761ZM19.1372 22.5006V20.4076C19.3474 20.7379 19.5898 21.0845 19.9233 21.3644C19.6963 21.6372 19.4736 22.1002 19.1372 22.5006ZM19.6429 22.6105V24.7902L19.1377 24.3503V23.1735L19.6429 22.6105ZM20.3307 25.0368V36.9654C20.3307 37.2424 20.3741 37.5022 20.4527 37.7451C20.468 38.5476 20.4664 39.4331 20.023 40.5335C20.0001 40.4503 19.9744 40.3656 19.9452 40.2793C19.796 40.3821 19.6581 40.4934 19.5341 40.614C19.5041 40.3412 19.4235 40.0466 19.2836 39.7257C19.2368 39.7642 19.1916 39.8023 19.1476 39.8424V24.8836L19.7982 25.7361L20.3307 25.0368ZM19.8041 40.6941C20.0617 41.6162 19.736 42.3791 19.0723 42.88C18.8939 41.9813 19.3141 41.1838 19.8041 40.6941ZM20.9737 38.678C21.383 39.1807 21.9477 39.5935 22.546 39.9403L22.5297 40.057C22.4463 40.6868 22.1115 41.2275 21.8186 41.775L22.0896 41.7207C21.7957 42.1044 21.4069 42.6171 21.1046 42.9937C21.0083 43.0914 20.9282 43.1946 20.8432 43.3022C20.8013 43.357 20.742 43.4326 20.6826 43.4689C20.4336 43.6227 19.9289 43.5242 19.6137 43.6732C19.5842 43.6869 19.5575 43.7021 19.5325 43.7188L19.4797 43.7607C19.4753 43.7531 19.4715 43.7445 19.4682 43.733L19.2679 43.3271L19.5168 43.3418C19.5216 43.3603 19.5287 43.3776 19.5374 43.3956C19.6137 43.5504 19.8003 43.613 19.9539 43.5364C20.1079 43.4588 20.1705 43.2713 20.0932 43.1165C20.0169 42.9617 19.8303 42.8985 19.6772 42.9757C19.6167 43.0061 19.5704 43.0538 19.5412 43.1089L19.3093 43.0942C19.8359 42.6334 20.1555 42.0275 20.1326 41.2544C20.6622 40.4638 20.9399 39.6115 20.9737 38.678ZM19.6991 43.0936C19.7855 43.0503 19.8903 43.086 19.9333 43.1731C19.9762 43.2601 19.9414 43.3654 19.8549 43.4088C19.7685 43.4522 19.6637 43.4164 19.6203 43.3294C19.5776 43.2426 19.6131 43.137 19.6991 43.0936ZM20.7047 45.9836C20.7024 45.8984 20.6536 45.8207 20.6002 45.7918C20.665 45.7466 20.768 45.6723 20.9383 45.6971C20.9165 45.7657 20.8359 45.9359 20.7047 45.9836ZM20.4713 46.4429L20.5933 46.3185L20.6505 46.4332C20.8432 46.7384 21.0899 46.9374 21.3757 47.0444C21.2607 47.2553 21.2096 47.4514 21.2145 47.7399C20.9889 47.5818 20.8051 47.508 20.5595 47.4542C20.6271 47.0848 20.5885 46.7801 20.5018 46.5045L20.4713 46.4429ZM20.4494 45.5409C20.4385 45.4561 20.3596 45.3447 20.3029 45.3214C20.363 45.2699 20.5158 45.2338 20.6197 45.2356C20.6045 45.3049 20.5702 45.4576 20.4494 45.5409ZM19.814 46.3396L20.3497 45.9321C20.5147 45.8078 20.6698 46.0326 20.5348 46.1602L20.0436 46.6248C19.9816 46.6763 19.8905 46.6639 19.8504 46.6149L19.7746 46.523C19.7339 46.4733 19.7497 46.3878 19.814 46.3396ZM19.3805 45.9516L20.0416 45.4533C20.2114 45.3257 20.3955 45.5518 20.2396 45.6961L19.6299 46.2617C19.5661 46.3155 19.4682 46.3031 19.4258 46.2518L19.3474 46.1556C19.3055 46.1041 19.3141 46.0016 19.3805 45.9516ZM20.1814 45.0682C20.1804 44.9829 20.1117 44.8944 20.0583 44.8644C20.1237 44.8203 20.2587 44.7944 20.3757 44.8139C20.3525 44.8812 20.3131 45.023 20.1814 45.0682ZM19.0866 45.4957C19.3093 45.3034 19.5656 45.1643 19.7982 44.992C19.9737 44.8616 20.1283 45.0768 19.9785 45.211L19.3251 45.7974C19.2635 45.8489 19.1725 45.8344 19.1318 45.7849L19.0561 45.6926C19.0159 45.6429 19.0256 45.5485 19.0866 45.4957ZM19.6676 44.8154L19.5816 44.6411L19.7291 44.5972L19.7939 44.7277L19.6676 44.8154ZM19.0146 45.3724C19.0556 45.1321 19.2717 44.8944 19.4606 44.7198C19.4939 44.7721 19.5097 44.8137 19.5374 44.8631C19.4181 44.9778 19.1329 45.2577 19.0146 45.3724ZM18.8776 44.9849C18.8084 45.1245 18.7426 45.3424 18.7682 45.5206C18.6696 45.3988 18.6195 45.1783 18.6594 44.9979C18.6737 44.9289 18.6953 44.8984 18.7253 44.9055C18.769 44.9481 18.8153 44.9849 18.8776 44.9849ZM19.6909 43.8401C19.8239 43.7777 20.4484 43.7044 20.5196 43.712C20.9193 43.7528 21.0024 43.424 21.3004 43.1302C21.6991 42.6336 22.0693 42.1201 22.4667 41.6197L22.7634 41.4974L22.844 42.1186L23.4179 41.8796L23.4626 42.2256C22.738 43.0792 21.9991 43.9061 21.3256 44.7913C21.1972 44.9456 21.0751 45.1669 20.9994 45.565C20.8534 45.5178 20.7843 45.5672 20.6187 45.6464C20.694 45.4259 20.7357 45.2519 20.7509 45.1252C20.5849 45.1148 20.4008 45.1275 20.3106 45.1676C20.4446 45.0243 20.5208 44.8611 20.562 44.6939C20.3846 44.6657 20.1255 44.6972 19.9587 44.7162C20.1257 44.4869 20.3375 44.4168 20.5989 44.2382C20.2864 44.3463 20.0436 44.3844 19.5699 44.4777C19.412 44.5135 19.1616 44.6152 18.9622 44.8304C18.8191 44.8157 18.7418 44.7185 18.7596 44.6076C18.7787 44.4968 18.9882 44.3458 19.0922 44.3263C19.2663 44.2537 19.4563 43.9515 19.6909 43.8401ZM18.9353 43.3337C18.993 43.3151 19.0306 43.3032 19.0779 43.2707L19.3561 43.8343L19.2368 43.9441L18.9353 43.3337ZM18.6549 42.0351C18.5031 41.6129 18.6325 40.6338 19.1771 40.2138C19.4219 40.8997 19.081 41.7027 18.6549 42.0351ZM16.828 23.3955L16.8275 24.347L16.1779 24.913V22.4625L16.828 23.3955ZM16.202 21.6689C16.3098 21.3494 16.4682 20.8983 16.8255 20.3954V22.4661L16.202 21.6689ZM15.2786 36.7812C15.2699 36.7631 15.26 36.7474 15.2486 36.7322L15.3869 36.5223L16.1258 38.0188C15.8491 37.789 15.5529 37.6603 15.2409 37.6096V37.1184C15.3162 37.0263 15.3353 36.8953 15.2786 36.7812ZM16.0838 37.5629L15.6478 36.6804C15.5399 36.462 15.4354 36.3267 15.4375 36.0778C15.6188 36.2301 15.6793 36.4006 15.7833 36.6096L16.2236 37.5017C16.3963 37.8511 16.5209 38.0848 16.6139 38.457C16.3854 38.1716 16.2455 37.8907 16.0838 37.5629ZM15.9063 33.5471C16.2325 34.4669 16.0098 35.2004 15.4675 35.5858C15.199 34.6856 15.4288 33.9546 15.9063 33.5471ZM15.5018 33.5514C15.4479 33.3254 15.363 33.0793 15.2409 32.8093V25.0054L16.0337 25.9399L16.8227 25.0074L16.825 36.7238C16.6299 37.0361 16.5249 37.3931 16.5425 37.8095L15.8031 36.3138L16.052 36.3295C16.0569 36.3475 16.0645 36.3648 16.0726 36.3828C16.1494 36.5376 16.3355 36.6008 16.4896 36.5229C16.6432 36.4457 16.7057 36.2582 16.6289 36.1034C16.5527 35.9487 16.366 35.8855 16.2119 35.9621C16.1519 35.9926 16.1064 36.0398 16.0764 36.0953L15.6833 36.071L15.6137 35.9301C16.2638 35.3385 16.5163 34.4065 16.0078 33.0303C15.8082 33.1777 15.6373 33.351 15.5018 33.5514ZM16.2356 36.0847C16.3215 36.0418 16.4268 36.0771 16.4703 36.1646C16.5127 36.2516 16.4779 36.3569 16.3912 36.3998C16.3053 36.4432 16.2 36.4079 16.157 36.3211C16.1143 36.2341 16.1491 36.1286 16.2356 36.0847ZM17.2674 36.6517C17.5097 37.3363 17.2272 38.0955 16.8537 38.3898C16.7034 37.9678 16.7899 37.0235 17.2674 36.6517ZM17.8501 37.1402C18.125 38.0531 17.8611 38.7848 17.2768 39.2461C17.0754 38.3596 17.4237 37.5976 17.8501 37.1402ZM17.9503 41.7131C17.7337 41.5355 17.5028 41.4193 17.2595 41.3518V40.3135L17.9503 41.7131ZM17.2834 39.8107C17.4799 40.0149 17.5839 40.2552 17.707 40.5033L17.9864 41.0689C18.1611 41.4226 18.3246 41.723 18.4199 42.1072C18.1781 41.8045 18.0307 41.5025 17.859 41.1557L17.5676 40.5655C17.4451 40.3184 17.3269 40.0923 17.2834 39.8107ZM18.2384 42.2439C17.7184 42.3863 16.8766 42.1764 16.4815 41.5665C17.1428 41.3815 17.9961 41.8679 18.2384 42.2439ZM16.8313 40.5122C16.7454 40.5551 16.6401 40.5198 16.5971 40.4328C16.5547 40.3458 16.5895 40.2405 16.676 40.1971C16.7619 40.1537 16.8667 40.1895 16.9101 40.2765C16.9529 40.3628 16.9173 40.4688 16.8313 40.5122ZM17.2592 23.3993L17.8369 22.6105V24.913L17.2592 24.4099V23.3993ZM17.1868 22.5605L17.3147 20.249C17.4049 20.5898 17.6099 21.2172 17.8776 21.6019L17.1868 22.5605ZM17.9813 25.9399L18.7039 25.0668L18.7044 25.4329V40.3442C18.4779 40.6794 18.3533 41.061 18.368 41.5038L17.5165 39.7802L17.7655 39.7959C17.7708 39.8145 17.7774 39.8317 17.7861 39.8497C17.8623 40.004 18.049 40.0672 18.2025 39.9906C18.3561 39.9134 18.4186 39.7254 18.3424 39.5706C18.2661 39.4159 18.079 39.3522 17.9259 39.4298C17.8654 39.4598 17.8186 39.507 17.7899 39.563L17.3968 39.5382L17.3902 39.5272C18.1191 38.918 18.4481 38.0016 17.9897 36.6959C17.8532 36.7926 17.7273 36.8986 17.6139 37.0138C17.5776 36.7444 17.4932 36.4516 17.3515 36.1308C17.3205 36.1575 17.2895 36.1846 17.2595 36.2123V25.0658C17.5 25.2754 17.7411 25.7308 17.9813 25.9399ZM17.9513 39.5569C18.0378 39.5135 18.1425 39.5488 18.1855 39.6356C18.2285 39.7226 18.1931 39.8279 18.1072 39.8713C18.0207 39.9147 17.916 39.8794 17.873 39.7926C17.8298 39.7059 17.8649 39.6006 17.9513 39.5569ZM18.126 24.913V22.5287L18.7042 23.1547V24.4099L18.126 24.913ZM18.126 21.6574C18.3541 21.421 18.5987 21.0658 18.7766 20.8034L18.7761 22.5612L18.126 21.6574ZM18.6574 43.813C18.7004 43.9 18.6655 44.0053 18.5796 44.0487C18.4924 44.0921 18.3879 44.0568 18.3449 43.9693C18.3019 43.883 18.3368 43.7769 18.4232 43.7335C18.5099 43.6902 18.6144 43.7254 18.6574 43.813ZM17.2592 43.325C17.3246 43.3522 17.5493 43.4032 17.6165 43.424C17.5054 43.5602 17.4286 43.6767 17.2592 43.8076V43.325ZM16.484 42.3601C17.1672 42.2607 18.0515 42.4035 18.6559 43.0888C17.8593 43.3212 17.0584 43.1231 16.484 42.3601ZM15.2409 39.4349C15.7441 39.7767 16.2837 39.8629 16.8252 39.7663V39.9819L16.7614 40.0781C16.6999 40.0682 16.635 40.0771 16.5748 40.1075C16.4212 40.1847 16.3587 40.3732 16.4349 40.5274C16.5074 40.6731 16.6777 40.7378 16.8252 40.6797V41.2851C16.5572 41.2714 16.2781 41.3069 15.99 41.3784C16.1603 41.6849 16.3454 41.9273 16.5427 42.1153C16.3729 42.1419 16.2018 42.1853 16.0304 42.2442C16.2765 42.6108 16.5438 42.8869 16.826 43.0858V43.7089C16.826 44.4316 16.2346 45.1466 15.2409 45.8677V39.4349ZM14.8474 38.6471C15.4665 38.5796 16.2798 38.759 16.8608 39.4554C16.143 39.6473 15.4049 39.4179 14.8474 38.6471ZM14.8115 37.8841C15.3935 37.7243 16.1939 38.2244 16.4372 38.5986C15.9793 38.7214 15.2076 38.4915 14.8115 37.8841ZM15.0993 37.0402C15.0129 37.0831 14.9081 37.0483 14.8651 36.9608C14.8222 36.8738 14.857 36.768 14.9435 36.7251C15.0299 36.6817 15.1347 36.7175 15.1771 36.8045C15.2209 36.891 15.186 36.9968 15.0993 37.0402ZM15.052 35.7944C14.4205 35.9981 13.7055 35.7353 13.1736 34.9185C13.7835 34.78 14.5011 35.0355 15.052 35.7944ZM14.6066 34.8932C14.1426 34.9883 13.6684 34.7666 13.3434 34.1657C13.8069 34.0698 14.3676 34.5159 14.6066 34.8932ZM13.8537 32.4089C13.5608 31.6416 13.7273 31.1152 14.0594 30.7714C14.3594 31.5384 14.1944 32.0656 13.8537 32.4089ZM14.7128 33.1092V34.1074L14.1024 32.8725L14.3518 32.8882C14.3566 32.9062 14.3638 32.924 14.3719 32.942C14.4367 33.0711 14.5778 33.1363 14.7128 33.1092ZM14.6976 32.9719C14.6111 33.0153 14.5064 32.9795 14.4634 32.893C14.4205 32.8055 14.4558 32.7002 14.5417 32.6566C14.6284 32.6132 14.7329 32.6489 14.7764 32.7355C14.8184 32.823 14.7835 32.9283 14.6976 32.9719ZM14.8451 34.8823C14.6328 34.6171 14.5026 34.3634 14.3523 34.0597L14.0442 33.436C13.9277 33.1995 13.8275 33.0453 13.8052 32.7791C13.9887 32.9638 14.0703 33.1447 14.1853 33.3756L14.4934 34C14.6536 34.3248 14.7581 34.5339 14.8451 34.8823ZM15.2071 33.23C15.4876 33.8544 15.3765 34.3687 15.0225 34.6846C14.8674 34.2649 14.8527 33.5461 15.2071 33.23ZM15.2409 23.227L15.8888 22.3359V24.913L15.2409 24.349V23.227ZM15.5 20.3518C15.531 20.6664 15.6699 21.0853 15.8888 21.7204L15.2415 22.2811C15.2415 21.4347 15.2829 20.7506 15.5 20.3518ZM20.3373 19.3092C20.1865 19.8504 20.1461 20.7044 20.2127 21.2C19.4298 20.572 19.336 20.1655 19.2941 19.5743C19.2913 19.5287 19.323 19.3526 19.2493 19.3386C19.1753 19.3244 19.0929 19.5195 19.0304 19.718C18.8338 20.3421 18.4314 20.8351 18.1163 21.0942C17.636 20.1873 17.5186 19.517 17.6905 18.8774C17.6986 18.8517 17.7118 18.7835 17.7118 18.7627C17.7118 18.7327 17.6818 18.6323 17.6177 18.6307C17.5514 18.617 17.4141 18.8596 17.3945 18.8944C16.9541 19.5817 16.3274 20.3896 16.0078 21.1102C15.8112 20.6222 15.7339 19.9981 15.7301 19.8182C16.2153 18.9542 16.8382 17.9893 17.8333 17.5757C18.8949 18.2207 19.8102 18.851 20.3373 19.3092ZM21.351 23.5617H20.0278L20.1247 23.7263C20.2569 23.9524 20.3093 24.1257 20.3251 24.3528L19.9597 24.6897V22.2768L20.245 21.6595C20.513 22.3605 20.9269 23.1184 21.351 23.5617ZM22.3332 22.4153C21.891 22.5577 21.5752 22.8576 21.4064 23.1364C21.1379 22.716 20.9475 22.2666 20.8994 21.9584C21.4369 22.0182 22.025 22.2202 22.3332 22.4153ZM22.428 22.7457C22.469 22.9446 22.6497 23.2346 22.9213 23.5617H21.6124C21.8346 23.2047 22.1595 22.9098 22.428 22.7457ZM23.518 22.9408C23.3411 23.0075 23.1918 23.1065 23.0858 23.2602C22.9378 23.0722 22.7944 22.8132 22.7814 22.5828L23.518 22.9408ZM24.6777 23.4069C24.5912 23.4622 24.5073 23.515 24.4326 23.5617H23.2185C23.354 23.3628 23.5496 23.195 23.7705 23.0986C24.0146 23.194 24.1931 23.2755 24.6777 23.4069ZM25.2721 16.0044C25.6472 16.0211 26.2815 16.1919 26.6568 16.3951C26.5114 16.4403 26.3911 16.5352 26.3311 16.6907C26.0042 16.3946 25.4878 16.0838 25.2721 16.0044ZM25.0153 15.5459C25.4684 15.3916 26.0362 15.8486 26.2999 16.0676C25.9134 15.9623 25.3039 15.7915 25.0161 15.9285C25.0159 15.7811 25.0153 15.6943 25.0153 15.5459ZM24.4087 17.1543C24.4717 17.0891 24.548 16.9178 24.5485 16.8277C24.5501 16.4307 24.5501 16.1422 24.5501 15.7448C24.6296 15.6773 24.7613 15.6101 24.8658 15.5791C24.8658 15.9889 24.8669 16.418 24.8686 16.8277C24.8692 16.9178 24.9454 17.0891 25.008 17.1543C24.9025 17.2395 24.7952 17.3304 24.7085 17.4874C24.6413 17.3766 24.5417 17.2466 24.4087 17.1543ZM24.8676 13.9898V14.0147V14.3597V14.463L24.8671 14.9682C24.7545 15.059 24.6139 15.2229 24.5503 15.3734L24.5498 14.347H24.5493L24.5488 14.0144V13.9895H23.9803C23.8567 13.9829 23.5643 14.0109 23.4417 14.1324C23.4046 14.0428 23.3901 13.9363 23.3927 13.8287C23.3899 13.7211 23.4046 13.614 23.4417 13.525C23.5643 13.6468 23.8567 13.6744 23.9803 13.6673H24.0794V13.6683L24.5493 13.6678V13.3994V13.1946V13.0951C24.5559 12.9701 24.5279 12.6752 24.4072 12.5519C24.4959 12.5149 24.6014 12.5004 24.7087 12.5024C24.816 12.5002 24.9215 12.5149 25.0103 12.5519C24.8887 12.6752 24.8615 12.9703 24.8681 13.0951V13.1946H24.8676V13.6429V13.6678L25.3375 13.6683V13.6678H25.4367C25.5602 13.6744 25.8521 13.6465 25.9757 13.525C26.0123 13.614 26.0268 13.7211 26.0247 13.8287C26.027 13.9363 26.0123 14.0428 25.9757 14.1324C25.8521 14.0106 25.5602 13.9829 25.4367 13.9895L24.8676 13.9898ZM27.0222 16.1757C26.6116 15.891 25.9055 15.3351 25.2119 15.294C25.1226 15.2891 24.9004 15.3505 24.7659 15.4091C24.8475 15.2962 24.9559 15.1387 25.1127 15.024C25.3103 14.8794 25.4763 14.8454 25.7568 14.9187C26.0057 14.9834 26.2414 15.0235 26.427 15.1486C26.4903 15.5063 26.8539 15.7976 27.0222 16.1757ZM31.6326 23.3074C31.1262 23.1514 30.3967 22.6191 30.2589 21.948C30.2447 21.6105 30.1941 20.4956 30.1793 20.1653C30.1651 19.8349 30.158 19.5578 30.158 19.2052C30.0855 19.0395 30.0273 18.9601 30.0039 18.9253C29.9439 19.0111 29.8874 19.1237 29.8612 19.2052C29.8612 19.6484 29.9652 21.0389 29.9652 21.8881C29.9652 22.6092 30.1742 22.853 30.3359 23.1643C29.8607 22.8791 29.3362 22.5579 29.3413 21.8462C29.3413 21.493 29.3337 20.5705 29.3265 20.2173C29.3189 19.8646 29.3189 19.5728 29.3189 19.2052C29.2759 19.0808 29.2203 18.9996 29.1582 18.9253C29.0743 19.0123 29.04 19.0976 29.0013 19.2019V22.1718C29.0161 22.5168 28.8798 22.9063 28.6344 23.1138C28.4379 22.9253 28.3171 22.6084 28.2968 22.1718C28.2515 21.1807 28.3258 20.2043 28.3258 19.2052C28.3001 19.1334 28.2213 18.9834 28.1745 18.9253C28.1163 18.9852 28.0514 19.1148 28.0219 19.2052C28.0077 19.5127 28.0219 19.6845 28.0077 19.9773C27.9935 20.2701 27.9858 21.5796 27.9858 21.8713C28.0006 22.3255 27.6243 22.7406 27.0786 23.1032C27.2795 22.7147 27.3591 22.4087 27.4341 21.9487C27.5605 21.1756 27.5277 20.0422 27.5892 19.2054C27.5696 19.1169 27.5139 19.0121 27.4608 18.9245C27.396 19.0222 27.3573 19.1039 27.3215 19.2054C27.2925 19.6786 27.3029 20.2627 27.2599 21.051C27.145 22.36 26.2729 23.0037 25.3027 23.3331C25.7573 22.9423 26.1107 22.2519 26.4361 21.6293C26.7295 21.0647 26.9131 20.2812 26.9866 19.2678C26.9942 19.1613 27.0008 19.0527 27.0072 18.9413C27.0792 18.1996 27.102 17.2449 26.5516 16.8968C26.6446 16.5413 26.9426 16.4365 27.2152 16.5712C27.3497 16.6379 27.5762 16.6963 27.7761 16.6626C27.2495 16.0856 26.9685 15.6987 26.7295 15.1384C26.7677 15.059 27.0448 15.095 27.281 15.1808C27.4026 15.2242 27.5048 15.3198 27.6622 15.3444C27.533 15.4264 27.4036 15.4863 27.2429 15.6905C27.4384 15.7705 27.5978 16.0085 27.9012 16.0356C28.2045 16.0627 28.3357 15.8095 28.5966 15.6677C28.5149 15.5591 28.3021 15.4231 28.0837 15.3406C28.3222 15.2655 28.729 15.0798 29.0969 15.1549C29.3611 15.2293 29.5106 15.3939 29.7389 15.5243C29.7557 15.5335 29.7761 15.5304 29.789 15.5162C29.802 15.5015 29.8048 15.4792 29.7918 15.4652C29.5653 15.2135 29.4636 15.11 29.1946 14.9621C29.0072 14.8718 28.6489 14.8712 28.4389 14.9088C28.2375 14.9463 27.9772 14.9915 27.7349 14.9963C27.2971 15.0062 27.0489 14.7578 26.6606 14.8312C26.4087 14.0558 27.5742 14.0233 28.3555 14.1857C28.8892 14.296 29.31 14.5269 29.4885 14.6627C29.8681 14.9436 30.4674 15.2853 30.939 15.4305C30.845 15.4875 30.7077 15.5375 30.5632 15.537C30.8882 15.7469 31.1012 16.0315 31.2024 16.1815C31.1018 16.1521 30.953 16.1386 30.6863 16.1386C30.91 16.4461 31.1137 16.7998 31.1719 16.9427C31.0842 16.9155 30.9319 16.8747 30.8437 16.86C31.0125 17.3494 30.9271 18.3448 30.7283 18.8436C30.6418 19.0539 30.6538 19.2691 30.6634 19.4896C30.7214 20.9097 30.5902 22.224 31.6326 23.3074ZM27.7758 15.6888C27.7758 15.8111 27.8373 15.9115 27.9157 15.9235C27.7725 15.9115 27.6604 15.8111 27.6604 15.6888C27.6604 15.5665 27.7725 15.466 27.9157 15.4546C27.8373 15.466 27.7758 15.5665 27.7758 15.6888ZM28.0873 15.6888C28.0873 15.5611 28.0196 15.4574 27.936 15.4535H27.9441C28.101 15.4535 28.2279 15.5588 28.2279 15.6888C28.2279 15.8192 28.101 15.9245 27.9441 15.9245H27.936C28.0196 15.9214 28.0873 15.8166 28.0873 15.6888ZM26.9111 22.7706C26.8305 23.1138 26.6774 23.3633 26.5556 23.5617H25.6301C26.1727 23.3869 26.4608 23.2169 26.9111 22.7706ZM28.0568 22.6244C28.1394 22.8548 28.3698 23.2899 28.6329 23.5617H27.0593C27.609 23.2602 27.8933 22.8457 28.0568 22.6244ZM29.2032 22.6158C29.5668 23.04 29.9606 23.3521 30.3881 23.5617H28.6355C28.9116 23.2927 29.1531 23.0299 29.2032 22.6158ZM31.5152 23.5617H30.8564C30.7285 23.3798 30.6957 23.2075 30.5993 22.9786C30.7644 23.1527 31.0845 23.3851 31.5152 23.5617ZM33.2095 23.0989C33.4127 23.2087 33.6179 23.3706 33.7572 23.5619H32.547C32.4725 23.5152 32.3885 23.4625 32.3026 23.4072C32.7865 23.2917 32.9792 23.2054 33.2095 23.0989ZM34.1984 22.5828C34.1859 22.8132 34.0427 23.0722 33.8945 23.2602C33.7709 23.1088 33.6197 23.0174 33.4623 22.9408L34.1984 22.5828ZM34.5518 22.7457C34.8208 22.9098 35.1457 23.2049 35.3674 23.5617H34.0585C34.3306 23.2346 34.5113 22.9446 34.5518 22.7457ZM36.0806 21.9584C36.0328 22.2664 35.8421 22.7157 35.5736 23.1364C35.4043 22.8576 35.089 22.5577 34.6464 22.4153C34.9545 22.2202 35.5431 22.0182 36.0806 21.9584ZM36.7351 21.6595L37.0204 22.2768V24.6897L36.6496 24.3465C36.6659 24.1227 36.7188 23.9504 36.85 23.7266L36.9464 23.5619H35.6288C36.0534 23.1184 36.4671 22.3605 36.7351 21.6595ZM41.2502 19.8177C41.2458 19.9976 41.1691 20.6217 40.972 21.1096C40.6524 20.3891 40.0262 19.5812 39.5858 18.8938C39.5662 18.8591 39.4289 18.6168 39.3626 18.6302C39.2977 18.6317 39.2685 18.7325 39.2685 18.7622C39.2685 18.7827 39.2815 18.8512 39.2898 18.8768C39.462 19.5162 39.3443 20.1868 38.864 21.0937C38.5492 20.8346 38.1465 20.3416 37.9499 19.7174C37.8874 19.519 37.805 19.3242 37.7315 19.3381C37.6575 19.3523 37.6896 19.5284 37.6857 19.5738C37.6438 20.165 37.5502 20.5715 36.7679 21.1995C36.8342 20.7039 36.7941 19.8499 36.6425 19.3087C37.1696 18.8507 38.0854 18.2205 39.1472 17.575C40.1424 17.9888 40.7651 18.9537 41.2502 19.8177ZM41.7386 22.2811L41.0913 21.7204C41.3102 21.0853 41.449 20.6664 41.48 20.3518C41.6972 20.7506 41.7386 21.4347 41.7386 22.2811ZM41.7391 24.349L41.0913 24.913V22.3359L41.7391 23.227V24.349ZM41.7391 26.2715H41.7386V35.7591L41.1386 36.8986C41.0546 37.0514 40.8662 37.0915 40.7818 37.2361C40.734 37.3274 40.7256 37.4264 40.7518 37.5208C40.6059 37.5413 40.479 37.6169 40.4055 37.756C40.3407 37.8793 40.3402 38.0112 40.3888 38.1348C40.2896 38.1663 40.208 38.2299 40.1569 38.3276L40.1553 38.3304L40.1569 26.3123L40.1574 25.0077L40.9468 25.9401L41.7391 25.0056V26.2715ZM42.5771 34.7229C42.6758 34.5382 42.7193 34.3449 42.6888 34.2416C42.7177 34.1868 42.8461 34.1997 42.9758 34.2692C43.1055 34.3388 43.1876 34.4392 43.1589 34.4935C43.0572 34.5255 42.9219 34.6717 42.825 34.8554L41.6054 37.1623C41.5802 37.2089 41.5733 37.2688 41.571 37.3317C41.4851 37.2465 41.375 37.1851 41.2357 37.1524C41.2792 37.1209 41.3267 37.0828 41.3582 37.0296L42.5771 34.7229ZM35.9705 24.2457C35.9705 26.9558 35.9682 29.6671 35.9667 32.3785C35.9657 33.9069 35.9652 35.4364 35.9652 36.9654C35.9652 37.161 35.9347 37.3538 35.8742 37.5395C35.4445 38.8566 33.4819 39.6998 32.31 40.2057C31.5292 40.5427 30.7344 40.8517 29.9764 41.2392C29.3954 41.5353 28.8139 41.8704 28.4872 42.4626C28.16 41.8704 27.5785 41.5353 26.998 41.2392C26.2391 40.8517 25.4448 40.5427 24.664 40.2057C23.4934 39.6998 21.5295 38.8566 21.0998 37.5395C21.0398 37.3538 21.0093 37.1607 21.0093 36.9654V32.3785V24.2457H35.9705ZM30.338 27.0789L29.5452 26.6247L29.7961 25.7602L28.9169 26.0036L28.4872 25.2142L28.0364 26.0129L27.1783 25.7602L27.4201 26.6465L26.636 27.0791L27.4288 27.5338L27.1783 28.3987L28.0575 28.1549L28.4872 28.9443L28.938 28.1455L29.7961 28.3987L29.5543 27.512L30.338 27.0789ZM29.2508 26.7452L29.8261 27.075L29.2614 27.3874L29.4374 28.0306L28.8188 27.8487L28.491 28.4289L28.1814 27.8596L27.5427 28.0367L27.7234 27.4135L27.1481 27.0832L27.7128 26.7713L27.5373 26.1281L28.1559 26.3095L28.4837 25.7293L28.7928 26.2986L29.4315 26.122L29.2508 26.7452ZM23.262 30.8665C22.649 31.5082 21.8158 32.0179 21.0095 32.3787C21.8033 32.7334 22.6386 33.2371 23.262 33.8897C23.8859 33.2376 24.6663 32.7339 25.46 32.3787V32.3782C24.651 32.0161 23.8796 31.512 23.262 30.8665ZM23.2452 31.4316L23.262 31.4158L23.2793 31.4316C23.7024 31.8375 24.1712 32.0671 24.6797 32.3569L24.7184 32.3787L24.6797 32.4005C24.1712 32.6895 23.7024 32.9199 23.2793 33.3249L23.262 33.3416L23.2452 33.3249C22.8221 32.9194 22.354 32.6893 21.8448 32.4005L21.8061 32.3787L21.8448 32.3569C22.354 32.0671 22.8216 31.8368 23.2452 31.4316ZM23.6703 35.2017C23.1308 35.2017 22.7789 35.6647 22.9332 36.1194C22.5516 35.8309 22.006 36.0255 21.8394 36.5426C21.6724 37.06 22.0006 37.5395 22.4776 37.5327C22.0878 37.8098 22.1026 38.3923 22.5391 38.7118C22.9757 39.0317 23.53 38.866 23.6706 38.4063C23.8109 38.866 24.3652 39.0317 24.802 38.7118C25.2393 38.3923 25.2538 37.8098 24.8636 37.5332C25.3405 37.5403 25.6688 37.06 25.5017 36.5426C25.3352 36.0253 24.7896 35.8309 24.4079 36.1199C24.5623 35.6645 24.2101 35.2017 23.6703 35.2017ZM24.4288 37.3147C24.4588 37.1823 24.4545 37.0392 24.4097 36.9002C24.365 36.7611 24.2851 36.6431 24.1837 36.5536C24.4913 36.0895 24.9983 36.0433 25.1921 36.6444C25.3861 37.2447 24.9487 37.5076 24.4288 37.3147ZM23.7418 37.9222C23.8768 37.9102 24.0098 37.8623 24.1272 37.776C24.2449 37.6898 24.3314 37.5771 24.3848 37.4523C24.9172 37.6037 25.1183 38.0749 24.6113 38.4466C24.1038 38.8181 23.7204 38.4801 23.7418 37.9222ZM23.0988 37.3333C22.9943 37.0153 23.1656 36.6721 23.4809 36.566C23.7695 36.4698 24.0787 36.6056 24.2099 36.8725C24.2223 36.8974 24.2333 36.924 24.2419 36.9511C24.3464 37.2696 24.1755 37.6129 23.8603 37.7184C23.5447 37.8237 23.2033 37.6514 23.0988 37.3333ZM22.9561 37.4523C23.0095 37.5771 23.096 37.6898 23.2137 37.776C23.3306 37.8618 23.4641 37.9102 23.5986 37.9222C23.6205 38.4801 23.2376 38.8181 22.7301 38.4464C22.2226 38.0749 22.4237 37.6037 22.9561 37.4523ZM23.1575 36.5536C23.0558 36.6431 22.9757 36.7611 22.9309 36.8996C22.8862 37.0392 22.8819 37.1815 22.9119 37.3147C22.3924 37.5071 21.9546 37.2447 22.1486 36.6436C22.3431 36.0433 22.8493 36.0895 23.1575 36.5536ZM23.6703 35.5298C24.2976 35.5298 24.4102 36.0301 24.0677 36.4686C23.9513 36.399 23.8158 36.3582 23.6703 36.3582C23.5254 36.3582 23.3899 36.399 23.2729 36.4686C22.9309 36.0304 23.0438 35.5298 23.6703 35.5298ZM26.3362 34.1155L25.6622 34.7952L26.3362 35.4745L27.0108 34.7952L26.3362 34.1155ZM26.0148 34.7952L26.336 34.4715L26.6578 34.7952L26.336 35.119L26.0148 34.7952ZM26.8773 35.6158C26.4689 35.6021 26.0812 35.5792 25.6729 35.5663C25.8684 36.4008 26.0639 37.2361 26.2597 38.0706C26.3027 38.2533 26.3527 38.4438 26.3266 38.6661C26.7039 38.4976 27.0598 37.9935 27.0125 37.3812L26.8773 35.6158ZM26.7641 37.4005C26.7822 37.6314 26.7303 37.9483 26.5818 38.1665C26.5699 38.1845 26.5485 38.1926 26.5274 38.1866C26.5068 38.1817 26.4926 38.1637 26.4911 38.1419C26.4834 38.0343 26.4644 37.913 26.4415 37.8011C26.3054 37.148 26.1394 36.463 25.9912 35.8299C26.2096 35.8386 26.4272 35.8495 26.6456 35.8581L26.7641 37.4005ZM30.7148 38.0706C30.9108 37.2361 31.1058 36.4008 31.3016 35.5663C30.8933 35.5792 30.5055 35.6021 30.0967 35.6158L29.9617 37.381C29.9144 37.9932 30.2698 38.4976 30.6471 38.6658C30.6212 38.4438 30.6718 38.253 30.7148 38.0706ZM30.9838 35.8302C30.835 36.4632 30.669 37.1483 30.533 37.8014C30.5101 37.9133 30.4915 38.0346 30.4834 38.1421C30.4819 38.164 30.4676 38.1817 30.4463 38.1868C30.4262 38.1929 30.4048 38.1845 30.3929 38.1668C30.2436 37.9483 30.1925 37.6316 30.2106 37.4008L30.3288 35.8589C30.547 35.85 30.7654 35.8391 30.9838 35.8302ZM30.6375 35.4745L31.312 34.7952L30.6375 34.1155L29.964 34.7952L30.6375 35.4745ZM30.9594 34.7952L30.6375 35.119L30.3164 34.7952L30.6375 34.4715L30.9594 34.7952ZM31.7471 36.3123C31.1923 37.4081 31.7427 38.6534 33.3451 39.2088C32.5231 37.5165 33.3537 36.0956 34.9588 36.1423C34.1503 35.3864 32.3957 35.0322 31.7471 36.3123ZM32.0514 36.5774C32.3852 35.9342 33.1317 35.5386 34.1884 35.9487C33.5993 36.1405 33.1528 36.5018 32.9235 36.9887C32.6949 37.4766 32.6827 38.0901 32.8223 38.678C31.954 38.1107 31.726 37.2049 32.0514 36.5774ZM33.7186 33.8894C34.342 33.2368 35.1724 32.7332 35.9667 32.3785C35.1615 32.0182 34.3316 31.5074 33.7186 30.8662C33.1 31.5133 32.3252 32.0149 31.5147 32.3785H31.5142C32.3085 32.7339 33.0946 33.2371 33.7186 33.8894ZM33.7361 33.3244L33.7186 33.3411L33.7018 33.3244C33.2782 32.9189 32.8099 32.6888 32.3008 32.4L32.2622 32.3782L32.3008 32.3564C32.8099 32.0669 33.2782 31.8365 33.7018 31.431L33.7186 31.4153L33.7361 31.431C34.1592 31.837 34.628 32.0661 35.1361 32.3564L35.1752 32.3782L35.1361 32.4C34.6273 32.6893 34.1592 32.9197 33.7361 33.3244ZM32.0023 33.3343L31.5142 32.3785L31.3598 32.0753C33.5202 30.9847 34.7084 28.7387 33.3552 26.7109C32.6769 25.6943 31.7926 25.1881 30.7608 24.6418C31.1076 25.1515 31.4631 25.6572 31.7903 26.1812C32.595 27.4731 32.7295 29.0183 31.2246 30.0459C30.8119 30.3273 30.5396 30.1454 30.1704 30.6252C30.025 30.8147 29.7072 30.7465 29.5879 30.5633C29.4333 30.3268 29.0598 30.3182 28.8633 30.5019C28.786 30.5719 28.5943 30.7632 28.487 30.7637C28.3797 30.7632 28.188 30.5719 28.1107 30.5019C27.9141 30.3182 27.5401 30.3268 27.3855 30.5633C27.2668 30.7465 26.949 30.815 26.803 30.6252C26.4344 30.1454 26.1623 30.3273 25.7494 30.0459C24.2439 29.0186 24.3784 27.4731 25.1837 26.1812C25.5104 25.6575 25.8663 25.1515 26.2139 24.6418C25.1816 25.1878 24.2973 25.6943 23.6185 26.7109C22.2656 28.7387 23.454 30.9847 25.6144 32.0753L25.4598 32.378C25.4598 32.378 25.4603 32.378 25.4603 32.3785H25.4598L24.9714 33.3343L25.3034 33.3952C26.3253 33.5809 27.2114 34.1601 27.2353 35.2897C27.2538 36.1661 27.2843 37.042 27.3098 37.9179C27.3093 38.203 27.2281 38.3834 27.0069 38.5732C26.7283 38.8117 26.4402 39.0393 26.1559 39.272C25.9159 39.4681 25.9274 39.8538 26.0405 40.1146C26.1353 40.3326 26.415 40.3427 26.6154 40.3983C26.9159 40.4815 27.1648 40.6302 27.3977 40.839C27.6695 41.0818 28.13 41.2123 28.4867 41.2102C28.8434 41.2125 29.3039 41.0821 29.5757 40.839C29.8081 40.6305 30.057 40.4815 30.3581 40.3983C30.5579 40.343 30.8378 40.3326 30.9329 40.1146C31.0456 39.8538 31.0575 39.4681 30.8175 39.272C30.5332 39.0393 30.2452 38.8117 29.9665 38.5732C29.7448 38.3837 29.6642 38.2033 29.6637 37.9179C29.6886 37.042 29.7191 36.1661 29.7377 35.2897C29.7621 34.1601 30.6474 33.5809 31.67 33.3952L32.0023 33.3343ZM31.5887 33.1287C30.4544 33.3444 29.4926 34.0247 29.4641 35.289C29.4445 36.1654 29.415 37.0412 29.3901 37.9171C29.3797 38.2903 29.5099 38.5435 29.7893 38.7838C30.0697 39.0233 30.3598 39.2527 30.6456 39.4864C30.7801 39.5963 30.742 39.8645 30.6822 40.0037C30.6489 40.0804 30.3573 40.1118 30.2858 40.1314C29.9444 40.226 29.6581 40.3613 29.3939 40.598C29.1646 40.785 28.7814 40.9012 28.4875 40.8989C28.1931 40.9012 27.8096 40.7847 27.5803 40.5972C27.3156 40.3607 27.0303 40.2255 26.6884 40.1311C26.6177 40.1116 26.3258 40.0801 26.2925 40.0035C26.232 39.8644 26.1946 39.596 26.3291 39.4861C26.6149 39.2525 26.9045 39.0233 27.1849 38.7836C27.4644 38.5433 27.5948 38.2903 27.5846 37.9168C27.5589 37.041 27.5302 36.1651 27.5106 35.2887C27.4824 34.0244 26.5203 33.3442 25.3861 33.1285L25.9894 31.9461L25.965 31.9352C24.7481 31.3973 23.6233 30.3547 23.4049 28.979C23.2719 28.1412 23.5117 27.3496 23.9963 26.6665C24.3713 26.1378 24.9116 25.5651 25.4789 25.2538C25.5236 25.2294 25.5862 25.2756 25.5513 25.3205C24.9846 26.0573 24.3639 26.9743 24.3093 27.9291C24.2516 28.9311 24.8391 29.6943 25.5953 30.2735C25.7064 30.3588 25.8218 30.424 25.9551 30.4664C26.0481 30.4963 26.1435 30.512 26.2365 30.5397C26.3901 30.5859 26.4888 30.6663 26.5867 30.7939C26.847 31.1319 27.3929 31.0553 27.6151 30.7153C27.6751 30.6239 27.8541 30.6371 27.9256 30.7054C28.0786 30.8429 28.2686 31.0385 28.4875 31.0395C28.7059 31.0385 28.8958 30.8429 29.0489 30.7059C29.1208 30.6369 29.2993 30.6239 29.3598 30.715C29.5821 31.0553 30.1282 31.1316 30.3883 30.7937C30.4862 30.6661 30.5843 30.5856 30.7384 30.5394C30.831 30.5118 30.9263 30.4961 31.0194 30.4661C31.1529 30.4237 31.2688 30.3585 31.3791 30.2733C32.1361 29.694 32.7234 28.9308 32.6652 27.9288C32.6237 27.2044 32.2584 26.5118 31.861 25.9224C31.7221 25.7163 31.5747 25.5169 31.4236 25.3203C31.3883 25.2751 31.4514 25.2289 31.4956 25.2535C32.0634 25.5649 32.6037 26.1375 32.9787 26.6663C33.4628 27.3493 33.7023 28.141 33.5701 28.9788C33.3517 30.3545 32.2268 31.397 31.0095 31.9349L30.9856 31.9459L31.5887 33.1287ZM29.308 39.5191C29.1686 39.5191 29.0552 39.6295 29.0552 39.7647C29.0552 39.9005 29.1684 40.0103 29.308 40.0103C29.4478 40.0103 30.1885 39.8847 30.1885 39.7076C30.1882 39.5311 29.4478 39.5191 29.308 39.5191ZM27.9195 39.7645C27.9195 39.6292 27.8063 39.5189 27.6667 39.5189C27.5269 39.5189 26.7862 39.5308 26.7862 39.7074C26.7862 39.8845 27.5266 40.0101 27.6667 40.0101C27.8063 40.0101 27.9195 39.9005 27.9195 39.7645ZM26.2996 15.3292C26.2747 15.227 25.9604 15.2097 25.8727 15.2216C25.9686 15.265 26.1249 15.3574 26.2294 15.4358C26.2775 15.4721 26.3225 15.4264 26.2996 15.3292ZM26.7962 5.72182C26.8053 5.62565 26.7967 5.30443 26.7809 5.19762C26.7748 5.15144 26.7695 5.11388 26.7323 5.11896C26.7003 5.12429 26.6937 5.14382 26.6914 5.19609C26.6871 5.39172 26.6462 5.49701 26.5345 5.56983C26.4234 5.64316 26.2302 5.67031 26.1109 5.68782C25.6426 5.75531 25.5589 5.69594 25.5033 5.377C25.4794 5.24278 25.4222 4.81474 25.3998 4.65717L25.3464 4.28978C25.3426 4.26161 25.3441 4.24258 25.367 4.23928C25.4776 4.22355 25.9327 4.16266 26.0214 4.15936C26.1941 4.15327 26.2686 4.21366 26.3047 4.30348C26.3276 4.36209 26.3362 4.42248 26.3471 4.46815C26.351 4.492 26.3629 4.509 26.3949 4.50392C26.4359 4.49859 26.4288 4.44734 26.4232 4.41004C26.4183 4.37757 26.4008 4.19057 26.3965 4.09593C26.3764 3.85692 26.3888 3.77928 26.3845 3.75137C26.3807 3.72371 26.3655 3.7161 26.3469 3.7194C26.324 3.72219 26.3088 3.74832 26.2821 3.78993C26.2477 3.8422 26.1804 3.86605 26.0718 3.89142C25.9673 3.91578 25.4392 3.9919 25.3377 4.00611C25.3105 4.01042 25.3034 3.9919 25.2986 3.95993L25.1287 2.78466C25.1244 2.75219 25.1315 2.73696 25.1544 2.73366C25.2465 2.71996 25.7298 2.66034 25.8094 2.65805C26.0431 2.65272 26.097 2.7022 26.1409 2.78086C26.172 2.83363 26.1882 2.91178 26.1926 2.94451C26.1987 2.98638 26.2111 3.0082 26.2432 3.00363C26.2752 2.99881 26.2808 2.96938 26.2818 2.94553C26.2828 2.88844 26.2627 2.68266 26.2604 2.63572C26.2437 2.42006 26.2582 2.36068 26.2538 2.32821C26.25 2.30537 26.2429 2.28736 26.22 2.29066C26.1966 2.29395 26.1715 2.31197 26.1493 2.32009C26.114 2.3343 26.0415 2.35434 25.9556 2.37616C25.8691 2.39341 24.9553 2.5251 24.8084 2.54616C24.6792 2.56468 24.3881 2.59234 24.1453 2.62761C24.0761 2.6375 24.0451 2.65095 24.0499 2.68368C24.0543 2.71692 24.0837 2.72174 24.1338 2.71413C24.1982 2.70499 24.277 2.6989 24.3151 2.7022C24.4715 2.71311 24.5188 2.78213 24.5508 2.93918C24.5818 3.08584 24.6004 3.21625 24.7021 3.92263L24.8203 4.7404C24.8819 5.16742 24.9347 5.53482 24.9401 5.73247C24.9406 5.8705 24.933 5.9758 24.8437 6.00751C24.8041 6.02274 24.7502 6.03999 24.681 6.04989C24.6261 6.05801 24.6096 6.07475 24.6129 6.09759C24.6177 6.13006 24.652 6.13945 24.7115 6.13133C24.8951 6.10469 25.1824 6.04938 25.2882 6.03416C25.5592 5.99508 25.8712 5.97808 26.5643 5.87887C26.7402 5.85325 26.7809 5.8469 26.7962 5.72182ZM21.3706 3.3246C21.3581 3.29415 21.32 3.30024 21.2643 3.32307C21.1359 3.37737 20.9404 3.47404 20.8674 3.50449C20.8112 3.52783 20.6261 3.58974 20.4123 3.6788C20.3307 3.71204 20.2958 3.7369 20.3106 3.77116C20.323 3.8016 20.3591 3.79171 20.3978 3.77547C20.454 3.75213 20.5198 3.73031 20.5786 3.72599C20.622 3.7227 20.6538 3.75035 20.6683 3.78511C20.6846 3.82419 20.695 3.89599 20.6965 3.9612C20.7133 4.29054 20.7405 5.91719 20.7558 6.47082L20.739 6.47793L19.1791 4.81804C19.054 4.68661 18.965 4.58106 18.9411 4.52524C18.9249 4.48616 18.9254 4.45089 18.946 4.41613C18.9694 4.37604 19.0319 4.34484 19.1006 4.31667C19.1387 4.29993 19.1611 4.2814 19.1484 4.25045C19.1354 4.22051 19.0848 4.23142 19.0334 4.25273C18.8194 4.34306 18.619 4.44125 18.512 4.48591C18.3622 4.54833 18.1128 4.63688 17.8857 4.73152C17.8214 4.75765 17.7756 4.78201 17.7909 4.81626C17.8013 4.8424 17.8196 4.85001 17.8585 4.83428C17.8928 4.82007 17.961 4.7914 18.0327 4.78201C18.2048 4.7607 18.2979 4.7782 18.4959 4.97535L20.682 7.17314C20.8486 7.34263 20.8999 7.39261 20.9554 7.36978C21.0154 7.34415 21.0121 7.26448 21.0184 6.96661C21.0222 6.71059 21.0255 6.15493 21.0347 5.40821C21.0428 4.77846 21.0609 4.49656 21.0576 4.01956C21.0571 3.69402 21.0909 3.59405 21.13 3.53164C21.185 3.4474 21.2755 3.40985 21.3179 3.3926C21.3614 3.37458 21.3838 3.35504 21.3706 3.3246ZM16.8885 9.29151C16.993 8.78685 16.6968 8.31517 16.38 7.90159L16.0747 7.50223C15.6411 6.93489 15.5613 6.8301 15.4769 6.70527C15.3849 6.56952 15.3658 6.483 15.4507 6.38861C15.4894 6.34726 15.5089 6.3267 15.5494 6.29626C15.5933 6.26251 15.6099 6.23815 15.5903 6.21202C15.5702 6.18588 15.5387 6.19781 15.4868 6.23765C15.3432 6.34573 15.1194 6.53425 15.0752 6.56851C15.0714 6.5713 14.8306 6.73698 14.6424 6.88034C14.5908 6.92043 14.5705 6.94707 14.5908 6.9732C14.6109 6.99934 14.6386 6.98995 14.679 6.95899C14.72 6.92804 14.7853 6.88389 14.8207 6.86943C14.9623 6.8027 15.0373 6.83949 15.1418 6.96128C15.2404 7.07495 15.3203 7.17923 15.7543 7.74682L16.111 8.21292C16.4049 8.59706 16.6505 8.94162 16.6048 9.30116C16.5715 9.563 16.4121 9.76675 16.2503 9.89056C16.1245 9.98622 15.9432 10.1004 15.6722 10.089C15.377 10.0776 15.096 9.93142 14.6823 9.39021L14.2826 8.86753C13.8491 8.3002 13.7693 8.19592 13.6854 8.07058C13.5928 7.93483 13.5738 7.84831 13.6592 7.75392C13.6973 7.71307 13.7169 7.69201 13.7571 7.66157C13.7942 7.6334 13.811 7.60879 13.7909 7.58266C13.7708 7.55652 13.7393 7.56896 13.6836 7.61158C13.5514 7.71155 13.3277 7.90007 13.2387 7.96756C13.1281 8.0518 12.887 8.21748 12.6915 8.36642C12.6366 8.4093 12.6162 8.43645 12.6361 8.46259C12.6562 8.48872 12.6839 8.47933 12.7248 8.44838C12.7759 8.4088 12.8418 8.36465 12.8774 8.34993C13.019 8.2832 13.094 8.3205 13.1985 8.44178C13.2971 8.55596 13.377 8.66024 13.811 9.22732L14.2275 9.77233C14.6406 10.313 14.9925 10.4825 15.3116 10.5107C15.7695 10.552 16.1321 10.2932 16.3276 10.1445C16.5666 9.96212 16.8008 9.71854 16.8885 9.29151ZM12.7294 13.0535L12.3254 12.7308C12.1413 12.5841 11.9948 12.4667 11.8875 12.3756C11.7612 12.269 11.7281 12.1833 11.7879 12.0708C11.8151 12.0219 11.8314 11.9937 11.8547 11.9648C11.8753 11.9392 11.8853 11.9115 11.8629 11.8943C11.8334 11.8704 11.8062 11.8899 11.768 11.9371C11.6727 12.0561 11.5301 12.2566 11.4403 12.3685C11.3539 12.4771 11.1599 12.696 11.0091 12.884C10.9689 12.9345 10.9557 12.966 10.9852 12.9893C11.0076 13.0066 11.032 12.9909 11.0582 12.9584C11.0983 12.9079 11.1517 12.8493 11.1822 12.8265C11.303 12.7275 11.3879 12.7417 11.5161 12.8379C11.6292 12.9221 11.7688 13.0335 11.9526 13.1807L12.2979 13.4562C12.3605 13.5057 12.3966 13.5585 12.379 13.6328C12.3495 13.7523 12.2483 13.8784 12.1733 13.9723C11.5613 14.7352 10.573 14.7586 9.78306 14.1283C9.33175 13.7675 9.16013 13.4176 9.14996 13.0769C9.13953 12.6542 9.33607 12.3781 9.49575 12.1792C9.82298 11.7712 10.2237 11.6169 10.4284 11.6022C10.6063 11.5903 10.7388 11.6664 10.8319 11.7227C10.8639 11.7423 10.8881 11.7499 10.9087 11.7243C10.9315 11.6953 10.9224 11.67 10.8634 11.6228C10.404 11.2566 10.3216 11.1491 10.2809 11.1168C10.2552 11.0968 10.2346 11.092 10.1965 11.1326C10.1263 11.2125 10.0027 11.3216 9.92697 11.3858C9.8545 11.4462 9.55575 11.7291 9.35514 11.9785C9.11233 12.2822 8.87994 12.6245 8.81459 13.1418C8.75306 13.632 8.92469 14.26 9.51253 14.7289C10.5263 15.5385 11.5809 15.0945 12.2911 14.2085C12.5171 13.9266 12.7604 13.5402 12.824 13.206C12.8334 13.1423 12.8286 13.1324 12.7294 13.0535ZM8.27023 21.3418L7.43932 20.8658L7.70222 19.9595L6.78104 20.2148L6.33025 19.3873L5.85809 20.2246L4.95929 19.9595L5.21253 20.8881L4.39103 21.3418L5.22194 21.8178L4.95955 22.7241L5.88072 22.4681L6.3305 23.296L6.80367 22.4592L7.70247 22.7239L7.44872 21.7952L8.27023 21.3418ZM7.13065 20.9912L7.734 21.3372L7.14209 21.6643L7.32617 22.3385L6.67782 22.1477L6.33482 22.7556L6.01039 22.1591L5.34169 22.3443L5.53061 21.6917L4.92726 21.3456L5.51917 21.0186L5.33559 20.3444L5.98293 20.5347L6.32643 19.9273L6.65087 20.5233L7.31956 20.3386L7.13065 20.9912ZM5.02947 28.1828L4.20567 28.1057C3.77445 28.0648 3.40476 28.0301 3.21026 27.989C3.07576 27.9575 2.97507 27.9248 2.96515 27.8309C2.95981 27.7885 2.95524 27.7319 2.96185 27.6629C2.96719 27.6081 2.95473 27.5878 2.93134 27.5858C2.89879 27.583 2.88176 27.6135 2.87591 27.6733C2.85862 27.858 2.8454 28.1498 2.83726 28.2374C2.83065 28.3069 2.78438 28.6466 2.75946 28.9138C2.75412 28.9737 2.7648 29.0072 2.7976 29.01C2.82099 29.0128 2.83675 28.9953 2.84006 28.959C2.8454 28.9037 2.86447 28.8029 2.88023 28.7347C2.91176 28.5982 3.01753 28.5799 3.15458 28.5786C3.3534 28.5743 3.72309 28.6091 4.15864 28.6504L4.22449 28.6565C4.25271 28.6593 4.26034 28.674 4.25831 28.6966L4.21152 29.097C4.20822 29.1295 4.2011 29.1561 4.17059 29.1769C4.09482 29.2302 3.75615 29.4126 3.4818 29.5725C3.09686 29.7968 2.86015 29.9518 2.73378 30.1391C2.65699 30.2527 2.62267 30.3661 2.59877 30.6242L2.55733 31.0621C2.55199 31.1174 2.55834 31.1507 2.59597 31.1545C2.61936 31.156 2.63513 31.1393 2.63843 31.1022C2.64225 31.0652 2.65038 31.0246 2.66462 30.9746C2.68522 30.9066 2.73607 30.7209 3.03151 30.4882C3.34781 30.2431 3.79429 29.9645 4.35721 29.6037C4.69741 30.1053 5.00252 30.2779 5.34881 30.3111C5.66308 30.3405 5.91886 30.1784 6.02005 30.0574C6.21659 29.8255 6.2738 29.519 6.30101 29.2282C6.31474 29.0853 6.33304 28.7337 6.34779 28.5766C6.35694 28.4799 6.39839 28.1909 6.42127 27.9463C6.42788 27.8773 6.42178 27.8441 6.38873 27.8416C6.35618 27.8383 6.34398 27.8649 6.33965 27.9154C6.33304 27.9801 6.32109 28.0582 6.30813 28.094C6.26134 28.243 6.18278 28.2729 6.02285 28.2668C5.87233 28.2622 5.74164 28.2503 5.02947 28.1828ZM4.60867 28.6921L6.032 28.8263C6.06963 28.8301 6.08743 28.841 6.09404 28.874C6.10396 28.9212 6.10065 29.0049 6.08972 29.1201C6.06404 29.3918 5.83165 29.8074 5.16626 29.745C4.78233 29.7087 4.57994 29.555 4.48942 29.4066C4.43654 29.318 4.42357 29.2561 4.44086 29.0719C4.45179 28.9567 4.47849 28.8197 4.52044 28.7258C4.53723 28.6946 4.5568 28.6875 4.60867 28.6921ZM2.60004 33.4972C2.61097 33.6824 2.6425 33.9726 2.64911 34.0784C2.66488 34.3512 2.65572 34.6625 2.69691 35.3608C2.70734 35.5364 2.70988 35.5775 2.83421 35.6026C2.92956 35.6206 3.25068 35.6379 3.35849 35.632C3.40578 35.6292 3.44341 35.6272 3.44112 35.5902C3.43883 35.5577 3.41926 35.5493 3.36764 35.543C3.17339 35.5224 3.07092 35.4729 3.00787 35.356C2.94405 35.2392 2.93261 35.0446 2.92574 34.9251C2.89752 34.4534 2.96388 34.3753 3.2873 34.3469C3.42282 34.3339 3.85505 34.3126 4.01473 34.3035L4.38594 34.2812C4.41417 34.2796 4.43323 34.2835 4.43451 34.3063C4.44112 34.4172 4.464 34.8751 4.45968 34.9632C4.45103 35.1355 4.38442 35.2045 4.29187 35.2332C4.23135 35.2507 4.17033 35.2545 4.12406 35.2613C4.10067 35.2623 4.08211 35.2732 4.08439 35.3052C4.08668 35.3471 4.1383 35.3443 4.17593 35.3418C4.20872 35.3395 4.39688 35.3379 4.49171 35.3412C4.73173 35.3412 4.80852 35.3598 4.83649 35.358C4.86471 35.3565 4.87361 35.3418 4.87234 35.3232C4.87132 35.3004 4.84666 35.2831 4.80699 35.2527C4.75741 35.2146 4.73936 35.1461 4.72309 35.0352C4.70732 34.93 4.6758 34.3984 4.66969 34.2964C4.66817 34.2692 4.68647 34.2632 4.71978 34.2611L5.90793 34.1906C5.94072 34.1883 5.95522 34.1972 5.95649 34.2205C5.96259 34.3129 5.98217 34.798 5.97657 34.8774C5.96234 35.1106 5.90894 35.1601 5.82631 35.1974C5.77139 35.2235 5.69181 35.2332 5.6585 35.2349C5.61655 35.2377 5.59366 35.2486 5.59595 35.2806C5.59748 35.3126 5.62646 35.3207 5.64985 35.3235C5.70706 35.3301 5.91403 35.3268 5.96132 35.3283C6.17795 35.3288 6.23566 35.3489 6.26897 35.3468C6.29236 35.3458 6.31092 35.3397 6.30991 35.3164C6.30838 35.2935 6.29262 35.2669 6.28651 35.2436C6.27456 35.2078 6.26083 35.1337 6.24634 35.0469C6.23668 34.9594 6.18151 34.0401 6.17286 33.8917C6.16523 33.7623 6.16193 33.4705 6.14718 33.2257C6.14337 33.1561 6.13193 33.1247 6.09862 33.1267C6.06607 33.1282 6.05845 33.1566 6.0615 33.2071C6.0648 33.2723 6.0648 33.3513 6.05768 33.3886C6.03429 33.5428 5.96132 33.5847 5.80241 33.6032C5.65265 33.6217 5.52095 33.6293 4.80725 33.6717L3.98066 33.7217C3.54842 33.7473 3.17746 33.7689 2.97888 33.7575C2.84158 33.7476 2.73709 33.7303 2.71268 33.639C2.70073 33.5981 2.68827 33.5428 2.68369 33.4738C2.68039 33.4185 2.66513 33.4005 2.64174 33.402C2.60869 33.4043 2.59674 33.437 2.60004 33.4972ZM3.17924 38.6415C3.1472 38.6481 3.14008 38.6828 3.15305 38.7415C3.1917 38.9224 3.26619 39.205 3.28857 39.3093C3.31374 39.4273 3.36103 39.7153 3.4246 40.0139C3.43502 40.0644 3.45663 40.0971 3.48892 40.0905C3.51181 40.0857 3.52096 40.0601 3.51079 40.0101C3.49604 39.9421 3.48358 39.8406 3.47926 39.7754C3.46884 39.6358 3.56418 39.5869 3.69055 39.546C3.88328 39.4813 4.24636 39.4037 4.66995 39.3136L6.51026 38.9219C6.56086 38.9109 6.59137 38.9191 6.60561 38.9399C6.62798 38.9779 6.64705 39.0447 6.6618 39.1127C6.68417 39.2164 6.69612 39.4082 6.57891 39.6034C6.40296 39.9061 6.0976 39.9852 5.94581 40.018C5.47696 40.1174 5.11159 39.8261 5.05718 39.5724C5.03709 39.4778 5.01625 39.4486 4.97938 39.4567C4.94734 39.4633 4.94938 39.4958 4.94988 39.5196C4.94988 39.543 4.96082 39.593 4.96514 39.6158C5.10295 40.2585 5.66358 40.6317 6.31652 40.4927C6.56035 40.4404 6.74062 40.2699 6.81588 40.1499C6.86927 40.0624 7.01903 39.8173 6.898 39.2517C6.85402 39.0431 6.78359 38.7833 6.74392 38.5976C6.71723 38.471 6.66993 38.1825 6.61857 37.943C6.60383 37.875 6.58806 37.8453 6.55603 37.8521C6.52399 37.8587 6.52018 37.8879 6.53111 37.9379C6.54484 38.0008 6.55679 38.0792 6.55501 38.1173C6.5545 38.2733 6.48865 38.3253 6.33457 38.3677C6.18913 38.4078 6.06023 38.4357 5.36051 38.5844L4.55096 38.7567C4.12787 38.8467 3.76479 38.9241 3.56647 38.9424C3.42917 38.9528 3.32315 38.9515 3.28501 38.8653C3.26696 38.8262 3.24636 38.7739 3.23162 38.7062C3.22017 38.6519 3.20263 38.6367 3.17924 38.6415ZM4.96183 44.3818C4.80064 44.8111 4.95472 45.2283 5.04676 45.4553C5.1599 45.7352 5.33305 46.0247 5.72232 46.2221C6.18227 46.4558 6.71595 46.2954 7.20006 46.0998L7.66713 45.9118C8.32972 45.6439 8.45177 45.5951 8.59491 45.5472C8.75128 45.4939 8.83875 45.4982 8.90791 45.6058C8.9374 45.6535 8.95189 45.6776 8.97096 45.7248C8.99156 45.7763 9.01113 45.7986 9.04164 45.7857C9.07215 45.7738 9.06885 45.7405 9.04444 45.6804C8.97681 45.5129 8.85375 45.2478 8.83315 45.1963C8.83086 45.192 8.7345 44.9164 8.64577 44.6975C8.62187 44.6371 8.60051 44.6104 8.57 44.6236C8.53949 44.6355 8.54101 44.665 8.56084 44.7122C8.57991 44.7589 8.60483 44.834 8.61042 44.872C8.63712 45.0258 8.58093 45.0882 8.43626 45.1567C8.30023 45.2214 8.17819 45.2709 7.51508 45.5386L6.96996 45.758C6.52069 45.9395 6.12328 46.0846 5.78792 45.9455C5.54408 45.8446 5.38873 45.6375 5.31271 45.4485C5.25347 45.3029 5.19067 45.0981 5.27406 44.8401C5.36331 44.5592 5.57892 44.3278 6.211 44.0723L6.82198 43.8262C7.48457 43.5582 7.60662 43.5087 7.74976 43.4616C7.90613 43.4083 7.9936 43.4131 8.06225 43.5197C8.09225 43.5681 8.107 43.592 8.12606 43.6392C8.14361 43.682 8.16268 43.7044 8.19293 43.6919C8.22395 43.6795 8.22014 43.6463 8.19395 43.5816C8.1314 43.4273 8.00885 43.1616 7.96741 43.0589C7.91452 42.93 7.81816 42.6547 7.72612 42.4268C7.69993 42.3621 7.67933 42.3355 7.64882 42.3487C7.61831 42.3606 7.62009 42.3901 7.63891 42.4373C7.66332 42.4971 7.68849 42.572 7.69332 42.61C7.72052 42.7638 7.66459 42.8262 7.51966 42.8947C7.38363 42.9594 7.26159 43.0094 6.59849 43.2766L5.96208 43.5331C5.33051 43.7886 5.07345 44.0819 4.96183 44.3818ZM7.22472 49.6642C7.19701 49.6822 7.20286 49.717 7.23566 49.7675C7.33634 49.9227 7.50746 50.1597 7.56517 50.2493C7.64094 50.3655 7.84664 50.7344 7.90715 50.828C8.37091 51.543 9.01902 51.5834 9.44083 51.3099C9.90307 51.011 9.93129 50.4411 9.83493 50.0516C10.1479 50.1526 10.4594 50.2107 10.7833 50.0011C10.9928 49.8664 11.2951 49.4942 10.8387 48.7906C10.7533 48.6587 10.6427 48.5145 10.5191 48.3245C10.469 48.2463 10.3221 47.9941 10.1886 47.7876C10.1505 47.7295 10.1248 47.7077 10.0971 47.7257C10.0694 47.743 10.077 47.7719 10.1047 47.8148C10.1395 47.8691 10.1787 47.9376 10.1906 47.9739C10.2468 48.12 10.2036 48.1918 10.0742 48.2862C9.95265 48.3758 9.8423 48.4471 9.24225 48.835L8.54686 49.2838C8.18378 49.5185 7.87181 49.7208 7.69306 49.8083C7.56848 49.8664 7.46881 49.9034 7.40296 49.836C7.37194 49.8055 7.3338 49.7642 7.29617 49.706C7.26617 49.6594 7.2443 49.6512 7.22472 49.6642ZM9.5583 49.5904C9.50058 49.5013 9.46676 49.4399 9.45202 49.4001C9.44541 49.382 9.44591 49.3653 9.4777 49.3447L10.4528 48.7145C10.4963 48.6863 10.5176 48.684 10.543 48.7064C10.5756 48.7401 10.5985 48.7749 10.6341 48.8292C10.8512 49.1638 10.602 49.5399 10.3373 49.7104C10.1436 49.836 9.96333 49.8689 9.81459 49.8217C9.71288 49.7941 9.64169 49.7185 9.5583 49.5904ZM8.29667 50.1074L9.23259 49.5028C9.25217 49.4904 9.26514 49.4924 9.27556 49.5081C9.31319 49.5662 9.33862 49.6053 9.38006 49.6776C9.47032 49.8347 9.50083 49.9418 9.49448 50.0618C9.47642 50.4926 9.19776 50.7882 8.95316 50.9463C8.54254 51.2114 8.25574 50.9772 8.14234 50.8022C8.08411 50.7131 8.03021 50.6207 8.00555 50.488C7.97656 50.3307 8.03606 50.2759 8.29667 50.1074ZM10.5771 54.2668C10.5532 54.2891 10.5657 54.3229 10.6071 54.3663C10.735 54.5 10.9468 54.7014 11.0203 54.7786C11.2794 55.0498 11.4706 55.2903 11.9313 55.7729C12.0978 55.9472 12.1306 55.948 12.2247 55.8968C12.3493 55.83 12.6269 55.6098 12.6646 55.5745C12.7055 55.5354 12.719 55.5159 12.6966 55.4926C12.6709 55.4659 12.6442 55.4784 12.6107 55.504C12.5395 55.5593 12.4055 55.61 12.3231 55.6116C12.151 55.6154 12.0226 55.4877 11.8532 55.3099C11.6038 55.0485 11.544 54.9387 11.5407 54.8339C11.5354 54.7045 11.7701 54.4812 12.2061 54.0661L12.8057 53.4967C13.3241 53.004 13.4192 52.9132 13.5346 52.8165C13.6605 52.7094 13.7436 52.6813 13.8471 52.7556C13.8924 52.7899 13.9473 52.8393 13.9821 52.8769C14.0208 52.917 14.0464 52.9307 14.0703 52.9078C14.0942 52.885 14.0785 52.8551 14.034 52.8084C13.9094 52.6769 13.6653 52.4428 13.5885 52.3618C13.5021 52.2717 13.3109 52.051 13.1606 51.8934C13.1128 51.8435 13.0833 51.8267 13.0594 51.8488C13.0355 51.8716 13.048 51.8983 13.0833 51.935C13.1248 51.9784 13.1596 52.0213 13.1787 52.0551C13.2603 52.1883 13.2315 52.2669 13.122 52.3839C13.019 52.4943 12.9239 52.5848 12.406 53.0771L11.8064 53.6475C11.4929 53.9453 11.2239 54.2011 11.0643 54.3206C10.9531 54.401 10.8616 54.4553 10.7838 54.4015C10.7485 54.3777 10.7032 54.3439 10.6554 54.294C10.6173 54.2544 10.5939 54.2506 10.5771 54.2668ZM14.391 57.8132C14.3714 57.8393 14.3894 57.8702 14.4383 57.9055C14.588 58.0141 14.8331 58.1745 14.9196 58.2369C15.0208 58.3102 15.2496 58.4929 15.4972 58.672C15.5387 58.7025 15.5768 58.7129 15.5964 58.6862C15.6106 58.6672 15.5997 58.6416 15.5583 58.6119C15.5021 58.5718 15.4248 58.5038 15.378 58.4581C15.2763 58.3615 15.2997 58.2739 15.3627 58.1636C15.4667 57.9892 15.6851 57.6886 15.9534 57.3204L16.4395 56.6521C16.8593 56.0741 16.9371 55.9681 17.0329 55.8513C17.1369 55.7242 17.2142 55.6813 17.3292 55.7356C17.3798 55.7605 17.4131 55.7785 17.4499 55.8057C17.4881 55.8328 17.5158 55.8414 17.5382 55.8118C17.5544 55.7884 17.53 55.759 17.4809 55.7237C17.3388 55.6209 17.1085 55.4715 17.0144 55.4038C16.9056 55.3251 16.6772 55.1419 16.5346 55.0392C16.4746 54.9953 16.4387 54.9811 16.4225 55.0039C16.4001 55.0343 16.4171 55.0582 16.455 55.0853C16.4998 55.1173 16.546 55.1571 16.5786 55.1982C16.6477 55.2769 16.6386 55.3687 16.5519 55.5035C16.4708 55.6301 16.3935 55.7367 15.9732 56.3146L15.4871 56.9835C15.2191 57.3514 15.0004 57.6518 14.8659 57.7979C14.7744 57.9002 14.7052 57.9484 14.6188 57.9088C14.5796 57.8921 14.529 57.867 14.4723 57.8261C14.4281 57.7936 14.4047 57.7941 14.391 57.8132ZM18.8237 58.5896C18.6429 59.008 18.5442 59.5388 18.8008 60.0891C19.0408 60.5971 19.4743 60.9373 20.0581 61.1888C20.3304 61.3062 20.6668 61.4153 20.8671 61.4202C20.9526 61.4212 20.9788 61.4065 21.0322 61.343C21.1377 61.2149 21.3518 60.8617 21.3741 60.8099C21.3889 60.7757 21.3937 60.7414 21.3637 60.7285C21.3294 60.7143 21.3136 60.7275 21.2706 60.7909C21.2201 60.8614 21.1112 60.9622 21.0027 61.0132C20.7469 61.1383 20.498 61.0822 20.1191 60.9185C19.5491 60.6724 18.9986 59.8313 19.4428 58.8055C19.6241 58.3871 19.8822 58.0128 20.3182 57.8578C20.5801 57.766 20.8638 57.7759 21.234 57.9355C21.6261 58.1044 21.9076 58.3643 21.9826 58.5756C22.0408 58.7337 22.0304 58.9088 21.9765 59.044C21.9503 59.1044 21.9444 59.1424 21.978 59.1569C22.0161 59.1731 22.04 59.1427 22.0721 59.0798C22.1178 58.9973 22.2162 58.758 22.2867 58.6195C22.3601 58.4723 22.3955 58.4262 22.4107 58.3919C22.4217 58.3658 22.414 58.3371 22.3688 58.3125C22.2467 58.2445 22.1275 58.1468 21.9752 58.0555C21.7901 57.9451 21.6403 57.8598 21.3762 57.7457C20.7418 57.4724 20.2628 57.4706 19.8331 57.6229C19.2602 57.8266 18.9511 58.2968 18.8237 58.5896ZM24.1099 62.2887C24.1046 62.3211 24.1343 62.3409 24.1938 62.3506C24.3769 62.381 24.667 62.4158 24.7725 62.4338C24.8961 62.4543 25.1819 62.517 25.4837 62.5675C25.5338 62.5761 25.5729 62.5685 25.5785 62.536C25.5823 62.5127 25.5617 62.4947 25.5117 62.4866C25.443 62.4752 25.3438 62.449 25.2813 62.429C25.1473 62.3871 25.1295 62.2986 25.1371 62.1709C25.1524 61.9695 25.2139 61.6036 25.2902 61.1542L25.428 60.3393C25.5467 59.6362 25.5684 59.5063 25.6027 59.3596C25.639 59.1993 25.6891 59.1265 25.8168 59.1244C25.873 59.1244 25.9103 59.1259 25.9561 59.1336C26.0019 59.1412 26.0306 59.1369 26.0372 59.0993C26.042 59.0716 26.0067 59.0559 25.9475 59.046C25.7738 59.0161 25.5015 58.9846 25.3871 58.9651C25.2543 58.9428 24.9683 58.8808 24.7947 58.8509C24.7217 58.8395 24.6835 58.8428 24.6787 58.871C24.6726 58.908 24.6983 58.9214 24.7441 58.9291C24.799 58.9382 24.858 58.9529 24.9058 58.9757C25.0021 59.0153 25.0349 59.1018 25.0174 59.2609C25.0016 59.4104 24.9792 59.5403 24.8605 60.2439L24.7227 61.0583C24.6469 61.5077 24.5849 61.8733 24.5295 62.0641C24.4928 62.1961 24.4522 62.2701 24.3573 62.2732C24.3149 62.2755 24.2582 62.2755 24.1895 62.2641C24.1349 62.2549 24.1143 62.2658 24.1099 62.2887ZM28.4951 59.2594C28.4966 59.297 28.5246 59.3056 28.5709 59.3033C28.6263 59.301 28.6873 59.3038 28.7387 59.3157C28.8417 59.3353 28.8912 59.4134 28.9065 59.5728C28.9212 59.7227 28.9261 59.8536 28.9528 60.5671L28.9833 61.393C29.0001 61.8482 29.0143 62.2189 28.998 62.4165C28.9894 62.5531 28.9642 62.634 28.8727 62.6561C28.8307 62.667 28.7758 62.6784 28.7061 62.6812C28.6507 62.6835 28.6327 62.6979 28.6332 62.7213C28.6342 62.7537 28.6675 62.7669 28.728 62.7642C28.9136 62.7581 29.205 62.7327 29.3118 62.7289C29.4371 62.7246 29.7293 62.7279 30.0354 62.7164C30.0865 62.7142 30.1231 62.6989 30.1218 62.6665C30.1208 62.6431 30.0974 62.6294 30.0461 62.6317C29.9764 62.634 29.8745 62.6284 29.8091 62.6213C29.6693 62.6076 29.6332 62.5246 29.6149 62.398C29.5887 62.1976 29.5752 61.8269 29.5582 61.3717L29.5271 60.5458C29.501 59.8323 29.4956 59.7009 29.4999 59.5509C29.5032 59.3863 29.5371 59.3053 29.6611 59.2767C29.7166 59.2658 29.7537 59.2592 29.8 59.2576C29.8462 59.2561 29.8739 59.2457 29.8724 59.2082C29.8714 59.18 29.8338 59.1724 29.7738 59.1739C29.5973 59.18 29.3245 59.2043 29.2086 59.2082C29.0741 59.2135 28.7812 59.2097 28.6052 59.2168C28.531 59.2203 28.4938 59.2312 28.4951 59.2594ZM35.2192 57.9065C35.1854 57.9223 35.1783 57.9722 35.1996 58.0512L36.0826 61.0167C36.1289 61.171 36.1729 61.3524 36.0674 61.4328C36.0107 61.4747 35.9809 61.4889 35.9476 61.5047C35.9057 61.5242 35.8838 61.5447 35.8937 61.566C35.9118 61.6041 35.9499 61.597 35.9916 61.577C36.1261 61.5145 36.3222 61.4075 36.4017 61.3699C36.4775 61.3352 36.6723 61.2595 36.8492 61.1771C36.9123 61.1477 36.9456 61.1218 36.9275 61.0837C36.9176 61.0624 36.8846 61.0675 36.8508 61.0832C36.8088 61.1027 36.7478 61.1261 36.6646 61.1441C36.5851 61.1603 36.5121 61.1479 36.4747 61.0675C36.4427 60.999 36.4213 60.9419 36.3936 60.8614L35.8198 59.0673L35.836 59.0592C36.1327 59.3097 36.6359 59.7275 36.716 59.7993C36.8215 59.895 37.4587 60.3905 37.6514 60.5395C37.7783 60.6351 37.8604 60.7008 37.898 60.6828C37.9357 60.6648 37.939 60.6171 37.9415 60.372L37.9535 58.0144L37.9703 58.0068L39.0989 59.7595C39.1714 59.8709 39.1848 59.9318 39.1637 59.9523C39.1403 59.9785 39.1294 59.999 39.1393 60.0208C39.1513 60.0457 39.1823 60.047 39.283 60.0104C39.4572 59.9447 40.0437 59.6867 40.1482 59.6377C40.207 59.6106 40.2517 59.574 40.2359 59.54C40.2235 59.5144 40.1925 59.5243 40.1543 59.5416C40.0999 59.5672 40.014 59.6024 39.8739 59.621C39.7302 59.641 39.6306 59.5372 39.4671 59.2873L37.8528 56.8391C37.7989 56.7554 37.7536 56.7244 37.7155 56.7419C37.6779 56.7599 37.6687 56.8056 37.6707 56.8876L37.6654 59.8483L35.3944 57.9862C35.2878 57.9012 35.253 57.8908 35.2192 57.9065ZM41.4228 56.6016C41.9743 57.2243 43.047 57.6246 44.0445 56.7445C44.927 55.9663 44.9194 54.839 44.2062 54.0336C43.4925 53.2283 42.5026 53.1935 41.6369 53.957C40.5947 54.8765 40.8904 56.0005 41.4228 56.6016ZM41.686 54.2145C42.2555 53.7119 43.137 53.8048 43.835 54.5926C44.735 55.6093 44.2781 56.2253 44.0353 56.44C43.3679 57.0289 42.4541 56.8008 41.8062 56.0695C41.0302 55.1937 41.2863 54.5672 41.686 54.2145ZM44.761 50.9019C44.8787 50.7981 44.9613 50.8133 45.0958 50.9003C45.2227 50.9823 45.3282 51.0602 45.9044 51.4834L46.5713 51.9736C46.9199 52.2301 47.2191 52.4501 47.364 52.5854C47.4632 52.681 47.5329 52.7614 47.4924 52.8467C47.4749 52.8858 47.45 52.9363 47.409 52.9923C47.3752 53.037 47.3757 53.0603 47.3948 53.0738C47.4215 53.0933 47.452 53.0753 47.4879 53.0276C47.598 52.8782 47.7597 52.6353 47.8232 52.5496C48.046 52.2481 48.2506 52.0188 48.647 51.4819C48.7902 51.2885 48.7853 51.2553 48.7182 51.1721C48.63 51.0612 48.3648 50.826 48.3241 50.7956C48.2783 50.7623 48.2565 50.7522 48.2369 50.778C48.215 50.808 48.2326 50.8318 48.2636 50.8608C48.33 50.9217 48.4034 51.044 48.42 51.1249C48.4533 51.2934 48.3493 51.4415 48.2038 51.6389C47.9888 51.9297 47.8909 52.0069 47.7874 52.0284C47.6615 52.0566 47.3996 51.8643 46.9145 51.508L46.2481 51.0178C45.672 50.5941 45.5659 50.5162 45.4505 50.42C45.3231 50.3147 45.2812 50.2374 45.3361 50.1234C45.3618 50.0729 45.4019 50.0105 45.4324 49.9692C45.465 49.9245 45.4744 49.8969 45.4477 49.8773C45.421 49.8578 45.3943 49.8783 45.3557 49.9306C45.2484 50.0757 45.0589 50.3561 44.9926 50.4457C44.9186 50.5461 44.7335 50.7727 44.6043 50.9478C44.5629 51.0039 44.5514 51.0358 44.5776 51.0549C44.6043 51.0744 44.6282 51.0577 44.6587 51.0168C44.6951 50.9681 44.7317 50.9257 44.761 50.9019ZM48.5402 47.4502L49.2883 47.8033C49.6798 47.9886 50.0157 48.1466 50.1845 48.2522C50.2999 48.3273 50.3833 48.3922 50.3605 48.4836C50.3518 48.5255 50.3366 48.5798 50.3066 48.6427C50.2827 48.6927 50.2875 48.7155 50.3088 48.7254C50.3388 48.7396 50.3655 48.7163 50.391 48.6617C50.4706 48.4942 50.5822 48.2248 50.6284 48.1281C50.7271 47.919 50.9562 47.5664 51.1011 47.2609C51.4675 46.486 51.3716 45.9085 51.2633 45.621C51.1321 45.2727 50.8288 44.8581 50.2931 44.6051C49.7874 44.3661 49.3409 44.3965 49.0208 44.5013C48.32 44.7289 47.989 45.4277 47.7419 45.9509C47.6226 46.2023 47.5105 46.4725 47.449 46.6017C47.394 46.7184 47.2562 46.9767 47.1512 47.1982C47.1217 47.2611 47.1159 47.2949 47.1459 47.3086C47.1759 47.3228 47.196 47.3015 47.2178 47.2553C47.2456 47.1972 47.2837 47.1277 47.3084 47.0982C47.4032 46.9739 47.4868 46.9726 47.6356 47.0325C47.7752 47.0888 47.8939 47.1452 48.5402 47.4502ZM48.7197 46.8947C48.3839 46.7362 48.0142 46.5611 47.8715 46.4888C47.8248 46.467 47.8095 46.4449 47.8105 46.3985C47.809 46.3571 47.8693 46.1957 47.9092 46.1128C48.0638 45.7857 48.3409 45.3325 48.8975 45.1245C49.1566 45.0268 49.6107 44.9692 50.1502 45.2245C50.5885 45.4315 50.9353 45.6977 51.0426 46.076C51.1451 46.4312 51.0955 46.7562 50.8929 47.1832C50.7365 47.5141 50.57 47.6349 50.4639 47.6516C50.4009 47.6625 50.227 47.5907 50.1187 47.5445C50.0358 47.5108 49.7065 47.3603 49.2557 47.148L48.7197 46.8947ZM51.202 42.1569C52.0111 42.353 53.1212 42.0699 53.436 40.7784C53.7154 39.6358 53.064 38.7153 52.0172 38.4611C50.9702 38.2074 50.1372 38.7437 49.8639 39.8634C49.5344 41.2138 50.4202 41.9668 51.202 42.1569ZM51.212 41.5018C50.0734 41.2257 49.9254 40.565 50.0513 40.0479C50.2321 39.3101 51.0091 38.884 52.0327 39.1324C53.3536 39.4529 53.3307 40.2197 53.2539 40.5348C53.0429 41.3985 52.1626 41.7321 51.212 41.5018ZM51.1334 35.7378L54.0752 34.7506C54.3012 34.6767 54.3686 34.6534 54.3724 34.593C54.3762 34.5283 54.3027 34.4958 54.038 34.3588C53.8095 34.2426 53.3106 33.9937 52.6437 33.6552C52.0813 33.3705 51.8357 33.2292 51.4055 33.0222C51.1126 32.8788 51.0368 32.8042 50.9981 32.7418C50.947 32.6548 50.9529 32.5581 50.9557 32.5114C50.959 32.4652 50.9508 32.4371 50.918 32.4348C50.8855 32.4333 50.8733 32.4696 50.8695 32.5294C50.8613 32.669 50.8619 32.8869 50.857 32.9658C50.8532 33.0262 50.827 33.2186 50.8123 33.45C50.8074 33.537 50.8138 33.5794 50.8514 33.5819C50.8847 33.5834 50.8911 33.5471 50.8939 33.5053C50.8977 33.4449 50.9069 33.3759 50.9292 33.3216C50.9455 33.2807 50.9841 33.265 51.0218 33.2678C51.0642 33.2701 51.1334 33.2926 51.1934 33.32C51.4962 33.45 52.9712 34.1444 53.4759 34.3753L53.4743 34.3938L51.2931 35.0561C51.1199 35.1104 50.9859 35.1441 50.9249 35.1403C50.8825 35.1375 50.8509 35.1218 50.8291 35.0875C50.8029 35.049 50.8029 34.9794 50.8072 34.9056C50.81 34.8637 50.8024 34.8356 50.769 34.8338C50.7365 34.8315 50.7238 34.8823 50.7205 34.9376C50.7057 35.1685 50.7062 35.3912 50.6991 35.5069C50.6892 35.6683 50.659 35.9312 50.6437 36.1758C50.6394 36.2448 50.6409 36.2963 50.6785 36.2986C50.7062 36.3001 50.7215 36.2877 50.7238 36.2453C50.7266 36.2087 50.7309 36.1349 50.7543 36.0664C50.8123 35.903 50.869 35.8276 51.1334 35.7378Z"
     fill="#0E4C90"
     id="path394" />
</svg>
